/* XPM */
static char *result[] = {
/* columns rows colors chars-per-pixel */
"50 50 243 2 ",
"   c #554B8C",
".  c #564C8C",
"X  c #564C8D",
"o  c #574D8D",
"O  c #584E8D",
"+  c #584E8E",
"@  c #594E8E",
"#  c #584F8E",
"$  c #594F8E",
"%  c #5A508F",
"&  c #5B518F",
"*  c #5B528F",
"=  c #5C538F",
"-  c #5D538F",
";  c #5B5090",
":  c #5A5190",
">  c #5B5190",
",  c #5B5290",
"<  c #5B5291",
"1  c #5C5290",
"2  c #5D5390",
"3  c #5C5291",
"4  c #5D5391",
"5  c #5E5490",
"6  c #5F5590",
"7  c #5F5591",
"8  c #5F5690",
"9  c #5D5492",
"0  c #5F5592",
"q  c #605691",
"w  c #605692",
"e  c #605693",
"r  c #605793",
"t  c #615793",
"y  c #615891",
"u  c #625891",
"i  c #625991",
"p  c #635991",
"a  c #615893",
"s  c #655C92",
"d  c #665C92",
"f  c #635A94",
"g  c #675D97",
"h  c #6A6194",
"j  c #6B6294",
"k  c #6A6097",
"l  c #6C6395",
"z  c #6C6495",
"x  c #6F6796",
"c  c #696098",
"v  c #6D639A",
"b  c #6F659A",
"n  c #6E659B",
"m  c #706796",
"M  c #716897",
"N  c #716997",
"B  c #776E98",
"V  c #776F98",
"C  c #766E99",
"Z  c #72699D",
"A  c #73699D",
"S  c #746B9F",
"D  c #756B9F",
"F  c #787099",
"G  c #79719A",
"H  c #6E68A1",
"J  c #6F68A1",
"K  c #6E68A2",
"L  c #6F69A3",
"P  c #7069A2",
"I  c #716AA3",
"U  c #726CA6",
"Y  c #736DA6",
"T  c #746EA6",
"R  c #786FA0",
"E  c #7870A1",
"W  c #847BA8",
"Q  c #827CA8",
"!  c #847EA8",
"~  c #877EAA",
"^  c #88809F",
"/  c #8E87A1",
"(  c #8F88A1",
")  c #8F88A2",
"_  c #8B85AA",
"`  c #8C86AB",
"'  c #8A81AC",
"]  c #8B82AC",
"[  c #8F8AAC",
"{  c #8F8AAD",
"}  c #908AA2",
"|  c #918AA2",
" . c #968FA4",
".. c #9790A4",
"X. c #9791A4",
"o. c #9891A4",
"O. c #9892A4",
"+. c #9993A5",
"@. c #9A93A5",
"#. c #9B95A6",
"$. c #9B95A7",
"%. c #9C96A6",
"&. c #9C96A7",
"*. c #9890AF",
"=. c #9B94B0",
"-. c #9991B5",
";. c #A39EA9",
":. c #A59FA9",
">. c #A097B8",
",. c #A9A3AB",
"<. c #A9A4AB",
"1. c #AAA4AB",
"2. c #ABA5AB",
"3. c #ADA7AC",
"4. c #ADA8AC",
"5. c #B1ADAF",
"6. c #B5B0AF",
"7. c #B7B3AF",
"8. c #A6A2B1",
"9. c #A7A3B1",
"0. c #A9A5B3",
"q. c #A8A0BE",
"w. c #B7B2B0",
"e. c #B7B3B0",
"r. c #B8B3B0",
"t. c #B9B4B0",
"y. c #B9B5B0",
"u. c #B8B4B1",
"i. c #BAB6B1",
"p. c #BBB7B1",
"a. c #BCB8B2",
"s. c #BEBAB2",
"d. c #BFBBB2",
"f. c #B7B0BF",
"g. c #C0BBB2",
"h. c #C0BCB3",
"j. c #C1BDB3",
"k. c #C2BEB4",
"l. c #C4BFBA",
"z. c #C8C5B5",
"x. c #CAC7B6",
"c. c #CAC7B7",
"v. c #CCC9B7",
"b. c #CDCAB7",
"n. c #C5C0BA",
"m. c #CFCCB8",
"M. c #D1CEB9",
"N. c #DBD8BF",
"B. c #DCD9BD",
"V. c #DCDABC",
"C. c #DFDDBE",
"Z. c #E1DFBE",
"A. c #E2E0BF",
"S. c #E3E1BF",
"D. c #AFA7C3",
"F. c #B0A8C3",
"G. c #B4ACC5",
"H. c #B5ADC6",
"J. c #B7B0C7",
"K. c #BCB6C3",
"L. c #B8B1C6",
"P. c #B9B1C6",
"I. c #B8B0C7",
"U. c #BAB2C8",
"Y. c #BAB2C9",
"T. c #BBB4C9",
"R. c #BBB4CA",
"E. c #BDB5CA",
"W. c #BDB6CB",
"Q. c #BEB6CB",
"!. c #C0B8CC",
"~. c #C1B9CC",
"^. c #C1BACD",
"/. c #CDC6CD",
"(. c #CAC2D2",
"). c #CEC7D5",
"_. c #D1CBD0",
"`. c #D5CFD3",
"'. c #D5CED4",
"]. c #D3CCD8",
"[. c #DDD7D9",
"{. c #DBD4DD",
"}. c #DCD5DD",
"|. c #DDD6DE",
" X c #DED7DE",
".X c #DED7DF",
"XX c #DED8D8",
"oX c #DFD9DA",
"OX c #DFD8DD",
"+X c #DFD9DD",
"@X c #DED8DF",
"#X c #DFD8DF",
"$X c #DFD9DF",
"%X c #E0DDC1",
"&X c #E0DBD8",
"*X c #E1DBD8",
"=X c #E0DAD9",
"-X c #E1DBD9",
";X c #E0DADA",
":X c #E1DCD9",
">X c #E2DCD9",
",X c #E5E3C0",
"<X c #E4E2C1",
"1X c #E6E4C0",
"2X c #E7E5C2",
"3X c #E6E3C5",
"4X c #E6E4C5",
"5X c #E9E8C2",
"6X c #EBEAC3",
"7X c #ECEBC3",
"8X c #EEECC3",
"9X c #EEEDC3",
"0X c #ECEBC4",
"qX c #EDEBC5",
"wX c #EFEDC8",
"eX c #EEECCA",
"rX c #EFEDCA",
"tX c #EFEDCD",
"yX c #F0EEC4",
"uX c #F0EFC4",
"iX c #F1EFC7",
"pX c #F0EEC8",
"aX c #F0EFC8",
"sX c #F1EFC8",
"dX c #F0EEC9",
"fX c #F0EECB",
"gX c #F2F0C5",
"hX c #F2F1C5",
"jX c #F3F2C5",
"kX c #F1F0C7",
"lX c #F2F1C6",
"zX c #F4F3C5",
"xX c #F4F3C6",
"cX c #F5F4C5",
"vX c #F5F4C6",
"bX c #F5F5C6",
"nX c #F6F5C6",
"mX c #F7F6C6",
"MX c #F8F7C7",
"NX c #F8F8C7",
"BX c #F2F1C8",
"VX c #E0D9E0",
"CX c None",
/* pixels */
"CXCXCXCXCXCXCXCXCXCXCXCXCXCXCXCXCXCXCXCXCXCXCXCXCXCXCXCXCXCXCXCXCXCXCXCXCXCXCXCXCXCXCXCXCXCXCXCXCXCX",
"CXCXCXCXCXCXCXCXCXCXCXCXCXCXCXCXCXCXCXCXCXCXCXCXCXCXCXCXCXCXCXCXCXCXCXCXCXCXCXCXCXCXCXCXCXCXCXCXCXCX",
"CXCXCXCXCXCXCXCXCXCXCXCXCXCXCXCXCXCXCXCXCXCXCXCXCXCXCXCXCXCXCXCXCXCXCXCXCXCXCXCXCXCXCXCXCXCXCXCXCXCX",
"CXCXCXCXCXCXCX$ $ $ $ $ $ $ $ $ $ $ $ CXCXCXCXCXCXCXCXCXCXCXCXCXCX$ $ $ $ $ $ $ $ CXCXCXCXCXCXCXCXCX",
"CXCXCXCXCXCXCX+ # @ @ @ @ @ @ $ $ $ $ CXCXCXCXCXCXCXCXCXCXCXCXCXCX+ @ @ @ @ @ @ @ CXCXCXCXCXCXCXCXCX",
"CXCXCXCXCX$ $ } <.,.,.,.,.,.1.%.i + $ $ $ $ $ $ $ $ $ $ $ $ $ + z ;.<.,.,.,.,.,.<./ + CXCXCXCXCXCXCX",
"CXCXCXCXCX$ $ 4.nXzXzXzXzXzXnXB.h o + + + + + + + + + + + + + o x Z.nXzXzXzXzXzXvX:.+ $ CXCXCXCXCXCX",
"CXCXCXCXCX$ $ 3.cXjXjXjXjXjXvXB.M 8 q 0 0 0 0 0 0 0 0 0 0 0 q 6 C Z.zXjXjXjXjXjXzX:.+ $ CXCXCXCXCXCX",
"CXCXCXCXCX$ $ 3.cXjXjXjXjXjXjX7Xb.z.l.L.I.I.I.I.I.I.I.I.J.P.n.z.m.8XjXjXjXjXjXjXzX:.+ $ CXCXCXCXCXCX",
"CXCXCXCXCX$ $ 3.cXjXjXjXjXjXjXjXvXnXtXOX X X X X X X X X X+XfXnXvXjXjXjXjXjXjXjXzX:.+ $ CXCXCXCXCXCX",
"CXCXCXCXCX$ $ 3.cXjXjXjXjXjXjXjXjXjXeX*X=X=X=X=X=X=X=X=X=X*XrXjXjXjXjXjXjXjXjXjXzX:.+ $ CXCXCXCXCXCX",
"CXCXCXCXCX$ $ 3.cXjXjXjXjXjXjXjXjXjXlXaXaXaXaXaXaXaXaXaXaXaXlXjXjXjXjXjXjXjXjXjXzX:.+ $ CXCXCXCXCXCX",
"CXCXCXCXCX$ $ 4.mXvXzXjXjXjXjXjXjXjXjXjXjXjXjXjXjXjXjXjXjXjXjXjXjXjXjXjXjXjXzXbXnX:.+ $ CXCXCXCXCXCX",
"CXCXCXCXCX$ $ #.d.h.A.zXjXjXjXjXjXjXjXjXjXjXjXjXjXjXjXjXjXjXjXjXjXjXjXjXjXzXC.g.s.| + $ CXCXCXCXCXCX",
"CXCXCXCXCXCXCX- = y k.vXjXjXjXjXjXjXjXjXjXjXjXjXjXjXjXjXjXjXjXjXjXjXjXjXjXvXi.8 = CXCXCXCXCXCXCXCXCX",
"CXCXCXCXCXCXCX$ + - j.bXjXjXjXjXjXjXjXjXjXjXjXjXjXjXjXjXjXjXjXjXjXjXjXjXjXvXt.& + CXCXCXCXCXCXCXCXCX",
"CXCXCXCXCX$ $ $ $ 5 j.bXjXjXjXjXjXjXjXjXjXjXjXjXjXjXjXjXjXjXjXjXjXjXjXjXjXvXt.* $ $ $ $ CXCXCXCXCXCX",
"CXCXCXCXCX$ $ $ $ 5 j.bXjXjXjXjXjXjXjXjXjXjXjXjXjXjXjXjXjXjXjXjXjXjXjXjXjXvXt.* $ $ $ $ CXCXCXCXCXCX",
"CXCXCXCXCX$ $ $ $ 5 j.bXjXjXjXjXjXjXjXjXjXjXjXjXjXjXjXjXjXjXjXjXjXjXjXjXjXvXt.* $ $ $ $ CXCXCXCXCXCX",
"CXCXCXCXCXCXCX$ $ 5 j.bXjXjXjXjXjXjXjXjXjXjXjXjXjXjXjXjXjXjXjXjXjXjXjXjXjXvXt.* $ $ CXCXCXCXCXCXCXCX",
"CXCXCXCXCXCXCX$ $ 5 j.bXjXjXjXjXjXjXjXjXjXjXjXjXjXjXjXjXjXjXjXjXjXjXjXjXjXvXt.* $ CXCXCXCXCXCXCXCXCX",
"CXCXCXCXCXCXCX$ $ 5 j.bXjXjXjXjXjXjXjXjXjXjXjXjXjXjXjXjXjXjXjXjXjXjXjXjXjXvXt.* $ $ CXCXCXCXCXCXCXCX",
"CXCXCXCXCX$ $ $ $ 5 j.bXjXjXjXjXjXjXjXjXjXjXjXjXjXjXjXjXjXjXjXjXjXjXjXjXjXvXt.* $ $ $ $ CXCXCXCXCXCX",
"CXCXCXCXCX$ $ $ $ 5 j.bXjXjXjXjXjXjXjXjXjXjXjXjXjXjXjXjXjXjXjXjXjXjXjXjXjXvXt.* $ $ $ $ CXCXCXCXCXCX",
"CXCXCXCXCX$ $ $ $ 5 j.bXjXjXjXjXjXjXjXjXjXjXjXjXjXjXjXjXjXjXjXjXjXjXjXjXjXvXt.* $ $ $ $ CXCXCXCXCXCX",
"CXCXCXCXCXCXCX$ $ 5 j.nXjXjXjXjXjXjXjXjXjXjXjXjXjXjXjXjXjXjXjXjXjXjXjXjXjXnXy.* $ CXCXCXCXCXCXCXCXCX",
"CXCXCXCXCXCXCX$ $ 5 j.xXhXhXhXhXhXhXhXhXhXhXhXhXhXhXhXhXhXhXhXhXhXhXhXhXhXzXr.& $ CXCXCXCXCXCXCXCXCX",
"CXCXCXCXCXCXCXCXCXCX( @.+.+.+.&.9.0.0.0.0.0.0.0.0.0.0.0.0.0.0.0.8.$.+.+.+.+.^ CXCXCXCXCXCXCXCXCXCXCX",
"CXCXCXCXCXCXCXCXCXCXo o o o o < L Y U U U U U U U U U U U U U Y K > o o o o o CXCXCXCXCXCXCXCXCXCXCX",
"CXCXCXCXCXCXCXCXCXCX$ $ $ $ $ 9 I T T T T T T T T T T T T T T T P 4 $ $ $ $ $ CXCXCXCXCXCXCXCXCXCXCX",
"CXCXCXCXCXCXCXCXCXCXCXCXCX$ $ 9 I T T T T T T T T T T T T T T T P 4 $ $ CXCXCXCXCXCXCXCXCXCXCXCXCXCX",
"CXCXCXCXCXCXCXCXCXCXCXCXCXo o 3 L Y U U U Y T T T T T Y U U U Y K > o o CXCXCXCXCXCXCXCXCXCXCXCXCXCX",
"CXCXCXCXCXCXCXCXCXCXCXCXCXA S E ` { [ [ { Q J H H H J ! { [ [ { _ R D Z CXCXCXCXCXCXCXCXCXCXCXCXCXCX",
"CXCXCXCXCXCXCXCXCXCX$ + f U.].`.4X5X5X5X6X5.2 > , : 7 u.6X5X5X5X3X'.].H.w + $ CXCXCXCXCXCXCXCXCXCXCX",
"CXCXCXCXCXCXCXCXCXCX$ + f ^..X-XsXzXzXnXMX7.$ X o X & d.NXnXzXzXdX;X@XR.r + $ CXCXCXCXCXCXCXCXCXCXCX",
"CXCXCXCXCXCXCXCXCXCX$ + f ~.|.=XaXzXA.r.6.<.o.X.X.X.O.2.6.y.,XzXdXoX XT.r + $ CXCXCXCXCXCXCXCXCXCXCX",
"CXCXCXCXCXCXCXCXCXCX$ + f ~. X=XaXbXx.u o  .uXhXhXhX9X/ o s M.vXdXoX.XR.r + $ CXCXCXCXCXCXCXCXCXCXCX",
"CXCXCXCXCXCXCXCXCXCX$ + f !.{.XXpXbXc.p + ..gXzXjXzXyX) + d M.vXwX[.}.Y.e + $ CXCXCXCXCXCXCXCXCXCXCX",
"CXCXCXCXCXCXCXCXCXCXCXCXCX~ ' =.2XcXS.p.e.m.hXjXjXjXgXv.w.a.1XvX<X*.] W CXCXCXCXCXCXCXCXCXCXCXCXCXCX",
"CXCXCXCXCXCXCXCXCXCXCXCXCXo   m Z.zXzXvXbXvXzXzXzXzXzXvXbXvXzXcXV.j . o CXCXCXCXCXCXCXCXCXCXCXCXCXCX",
"CXCXCXCXCXCXCXCXCXCXCXCXCX$ o N %XBXiXiXkX0X,X,X,X,X,XqXkXiXiXBXN.l + $ CXCXCXCXCXCXCXCXCXCXCXCXCXCX",
"CXCXCXCXCXCXCXCXCXCXCXCXCX$ O b _.:X&X&X>Xf.F B V B G K.>X&X&X>X/.k O $ CXCXCXCXCXCXCXCXCXCXCXCXCXCX",
"CXCXCXCXCXCXCXCXCXCXCXCXCX$ O n ).#X X X$Xq.$ o o o ; D.VX X X#X(.c O $ CXCXCXCXCXCXCXCXCXCXCXCXCXCX",
"CXCXCXCXCXCXCXCXCXCXCXCXCX$ O v G.W.E.E.Q.-.% $ $ $ 1 >.Q.E.E.W.F.g O $ CXCXCXCXCXCXCXCXCXCXCXCXCXCX",
"CXCXCXCXCXCXCXCXCXCXCXCXCXCXCXCXt a a a t 0 CXCXCXCXCXw t a a a r CXCXCXCXCXCXCXCXCXCXCXCXCXCXCXCXCX",
"CXCXCXCXCXCXCXCXCXCXCXCXCXCXCXCX+ + + + + + CXCXCXCXCX+ + + + + + CXCXCXCXCXCXCXCXCXCXCXCXCXCXCXCXCX",
"CXCXCXCXCXCXCXCXCXCXCXCXCXCXCXCXCX$ $ $ $ CXCXCXCXCXCXCX$ $ $ $ CXCXCXCXCXCXCXCXCXCXCXCXCXCXCXCXCXCX",
"CXCXCXCXCXCXCXCXCXCXCXCXCXCXCXCXCXCXCXCXCXCXCXCXCXCXCXCXCXCXCXCXCXCXCXCXCXCXCXCXCXCXCXCXCXCXCXCXCXCX",
"CXCXCXCXCXCXCXCXCXCXCXCXCXCXCXCXCXCXCXCXCXCXCXCXCXCXCXCXCXCXCXCXCXCXCXCXCXCXCXCXCXCXCXCXCXCXCXCXCXCX",
"CXCXCXCXCXCXCXCXCXCXCXCXCXCXCXCXCXCXCXCXCXCXCXCXCXCXCXCXCXCXCXCXCXCXCXCXCXCXCXCXCXCXCXCXCXCXCXCXCXCX"
};
