/* XPM */
static char *result[] = {
/* columns rows colors chars-per-pixel */
"50 50 187 2 ",
"   c #88625D",
".  c #88625E",
"X  c #89625E",
"o  c #89635E",
"O  c #89635F",
"+  c #8A645D",
"@  c #8A645F",
"#  c #8F685D",
"$  c #9E755C",
"%  c #A0775B",
"&  c #A1785B",
"*  c #A1785C",
"=  c #A1795C",
"-  c #A2795C",
";  c #A27A5D",
":  c #A47C5F",
">  c #8E6860",
",  c #916B61",
"<  c #926D62",
"1  c #946F63",
"2  c #967164",
"3  c #977264",
"4  c #987364",
"5  c #9A7565",
"6  c #9B7665",
"7  c #9C7766",
"8  c #A17C67",
"9  c #A27D67",
"0  c #A27D68",
"q  c #A27E68",
"w  c #A68063",
"e  c #A88164",
"r  c #A48068",
"t  c #A58168",
"y  c #A48069",
"u  c #A58169",
"i  c #A78269",
"p  c #A7836A",
"a  c #AA856A",
"s  c #AA866B",
"d  c #AB876B",
"f  c #AC886B",
"g  c #AE896B",
"h  c #B08C6E",
"j  c #B08C6F",
"k  c #B38F6E",
"l  c #B6926F",
"z  c #B7936F",
"x  c #BA966F",
"c  c #A48373",
"v  c #A88671",
"b  c #AC8A73",
"n  c #AE8E7B",
"m  c #B69374",
"M  c #B69474",
"N  c #BB9871",
"B  c #BC9971",
"V  c #BD9A71",
"C  c #BE9A71",
"Z  c #BD9A72",
"A  c #BE9B72",
"S  c #BF9C73",
"D  c #B9997B",
"F  c #BC9B7B",
"G  c #BA9A7C",
"H  c #BE9E7E",
"J  c #BE9F7E",
"K  c #C09E74",
"L  c #C09E75",
"P  c #C19F76",
"I  c #C1A078",
"U  c #C3A279",
"Y  c #C4A47B",
"T  c #C5A47C",
"R  c #C5A57C",
"E  c #C5A57D",
"W  c #B69883",
"Q  c #BC9D80",
"!  c #B99D88",
"~  c #BFA693",
"^  c #C3A686",
"/  c #C9AA82",
"(  c #CCAE87",
")  c #CCAF87",
"_  c #C7AB8B",
"`  c #C4A98D",
"'  c #C7AC8E",
"]  c #C7AC8F",
"[  c #C8AD8F",
"{  c #CFB38E",
"}  c #CFB48E",
"|  c #D1B68E",
" . c #C0A795",
".. c #C0A895",
"X. c #C8AE90",
"o. c #CAB092",
"O. c #CAB193",
"+. c #CBB294",
"@. c #CCB294",
"#. c #CEB69A",
"$. c #D0B694",
"%. c #D0B695",
"&. c #D2B890",
"*. c #D3B891",
"=. c #D5BB94",
"-. c #D6BD97",
";. c #D2BA98",
":. c #D7BF99",
">. c #D4BC9A",
",. c #D6BE9B",
"<. c #DAC29C",
"1. c #DBC39D",
"2. c #DBC39E",
"3. c #DCC59F",
"4. c #D6C0A1",
"5. c #D6C0A2",
"6. c #D6C1A3",
"7. c #D7C1A3",
"8. c #DCC6A0",
"9. c #DEC8A3",
"0. c #DDC8A4",
"q. c #DFCAA5",
"w. c #E4CFAA",
"e. c #E4D0AA",
"r. c #E4D0AB",
"t. c #E4D0AC",
"y. c #E4D1AC",
"u. c #E5D1AC",
"i. c #E5D1AD",
"p. c #E5D2AE",
"a. c #E6D2AE",
"s. c #E6D3AF",
"d. c #E1CFB0",
"f. c #E1CFB1",
"g. c #E6D4B0",
"h. c #E6D4B1",
"j. c #E7D5B2",
"k. c #E7D5B3",
"l. c #E8D6B2",
"z. c #E8D6B3",
"x. c #E8D7B3",
"c. c #E9D7B3",
"v. c #E8D7B4",
"b. c #E9D7B4",
"n. c #E8D7B5",
"m. c #E9D8B5",
"M. c #EAD9B7",
"N. c #EADAB7",
"B. c #E8D8B9",
"V. c #EADAB8",
"C. c #EADAB9",
"Z. c #EBDBB9",
"A. c #E8D9BB",
"S. c #EADBBA",
"D. c #EBDBBA",
"F. c #EBDCBB",
"G. c #ECDCB9",
"H. c #ECDCBA",
"J. c #ECDDBA",
"K. c #ECDCBB",
"L. c #ECDDBB",
"P. c #ECDDBC",
"I. c #EDDEBD",
"U. c #EDDFBE",
"Y. c #EEE0BF",
"T. c #EDE0C1",
"R. c #EEE1C1",
"E. c #EFE1C1",
"W. c #EFE2C2",
"Q. c #EEE2C3",
"!. c #EFE2C3",
"~. c #F0E3C3",
"^. c #F0E3C4",
"/. c #F0E4C4",
"(. c #F1E4C4",
"). c #F0E4C5",
"_. c #F1E4C5",
"`. c #F1E5C5",
"'. c #F1E5C6",
"]. c #F1E5C7",
"[. c #F2E6C6",
"{. c #F2E6C7",
"}. c #F2E7C7",
"|. c #F2E6C8",
" X c #F2E7C8",
".X c #F3E7C8",
"XX c None",
/* pixels */
"XXXXXXXXXXXXXXXXXXXXXXXXXXXXXXXXXXXXXXXXXXXXXXXXXXXXXXXXXXXXXXXXXXXXXXXXXXXXXXXXXXXXXXXXXXXXXXXXXXXX",
"XXXXXXXXXXXXXXXXXXXXXXXXXXXXXXXXXXXXXXXXXXXXXXXXXXXXXXXXXXXXXXXXXXXXXXXXXXXXXXXXXXXXXXXXXXXXXXXXXXXX",
"XXXXXXXXXXXXXXXXXXXXXXXXXXXXXXXXXXXXXXXXXXXXXXXXXXXXXXXXXXXXXXXXXXXXXXXXXXXXXXXXXXXXXXXXXXXXXXXXXXXX",
"XXXXXXXXXXXXXXXXXXXXXXXXXXXXXXXXXXXXXXXXXXXXXXXXXXXXXXXXXXXXXXXXXXXXXXXXXXXXXXXXXXXXXXXXXXXXXXXXXXXX",
"XXXXXXXXXXXXXXXXXXXXXXXXXX: : : : : : : : : : : : : : : : : : : : : : : : : : : : : XXXXXXXXXXXXXXXX",
"XXXXXXXXXXXXXXXXXXXXXXXX& J %.5.7.6.6.6.6.6.6.6.6.6.6.6.6.6.6.6.6.6.6.6.6.6.6.7.4.$.F % XXXXXXXXXXXX",
"XXXXXXXXXXXXXXXXXXXXXXXXM ;.H.{. X X X X X X X X X X X X X X X X X X X X X X X X[.G.%.m XXXXXXXXXXXX",
"XXXXXXXXXXXXXXXXXXXX; h q.D.'.'.'.'.'.'.'.'.'.'.'.'.'.'.'.'.'.'.'.'.'.'.'.'.'.'.'.'.V.9.g XXXXXXXXXX",
"XXXXXXXXXXXXXXXXXX; H ,.F.~.!.b.z.x.x.x.x.x.x.x.x.x.x.x.x.x.x.x.x.x.x.x.x.x.x.z.m.~.!.S.>.F - XXXXXX",
"XXXXXXXXXXXXXXXXXX; _ J.'.E.Z.r.e.r.r.r.r.r.r.r.r.r.r.r.r.r.r.r.r.r.r.r.r.r.r.e.y.D.W._.G.^ - XXXXXX",
"XXXXXXXXXXXXXXXXXX- @.}.'.M.r.r.r.r.r.r.r.r.r.r.r.r.r.r.r.r.r.r.r.r.r.r.r.r.r.r.r.r.Z.'.{.' = XXXXXX",
"XXXXXXXXXXXXXXXXXX- @. X'.M.r.r.r.r.r.r.r.r.r.r.r.r.r.r.r.r.r.r.r.r.r.r.r.r.r.r.r.r.V.'.{.] = XXXXXX",
"XXXXXXXXXXXXXXXXXX- @. X'.M.r.r.r.r.r.r.r.r.r.r.r.r.r.r.r.r.r.r.r.r.r.r.r.r.r.r.r.r.Z.'.{.' = XXXXXX",
"XXXXXXXXXXXXXXXXXX- @. X'.M.r.r.r.r.r.r.r.r.r.r.r.r.r.r.r.r.r.r.r.r.r.r.r.r.r.r.r.r.Z.'.{.' = XXXXXX",
"XXXXXXXXXXXXXXXXXX- @. X'.M.r.r.r.r.r.r.r.r.r.r.r.r.r.r.r.r.r.r.r.r.r.r.r.r.r.r.r.r.Z.'.{.' = XXXXXX",
"XXXXXXXXXXXXXXXXXX- @. X'.M.r.r.r.r.r.r.r.r.r.r.r.r.r.r.r.r.r.r.r.r.r.r.r.r.r.r.r.r.Z.'.{.' = XXXXXX",
"XXXXXXXXXXXXXXXXXX- @. X'.M.r.r.r.r.r.r.r.r.r.r.r.r.r.r.r.r.r.r.r.r.r.r.r.r.r.r.r.r.Z.'.{.' = XXXXXX",
"XXXXXXXXXXXXXXXXXX& +. X'.M.r.r.r.r.r.r.r.r.r.r.r.r.r.r.r.r.r.r.r.r.r.r.r.r.r.r.r.r.Z.'.{.' = XXXXXX",
"XXXXXXXXXXXXXXXXe o.d.{.].M.r.r.r.r.r.r.r.r.r.r.r.r.r.r.r.r.r.r.r.r.r.r.r.r.r.r.r.r.Z.'.{.' = XXXXXX",
"XXXXXXXXXXXXXXj D A. X).R.b.r.r.r.r.r.r.r.r.r.r.r.r.r.r.r.r.r.r.r.r.r.r.r.r.r.r.r.r.Z.'.{.' = XXXXXX",
"XXXXXXXXXXXX& X.Q.).'.E.p.r.r.r.r.r.r.r.r.r.r.r.r.r.r.r.r.r.r.r.r.r.r.r.r.r.r.r.r.r.Z.'.{.' = XXXXXX",
"XXXXXXXXXXw O.f.{.].U.v.t.r.r.r.r.r.r.r.r.r.r.r.r.r.r.r.r.r.r.r.r.r.r.r.r.r.r.r.r.r.Z.'.{.' = XXXXXX",
"XXXXXXXXXXG B. X`.E.b.w.r.r.r.r.r.r.r.r.r.r.r.r.r.r.r.r.r.r.r.r.r.r.r.r.r.r.r.r.r.r.Z.'.{.' = XXXXXX",
"XXXXXX* Q T.).'.^.g.r.r.r.r.r.r.r.r.r.r.r.r.r.r.r.r.r.r.r.r.r.r.r.r.r.r.r.r.r.r.r.r.Z.'.{.' = XXXXXX",
"XXXXXX# n v.~.].^.s.e.r.r.r.r.r.r.r.r.r.r.r.r.r.r.r.r.r.r.r.r.r.r.r.r.r.r.r.r.r.r.r.Z.'.{.' = XXXXXX",
"XXXXXX. c 2.C.~./.m.p.r.r.r.r.r.r.r.r.r.r.r.r.r.r.r.r.r.r.r.r.r.r.r.r.r.r.r.r.r.r.r.Z.'.{.' = XXXXXX",
"XXXXXXO 7 I 8.V.`.`.V.r.r.r.r.r.r.r.r.r.r.r.r.r.r.r.r.r.r.r.r.r.r.r.r.r.r.r.r.r.r.r.Z.'.{.' = XXXXXX",
"XXXXXXO 6 S E :.m.~.~.L.y.r.r.r.r.r.r.r.r.r.r.r.r.r.r.r.r.r.r.r.r.r.r.r.r.r.r.r.r.r.Z.'.{.' = XXXXXX",
"XXXXXXXX4 s x / -.n.W.~.N.g.r.r.r.r.r.r.r.r.r.r.r.r.r.r.r.r.r.r.r.r.r.r.r.r.r.r.r.r.Z.'.{.' = XXXXXX",
"XXXXXXXXXX> k V P 3.V.].'.M.r.r.r.r.r.r.r.r.r.r.r.r.r.r.r.r.r.r.r.r.r.r.r.r.r.r.r.r.Z.'.{.' = XXXXXX",
"XXXXXXXXXXXX1 a K R 0.{.'.M.r.r.r.r.r.r.r.r.r.r.r.r.r.r.r.r.r.r.r.r.r.r.r.r.r.r.r.r.Z.'.{.' = XXXXXX",
"XXXXXXXXXXXXXX7 i t #.}.'.M.r.r.r.r.r.r.r.r.r.r.r.r.r.r.r.r.r.r.r.r.r.r.r.r.r.r.r.r.Z.'.{.' = XXXXXX",
"XXXXXXXXXXXXXXXXO . ...X'.M.r.r.r.r.r.r.r.r.r.r.r.r.r.r.r.r.r.r.r.r.r.r.r.r.r.r.r.r.Z.'.{.' = XXXXXX",
"XXXXXXXXXXXXXXXXXXX  ..X'.M.r.r.r.r.r.r.r.r.r.r.r.r.r.r.r.r.r.r.r.r.r.r.r.r.r.r.r.r.Z.'.{.' = XXXXXX",
"XXXXXXXXXXXXXXXXXX  ...X'.M.w.r.r.r.r.r.r.r.r.r.r.r.r.r.r.r.r.r.r.r.r.r.r.r.r.r.r.e.V.'.|.[ - XXXXXX",
"XXXXXXXXXXXXXXXXXXX ~ (.'.Z.p.r.r.r.r.r.r.r.r.r.r.r.r.r.r.r.r.r.r.r.r.r.r.r.r.r.r.a.K.'./.` $ XXXXXX",
"XXXXXXXXXXXXXXXXXXX ! c./._.U.u.r.r.r.r.r.r.r.r.r.r.r.r.r.r.r.r.r.r.r.r.r.r.r.r.i.Y._.^.l.W + XXXXXX",
"XXXXXXXXXXXXXXXXXXo b &.j.Y.).I.P.P.P.P.P.P.P.P.P.P.P.P.P.P.P.P.P.P.P.P.P.P.P.P.I.).U.h.| v X XXXXXX",
"XXXXXXXXXXXXXXXXXXO r Y 1.k.~.'.].].].].].].].].].].].].].].].].].].].].].].].].'.!.h.<.U 9 O XXXXXX",
"XXXXXXXXXXXXXXXXXXO u S L =.z.^.`._._._._._._._._._._._._._._._._._._._._._._.`.^.j.*.L S q O XXXXXX",
"XXXXXXXXXXXXXXXXXXXX3 0 B E ) } } } } } } } } } } } } } } } } } } } } } } } } } { ( T N 8 2 XXXXXXXX",
"XXXXXXXXXXXXXXXXXXXXXX< f z C V V V V V V V V V V V V V V V V V V V V V V V V V V C l d , XXXXXXXXXX",
"XXXXXXXXXXXXXXXXXXXXXXXX@ p A Z Z Z Z Z Z Z Z Z Z Z Z Z Z Z Z Z Z Z Z Z Z Z Z Z Z A y @ XXXXXXXXXXXX",
"XXXXXXXXXXXXXXXXXXXXXXXXXX3 5 5 5 5 5 5 5 5 5 5 5 5 5 5 5 5 5 5 5 5 5 5 5 5 5 5 5 5 2 XXXXXXXXXXXXXX",
"XXXXXXXXXXXXXXXXXXXXXXXXXXXXO O O O O O O O O O O O O O O O O O O O O O O O O O O O XXXXXXXXXXXXXXXX",
"XXXXXXXXXXXXXXXXXXXXXXXXXXXXXXXXXXXXXXXXXXXXXXXXXXXXXXXXXXXXXXXXXXXXXXXXXXXXXXXXXXXXXXXXXXXXXXXXXXXX",
"XXXXXXXXXXXXXXXXXXXXXXXXXXXXXXXXXXXXXXXXXXXXXXXXXXXXXXXXXXXXXXXXXXXXXXXXXXXXXXXXXXXXXXXXXXXXXXXXXXXX",
"XXXXXXXXXXXXXXXXXXXXXXXXXXXXXXXXXXXXXXXXXXXXXXXXXXXXXXXXXXXXXXXXXXXXXXXXXXXXXXXXXXXXXXXXXXXXXXXXXXXX",
"XXXXXXXXXXXXXXXXXXXXXXXXXXXXXXXXXXXXXXXXXXXXXXXXXXXXXXXXXXXXXXXXXXXXXXXXXXXXXXXXXXXXXXXXXXXXXXXXXXXX",
"XXXXXXXXXXXXXXXXXXXXXXXXXXXXXXXXXXXXXXXXXXXXXXXXXXXXXXXXXXXXXXXXXXXXXXXXXXXXXXXXXXXXXXXXXXXXXXXXXXXX"
};
