/* XPM */
static char *result[] = {
/* columns rows colors chars-per-pixel */
"50 50 154 2 ",
"   c #151B1B",
".  c #1D1F1D",
"X  c #1E211E",
"o  c #22211E",
"O  c #242420",
"+  c #2A2521",
"@  c #2C2923",
"#  c #332D24",
"$  c #3C2F25",
"%  c #3C2E28",
"&  c #353127",
"*  c #3D3227",
"=  c #3D3529",
"-  c #3F382A",
";  c #43322A",
":  c #4C362E",
">  c #443B2C",
",  c #4A3C2D",
"<  c #543F2E",
"1  c #5B3D33",
"2  c #4E4230",
"3  c #5F4435",
"4  c #584934",
"5  c #634236",
"6  c #6C4D36",
"7  c #7B4932",
"8  c #754B3C",
"9  c #7E4E3C",
"0  c #6D543B",
"q  c #7C5539",
"w  c #755C3E",
"e  c #83593C",
"r  c #8C5D3E",
"t  c #965538",
"y  c #955A3C",
"u  c #A45C3D",
"i  c #98603F",
"p  c #AD603E",
"a  c #865342",
"s  c #8C5644",
"d  c #915744",
"f  c #925945",
"g  c #9C5D45",
"h  c #A25E45",
"j  c #806241",
"k  c #8F6140",
"l  c #8B6A46",
"z  c #9B6743",
"x  c #966E47",
"c  c #9C6843",
"v  c #9E6348",
"b  c #947149",
"n  c #9D754B",
"m  c #A46046",
"M  c #AC6345",
"N  c #A36B46",
"B  c #AD6B45",
"V  c #A4664A",
"C  c #AC6648",
"Z  c #A4694C",
"A  c #AC6C4C",
"S  c #B36445",
"D  c #BA6643",
"F  c #BC6946",
"G  c #B46A4A",
"H  c #BC6C49",
"J  c #AC7148",
"K  c #A57C4F",
"L  c #B4754B",
"P  c #BC724D",
"I  c #B67A4D",
"U  c #B8784C",
"Y  c #A87E50",
"T  c #C56B46",
"R  c #CB6D47",
"E  c #C56E4A",
"W  c #D26F47",
"Q  c #C2704A",
"!  c #CB744C",
"~  c #CB794E",
"^  c #D67147",
"/  c #D87247",
"(  c #D67349",
")  c #D9764A",
"_  c #D57B4D",
"`  c #DB7C4D",
"'  c #C27A51",
"]  c #CC7A51",
"[  c #DA7F50",
"{  c #E07E4E",
"}  c #AF8353",
"|  c #B08353",
" . c #B88453",
".. c #B68855",
"X. c #BC8B57",
"o. c #BC8C58",
"O. c #DD804F",
"+. c #C68050",
"@. c #CD8254",
"#. c #CE865F",
"$. c #D38454",
"%. c #DE8452",
"&. c #D68856",
"*. c #DC8B56",
"=. c #DA8358",
"-. c #DE8D5A",
";. c #DC945B",
":. c #E08653",
">. c #E28B56",
",. c #E38F58",
"<. c #E49159",
"1. c #E8935A",
"2. c #E5995E",
"3. c #E89A5E",
"4. c #D18D65",
"5. c #DC8D61",
"6. c #DE9264",
"7. c #D59C61",
"8. c #DF9F63",
"9. c #D69269",
"0. c #DD966A",
"q. c #DE9A6E",
"w. c #DF9D70",
"e. c #E19563",
"r. c #E59C65",
"t. c #EA9E61",
"y. c #E29C6A",
"u. c #E09E71",
"i. c #DFA064",
"p. c #ECA464",
"a. c #EEA967",
"s. c #E5A26C",
"d. c #EDAB69",
"f. c #F1A967",
"g. c #F1AE6A",
"h. c #F3B16B",
"j. c #E3A473",
"k. c #E6AA75",
"l. c #E2A679",
"z. c #E3AB7B",
"x. c #E7B17D",
"c. c #E3AF81",
"v. c #E6B583",
"b. c #E7B986",
"n. c #E4B688",
"m. c #E6BB8B",
"M. c #E8BD8C",
"N. c #E8C08E",
"B. c #E6C293",
"V. c #E8C494",
"C. c #E8C798",
"Z. c #E9CD9D",
"A. c #E9D2A3",
"S. c None",
/* pixels */
"S.S.S.S.S.S.S.S.S.S.S.S.S.S.S.S.S.S.S.S.S.S.            S.S.S.S.S.S.S.S.S.S.S.S.S.S.S.S.S.S.S.S.S.S.",
"S.S.S.S.S.S.S.S.S.S.S.S.S.S.S.S.S.S.S.S.S.O 3 l l j l 3 O S.S.S.S.S.S.S.S.S.S.S.S.S.S.S.S.S.S.S.S.S.",
"S.S.S.S.S.S.S.S.S.S.S.S.S.S.S.S.S.S.S.S.- 0 x h.h.h.h.v : S.S.S.S.S.S.S.S.S.S.S.S.S.S.S.S.S.S.S.S.S.",
"S.S.S.S.S.S.S.S.S.S.S.S.S.S.S.S.S.S.= 0 n i.A d.h.h.d.Z a 6 6 & S.S.S.S.S.S.S.S.S.S.S.S.S.S.S.S.S.S.",
"S.S.S.S.S.S.S.S.S.S.S.S.S.S.S.S.2 w b d.h.s.Z d.h.p.d.Z f &.1.s 6 , S.S.S.S.S.S.S.S.S.S.S.S.S.S.S.S.",
"S.S.S.S.S.S.S.S.S.S.S.S.S.S.> 2 l h.h.h.h.i.J p.p.<.p.v f &.1.1.<.e : S.S.S.S.S.S.S.S.S.S.S.S.S.S.S.",
"S.S.S.S.S.S.S.S.S.S.S.S.> 4 n p.p.g.h.h.h.i.Z -.,.) ,.v f &.<.<.<.,.*.q < ; S.S.S.S.S.S.S.S.S.S.S.S.",
"S.S.S.S.S.S.S.S.S.S.& & j a.p.1.p.h.h.d.a.;.Z -.,.` *.c f @.-.<.<.<.<.,.*.q # # S.S.S.S.S.S.S.S.S.S.",
"S.S.S.S.S.S.S.S.- = x i.r.2.p.g.h.f.a.3.` ! V -.,.` *.v s h ' &.,.,.,.[ [ _ $.r $ * S.S.S.S.S.S.S.S.",
"S.S.S.S.S.S.> , } ;.-.3.p.g.g.d.p.<.) O.,.$.N *.<.,.,.v d T C g ' $.,.,.,.:.` ^ _ N > - S.S.S.S.S.S.",
"S.S.S.S.O # X.d.g.3.p.g.h.g.f.3.) ) ) <.1.$.V ,.,.<.-.v d R W g d g ' -.>.,.,.[ O.,.*.r + + S.S.S.S.",
"S.S.# & K 7.d.h.h.3.t.g.f.1.` *.<.O.) ,.<.&.Z *.<.,.-.c d R ^ h F ! G h ' &.,.:.O.<.<.&.+.z # @ S.S.",
"S.> X.7.d.h.h.g.h.2.t.<.` *.1.j.v.%.) ,.<.$.V ,.<.,.-.v d R ^ h T l.9.] G m ' _ O.<.<.<.1.*.+.J ; S.",
"X | g.h.h.h.h.h.g.%.) %.,.j.Z.Z.m.%.` <.,.$.V ,.,.<.-.m d R ^ h T c.Z.C.0.R C f U <.<.<.,.<.1.<.N X ",
"X o.h.h.g.h.d.<.O.*.,.k.z.k.A.A.b.%.) *.` ! N *.O.,.*.v s g T g T c.A.A.w.w.4.E G m U ,.<.<.,.1.L X ",
"X X.h.h.g.t.3.O.O.x.V.Z.b.k.Z.N.p.%./ ` ,.] V %.) >.;.m d F M d E [ n.Z.0.c.C.M.9.M C ) ` ,.,.1.L X ",
"o o.h.3.2.p.a.>.:.M.A.A.b.2.r.k.x.%.) ,.<.$.Z &.) ,.-.v f R R g T u.u.[ _ c.A.A.u.F C 5.:./ [ 1.J o ",
"X I 3.p.p.p.3.O.:.M.Z.b.r.s.b.V.b.%.) ,.<.&.m ) ^ ` _ v d R ^ h E c.m.c.9.[ n.A.u.F S { [ :.:.{ M X ",
"X  .f.h.h.f.p.%.:.s.k.x.k.z.A.A.M.%.` ,.<.$.Z 2.3.t.2.v f R ^ h T c.A.A.u.9.q.0.[ F C { { :.,.>.B o ",
"X o.h.h.h.h.p.O.:.x.M.Z.b.k.A.A.M.%.) *._ ! J d.h.h.d.Z s g T h T c.A.Z.q.c.m.n.9.F C :.,.>.1.1.L X ",
"X o.h.h.h.h.d.:.%.M.A.A.v.k.A.C.s.O./ O.1.&.Z h.h.h.d.Z s S M f T 5.m.A.u.c.A.A.u.F C :.6.1.,.e.J X ",
"X o.h.h.h.<.*.) :.M.A.A.v.r.z.r.` >.2.t.h.i.Z d.p.h.d.v f R T D S S 4.y.[ c.A.A.u.F C { { ,.,.,.L X ",
"X o.h.3.1.%.` ) :.M.A.B.k.>.O.O.>.3.h.h.h.i.Z 3.<.p.p.v d R W ^ S h S F T 0.M.A.u.F h ` [ { >.1.J X ",
"X L 1.:.` ,.1.O.%.k.v.e.O.:.,.2.g.g.h.h.h.i.Z ,.<.<.-.m d R ^ / ^ ^ F h S S 9.k.5.F G 1.,.{ [ :.B o ",
"X B %.,.<.<.<.` %.*.` >.,.3.h.h.g.g.h.f.<.*.H [ %.O.O.S f M R / ^ ^ / / T h S h T F G <.<.<.,.O.p X ",
"X J 1.<.<.<.<.` O.%.:.3.h.h.h.g.h.f.t.,.^ ^ / ^ ^ ^ ^ W M m S T W / ^ ^ ^ ) D h S M A <.<.<.<.1.L o ",
"X L <.<.<.>.%.%.%.p.h.h.h.h.h.a.t.>./ ^ ^ / ` ` _ ` ` ` ^ ^ S m S H R ^ ^ ^ ^ R S h G ' @.<.<.<.J X ",
"X L <.%.O.%.>.p.h.g.h.h.h.f.3.,.^ ^ / / ` [ ,.1.,.<.,.,.O.` / W S M S D R / / S S / R h B ' $.1.L X ",
"o J ,.O.O.p.h.h.h.h.h.a.p.,.^ / ) ^ ) %.1.,.r.r.r.r.r.r.1.,.O.) ^ ) C g S T W S S ^ ^ / T g G $.N X ",
". M :.p.g.g.h.h.g.a.p.%.) ) ) ` %.[ ,.,.e.k.Z.Z.A.A.Z.Z.k.<.<.,.) %.[ ) F h S M S / ^ ^ ^ W F h q X ",
"o X.h.h.h.h.h.p.t.O.) ^ ) O.,.<.:.` <.<.r.M.B.M.M.M.N.N.b.2.,.,.` %.<.,.%.( S h S T R ^ / / ^ ^ u X ",
"X X.h.h.h.f.p.*.^ ) ) ^ ` <.<.<.:.` ,.,.,.,.1.,.,.<.,.,.,.<.>.,.) %.<.<.<.[ ^ ) S f C R R ^ ^ / u o ",
"X X.h.f.a.%.) ) ) %.,.) ` <.<.<.:.R D p T p D p T T p T p T p p ) >.<.>.<.` %.,.O.! F g M R R / u o ",
"X Y 3.O.) ) ^ %.,.e.y.%.O.<.<.,.$.7 o o @ o o o o o o o o o o $ t O.<.1.<.` -.s.<.>.%.( E g M R t o ",
"S.& p / ^ :.) *.O.v.Z.q.` ,.<.1.N .     .                       o N 1.<.<.` z.Z.q.%.*.` *.W F 9 + S.",
"S.o p / %.<.) j.6.z.Z.q.` ,.,.1.c                           .   X i 1.<.<.%.z.Z.q.5.u.` :.` %.u o S.",
"S.o G ) :.<.) -.<.2.r.%.O.:.O.1.c                 X               i 1.<.<.O.-.y.e.<.>.[ :.` ,.L o S.",
"S.O L ` :.<.) q.0.l.M.6.` *.,.1.c                               X i 1.<.<.O.u.m.y.6.u.[ ,.>.1.U O S.",
"S.O U ,.>.<.) z.0.c.A.0.` >.O.1.c                                 i 2.<.<.O.z.A.w.6.l.[ >.%.1.L O S.",
"S.O U O.>.<.) <.,.r.s.*.` O.O.1.N                                 x <.<.<.` ;.p.1.5.,.` ,.>.1.U O S.",
"S.O L >.,.<.` %.<.<.,.` ` :.O.1.z                                 z 1.<.<.` :.<.<.<.%.[ <.,.1.U O S.",
"S.O U 1.,.,.) y.e.j.m.5.) ) ) O.y                                 z 1.<.<.O.y.b.y.6.y.[ <.<.1.U O S.",
"S.O L 1.<.,.) 6.<.y.j.-.) :.:.>.g                                 z 1.<.<.` e.j.e.,.6.[ <.,.<.U O S.",
"S.O L <.<.<.) 6.6.s.x.-.` <.<.1.z                                 z :.,.<.O.0.v.e.e.e.[ <.<.<.U O S.",
"S.O U <.<.,._ c.u.m.A.y.` ,.<.1.z                                 z >.>.<.` c.A.l.y.z.` <.,.1.U O S.",
"S.O U 1.<.,.) -.-.5.w.&.` 1.<.1.z                                 z :.>.<.` 5.w.-.-.5.[ <.<.1.L O S.",
"S.O L 1.<.<.` ) [ { { ) O.<.,.1.v     . % ; ; ; ; ; ; ; = ; .     z { :.1.[ ) ` [ [ ` [ <.<.1.U O S.",
"S.O U 1.<.,.E H ' ' U H ~ <.<.1.v + ; 1 s a s s s s s s s s 1 ; o z { >.1.! H ' ' ' H ~ <.<.1.U O S.",
"S.O Z $.@.+.v a s a f a Z @.@.@.s * f a f s s s s s s s s s f a + r ! ] @.Z a s s s a A @.@.@.Z o S.",
"S.. 8 f f f s s s s a f f f f f 5 S.S.S.S.S.S.S.S.S.S.S.S.S.S.S.  5 f d f s s s s s s f f f f 8 X S."
};
