/* XPM */
static char *result[] = {
/* columns rows colors chars-per-pixel */
"50 50 116 2 ",
"   c #51478B",
".  c #574D8D",
"X  c #594F8E",
"o  c #5B528F",
"O  c #5E5491",
"+  c #605692",
"@  c #635A94",
"#  c #6A5F95",
"$  c #6C6395",
"%  c #6D6399",
"&  c #726997",
"*  c #766E98",
"=  c #7A729A",
"-  c #6F69A2",
";  c #736CA6",
":  c #7770A5",
">  c #7872A7",
",  c #7F79A7",
"<  c #7A74A8",
"1  c #847C9D",
"2  c #947D9C",
"3  c #807AA7",
"4  c #837DAA",
"5  c #88819F",
"6  c #9B829E",
"7  c #A49E99",
"8  c #8781A1",
"9  c #8C85A0",
"0  c #8681AB",
"q  c #948DA3",
"w  c #9088AF",
"e  c #9A94A5",
"r  c #9E98A6",
"t  c #9F98AB",
"y  c #968DB3",
"u  c #9A91B5",
"i  c #9F9BB1",
"p  c #A287A0",
"a  c #A288A0",
"s  c #A091A4",
"d  c #A19BA7",
"f  c #A898A6",
"g  c #A29CA8",
"h  c #AC9CAE",
"j  c #BE9DA6",
"k  c #A49EB4",
"l  c #A59DBC",
"z  c #A8A3A7",
"x  c #A6A1AA",
"c  c #A9A4AB",
"v  c #ADA8AC",
"b  c #A9A4B4",
"n  c #A9A1BE",
"m  c #B4A3B1",
"M  c #B7ABB1",
"N  c #BEACB5",
"B  c #BAB4B0",
"V  c #B8B1BF",
"C  c #D6B7AF",
"Z  c #C1BDB3",
"A  c #D8B9B0",
"S  c #E0B7AE",
"D  c #E2B9AF",
"F  c #E1BCB0",
"G  c #E6DF86",
"H  c #E7E086",
"J  c #E8E186",
"K  c #EAE48F",
"L  c #EAE594",
"P  c #EBE699",
"I  c #D9D5A7",
"U  c #CECCBD",
"Y  c #D7C3BE",
"T  c #D8C6BF",
"R  c #D0CDBC",
"E  c #D9D6B0",
"W  c #D5D2BA",
"Q  c #DCD9BD",
"!  c #E6C7B4",
"~  c #E6CAB5",
"^  c #EAD6BA",
"/  c #E1DFBE",
"(  c #EBD8BB",
")  c #EEEAA7",
"_  c #F0EDAE",
"`  c #E3E1BF",
"'  c #EEE3BF",
"]  c #F0EDB3",
"[  c #AEA6C2",
"{  c #B5ADC6",
"}  c #BAB3C5",
"|  c #BBB4C9",
" . c #C1BACD",
".. c #CDC6CD",
"X. c #DFDDC0",
"o. c #CCC5D4",
"O. c #D1CBD0",
"+. c #DCD6DD",
"@. c #DFD9DD",
"#. c #E0DDC0",
"$. c #EFDAC8",
"%. c #F0DEC7",
"&. c #F2DCC9",
"*. c #E1DBD9",
"=. c #E6E4C0",
"-. c #ECE6C1",
";. c #EDECC3",
":. c #E9E5CF",
">. c #EEEBCB",
",. c #F0E3C6",
"<. c #F1EEC4",
"1. c #F0EEC8",
"2. c #F3F2C5",
"3. c #F2F1C9",
"4. c #E0D9E0",
"5. c None",
/* pixels */
"5.5.5.5.5.5.5.5.5.5.5.5.5.5.5.5.5.5.5.5.5.5.5.5.5.5.5.5.5.5.5.5.5.5.5.5.5.5.5.5.5.5.5.5.5.5.5.5.5.5.",
"5.5.5.5.5.5.5.5.5.5.5.5.5.5.5.5.5.5.5.5.5.5.5.5.5.5.5.5.5.5.5.5.5.5.5.5.5.5.5.5.5.5.5.5.5.5.5.5.5.5.",
"5.5.5.5.5.5.5.5.5.5.5.5.5.5.5.5.5.5.5.5.5.5.5.5.5.5.5.5.5.5.5.5.5.5.5.5.5.5.5.5.5.5.5.5.5.5.5.5.5.5.",
"5.5.5.5.5.5.5.5.5.5.5.5.5.5.5.5.5.5.5.5.5.5.5.5.5.5.5.5.5.5.5.5.5.5.5.5.5.5.5.5.5.5.5.5.5.5.5.5.5.5.",
"5.5.5.5.5.5.5.5.. o . o . o . o o o 5.5.5.5.5.5.5.5.5.5.5.5.5.5.5.o o . X X X X o 5.5.5.5.5.5.5.5.5.",
"5.5.5.5.5.5.5.. . . . . . . . o X X o 5.5.5.5.5.5.5.5.5.5.5.5.5.5.X . . X . . . . 5.5.5.5.5.5.5.5.5.",
"5.5.5.5.5.5.5.& * * * = * * = & o X X 5.5.5.5.5.5.5.5.5.5.5.5.5.5.* * * * * * * * & 5.5.5.5.5.5.5.5.",
"5.5.5.5.5.X X c ' ` ` ` ` ` ` R $ . X X o X X X X X X X X X X X & W ` =.` ` ' ` =.g X X 5.5.5.5.5.5.",
"5.5.5.5.5.X o v 2.2.2.2.2.2.2.Q # . . . . . . . X X . . . X X . & / 2.2.2.2.2.2.2.x X X 5.5.5.5.5.5.",
"5.5.5.5.5.X X f ( ( ( ( ( <.2.' c g t y y y y w y y y y y y t r v =.2.<.( ( ^ ( ( s . X 5.5.5.5.5.5.",
"5.5.5.5.5.X X p S S S S D ' 2.2.2.2.>.4.4.+.+.+.+.+.+.+.@.@.>.2.2.2.2.' D S S S S 6 X X 5.5.5.5.5.5.",
"5.5.5.5.5.X X a S S S S ! ' 2.2.2.2.:.+.+.+.+.+.+.+.+.+.+.@.>.2.2.2.2.' D D S S D 6 X X 5.5.5.5.5.5.",
"5.5.5.5.5.o o p D S S S D ' 2.2.2.2.>.+.+.+.+.+.+.+.+.+.+.+.;.<.2.2.2.' D S S S S 6 X X 5.5.5.5.5.5.",
"5.5.5.5.5.X X a D D S S D ' 2.2.2.2.>.+.O.+.+.+.+.+.+.+.+.@.>.2.2.2.2.' D S S D F 6 X X 5.5.5.5.5.5.",
"5.5.5.5.5.X X 2 j j A ! ~ ' 2.2.2.2.>.+.+.+.+.+.+.+.+.+.+.@.>.2.2.2.2.' ~ ! C j j 2 X X 5.5.5.5.5.5.",
"5.5.5.5.5.5.5.+ + @ Z 2.2.2.2.2.2.2.>.+.+.+.+.+.+.+.+.+.+.@.>.2.2.2.2.2.<.2.B + O + 5.5.5.5.5.5.5.5.",
"5.5.5.5.5.5.5.X X o U 2.2.2.2.2.2.2.>.+.+.+.+.+.+.+.+.+.+.+.>.2.2.2.2.2.2.2.B o X 5.5.5.5.5.5.5.5.5.",
"5.5.5.5.5.X X X X O B 2.2.2.2.2.2.2.>.:.:.:.:.:.:.:.:.:.:.:.<.2.2.2.2.2.2.2.B o X X o o 5.5.5.5.5.5.",
"5.5.5.5.5.X X X X O B 2.2.2.2.2.2.2.2.2.2.2.2.2.<.2.2.2.2.2.2.2.2.2.2.2.2.2.B o o X X X 5.5.5.5.5.5.",
"5.5.5.5.5.X X o o O U 2.2.` ` ` <.2.2.2.2.2.2.2.<.2.2.2.2.2.2.2.2.=.` =.2.2.B O X X X X 5.5.5.5.5.5.",
"5.5.5.5.5.5.5.X X + U ] ;.5 & 5 =.2.2.2.2.2.2.2.2.2.2.2.2.<.2.2.Q 1 & q ;.2.B o X X 5.5.5.5.5.5.5.5.",
"5.5.5.5.5.5.5.X X o Z 2.` *   & ` 2.2.2.2.2.<.2.2.2.2.2.2.2.2.2.Q #   = ;.2.B o o 5.5.5.5.5.5.5.5.5.",
"5.5.5.5.5.5.5.. . o Z 2.;.g 5 r =.2.2.2.<.2.2.2.2.2.2.2.2.2.2.2.=.e 9 z ;.2.B o . o 5.5.5.5.5.5.5.5.",
"5.5.5.5.5.X o o . o U 2.2.;.2.<.2.2.2.2.2.2.2.2.<.2.2.2.2.2.2.2.2.2.;.2.2.2.B o o . X X 5.5.5.5.5.5.",
"5.5.5.5.5.o X X X O Z 2.<.2.2.2.2.2.2.2.2.2.2.2.2.2.2.2.2.2.2.2.2.2.2.2.2.2.B o o X X X 5.5.5.5.5.5.",
"5.5.5.5.5.5.5.X X o C $.%.,.,.,.2.2.2.2.2.2.2.2.2.2.2.2.2.2.2.2.<.,.,.,.,.,.M o X X 5.5.5.5.5.5.5.5.",
"5.5.5.5.5.5.5.X X O Z &.$.$.$.%.3.2.2.2.2.2.3.2.2.2.2.2.2.2.2.2.2.&.$.$.&.&.j o X 5.5.5.5.5.5.5.5.5.",
"5.5.5.5.5.5.5.5.X o h ..Y Y Y T X.X.X.X.X.X.X.X.X.X.X.X.X.X.X.X.Q T Y Y Y ..h o X 5.5.5.5.5.5.5.5.5.",
"5.5.5.5.5.5.5.5.5.5.# % $ $ $ % , 0 , 0 0 4 4 , 4 4 4 4 4 0 4 4 < % # # # # # 5.5.5.5.5.5.5.5.5.5.5.",
"5.5.5.5.5.5.5.5.5.5.. . . . . O - : ; ; ; ; ; ; - ; ; ; ; ; ; ; - O X X X . X 5.5.5.5.5.5.5.5.5.5.5.",
"5.5.5.5.5.5.5.5.5.5.5.O . . o O - ; ; ; ; 8 7 7 z b b 0 ; ; ; ; - O . O X X 5.5.5.5.5.5.5.5.5.5.5.5.",
"5.5.5.5.5.5.5.5.5.5.5.5.5.X X O ; ; ; ; ; 7 J J ) 2.1.i ; ; ; > - O X . 5.5.5.5.5.5.5.5.5.5.5.5.5.5.",
"5.5.5.5.5.5.5.5.5.5.5.5.5.O O @ > < < < < 7 J J ) 2.<.x < < < < > O O O 5.5.5.5.5.5.5.5.5.5.5.5.5.5.",
"5.5.5.5.5.5.5.5.5.5.5.X @ n } | U R R R U I J J L L P E R R R R U } } n O X 5.5.5.5.5.5.5.5.5.5.5.5.",
"5.5.5.5.5.5.5.5.5.5.X X @  .+.*.3.2.2.2.2._ J J J H H ] 2.2.2.2.3.@.4.| @ X O 5.5.5.5.5.5.5.5.5.5.5.",
"5.5.5.5.5.5.5.5.5.5.X X @  .4.*.1.2.2.2.2.] L L L L L ] 2.2.2.2.1.+.4.| O . . 5.5.5.5.5.5.5.5.5.5.5.",
"5.5.5.5.5.5.5.5.5.5.X X @  .4.@.1.2.2.2.2.2.2.2.] 2.2.2.2.2.2.2.1.@.+.| O . O 5.5.5.5.5.5.5.5.5.5.5.",
"5.5.5.5.5.5.5.5.5.5.X X @  .+.@.<.2.2.2.2.2.2.2.2.3.2.2.2.2.2.2.<.@.4.} O X O 5.5.5.5.5.5.5.5.5.5.5.",
"5.5.5.5.5.5.5.5.5.5.5.5.@ w u b ' 2.2.2.2.2.2.2.2.2.2.2.2.2.2.2.=.b u w O 5.5.5.5.5.5.5.5.5.5.5.5.5.",
"5.5.5.5.5.5.5.5.5.5.5.5.5.. . & / 2.<.2.2.2.2.2.2.2.2.2.2.2.2.2.Q $ . . 5.5.5.5.5.5.5.5.5.5.5.5.5.5.",
"5.5.5.5.5.5.5.5.5.5.5.5.5.X . & #.2.2.1.1.;.=.=.=.=.=.<.2.<.1.2.Q % . . 5.5.5.5.5.5.5.5.5.5.5.5.5.5.",
"5.5.5.5.5.5.5.5.5.5.5.5.5.X X % O.*.*.*.*.} = = = = = | *.*.*.*...% X . 5.5.5.5.5.5.5.5.5.5.5.5.5.5.",
"5.5.5.5.5.5.5.5.5.5.5.5.5.o X % o.4.+.+.*.[ . X X . . [ 4.4.+.4.o.@ . O 5.5.5.5.5.5.5.5.5.5.5.5.5.5.",
"5.5.5.5.5.5.5.5.5.5.5.5.5.X X % [ { { { { y . . X o O u { { { { [ @ . O 5.5.5.5.5.5.5.5.5.5.5.5.5.5.",
"5.5.5.5.5.5.5.5.5.5.5.5.5.5.5.5.O O O O O O 5.5.5.5.5.O O O O O O 5.5.5.5.5.5.5.5.5.5.5.5.5.5.5.5.5.",
"5.5.5.5.5.5.5.5.5.5.5.5.5.5.5.5.X o X X X X 5.5.5.5.5.X X X o X O 5.5.5.5.5.5.5.5.5.5.5.5.5.5.5.5.5.",
"5.5.5.5.5.5.5.5.5.5.5.5.5.5.5.5.5.5.5.5.5.5.5.5.5.5.5.5.5.5.5.5.5.5.5.5.5.5.5.5.5.5.5.5.5.5.5.5.5.5.",
"5.5.5.5.5.5.5.5.5.5.5.5.5.5.5.5.5.5.5.5.5.5.5.5.5.5.5.5.5.5.5.5.5.5.5.5.5.5.5.5.5.5.5.5.5.5.5.5.5.5.",
"5.5.5.5.5.5.5.5.5.5.5.5.5.5.5.5.5.5.5.5.5.5.5.5.5.5.5.5.5.5.5.5.5.5.5.5.5.5.5.5.5.5.5.5.5.5.5.5.5.5.",
"5.5.5.5.5.5.5.5.5.5.5.5.5.5.5.5.5.5.5.5.5.5.5.5.5.5.5.5.5.5.5.5.5.5.5.5.5.5.5.5.5.5.5.5.5.5.5.5.5.5."
};
