/* XPM */
static char *result[] = {
/* columns rows colors chars-per-pixel */
"50 50 243 2 ",
"   c #52478B",
".  c #544A8C",
"X  c #554B8C",
"o  c #564C8D",
"O  c #574C8D",
"+  c #574D8D",
"@  c #584D8D",
"#  c #584E8D",
"$  c #594F8D",
"%  c #584E8E",
"&  c #594F8E",
"*  c #5A508E",
"=  c #5B518E",
"-  c #5A508F",
";  c #5B518F",
":  c #5D538E",
">  c #5C538F",
",  c #594F90",
"<  c #5E5590",
"1  c #5F5590",
"2  c #605790",
"3  c #635991",
"4  c #635A91",
"5  c #635A92",
"6  c #645B92",
"7  c #655C92",
"8  c #615895",
"9  c #625995",
"0  c #6B6295",
"q  c #6A6298",
"w  c #6B6299",
"e  c #6B6399",
"r  c #6D639A",
"t  c #6E649B",
"y  c #6F659B",
"u  c #6F669C",
"i  c #706796",
"p  c #736A97",
"a  c #766E99",
"s  c #776F99",
"d  c #72689D",
"f  c #756B9F",
"g  c #7E769B",
"h  c #7D759C",
"j  c #7F779C",
"k  c #7F789C",
"l  c #6E67A1",
"z  c #736CA1",
"x  c #776EA0",
"c  c #736DA5",
"v  c #726CA6",
"b  c #736CA6",
"n  c #736DA6",
"m  c #736EA6",
"M  c #766FA4",
"N  c #746EA6",
"B  c #756FA6",
"V  c #7670A5",
"C  c #7872A5",
"Z  c #7A74A7",
"A  c #7B76A7",
"S  c #7E75A5",
"D  c #7C76A7",
"F  c #7D76A8",
"G  c #7C77A8",
"H  c #7D77A8",
"J  c #80789C",
"K  c #817A9C",
"L  c #837C9D",
"P  c #847D9D",
"I  c #857D9E",
"U  c #857E9E",
"Y  c #867E9E",
"T  c #867F9E",
"R  c #887FAA",
"E  c #9D958A",
"W  c #88819F",
"Q  c #89829F",
"!  c #8A839F",
"~  c #9C9592",
"^  c #AFA689",
"/  c #B0A789",
"(  c #BAB288",
")  c #BCB489",
"_  c #8A83A0",
"`  c #8E87A1",
"'  c #8F87A1",
"]  c #8980AB",
"[  c #8A85AB",
"{  c #8B86AC",
"}  c #8C87AC",
"|  c #9089A2",
" . c #918AA2",
".. c #918BA2",
"X. c #968FA4",
"o. c #948FAE",
"O. c #9690A4",
"+. c #9790A4",
"@. c #9791A4",
"#. c #9891A4",
"$. c #9A94A5",
"%. c #9B94A5",
"&. c #9E98A6",
"*. c #9E98A7",
"=. c #938AB1",
"-. c #938AB2",
";. c #A49EA9",
":. c #A49FA9",
">. c #A89FA9",
",. c #A69EBD",
"<. c #A79FBD",
"1. c #A6A1A9",
"2. c #A6A1AA",
"3. c #AEA8BC",
"4. c #B2ADB1",
"5. c #B5AFB2",
"6. c #B0A9B7",
"7. c #B0ACB5",
"8. c #BFBCB9",
"9. c #C2BB8F",
"0. c #C5BE90",
"q. c #C3BFB4",
"w. c #C1BEB9",
"e. c #E0B5AD",
"r. c #E0B6AE",
"t. c #E0B7AE",
"y. c #E0B8AE",
"u. c #E1B8AF",
"i. c #E1BAAF",
"p. c #E1BBB0",
"a. c #E8E186",
"s. c #EAE386",
"d. c #ECE585",
"f. c #C4C0B4",
"g. c #CDCAB7",
"h. c #CECAB8",
"j. c #CFCCB8",
"k. c #D9CBB7",
"l. c #D2C1BF",
"z. c #D2C2BF",
"x. c #D0CCB8",
"c. c #D0CDB8",
"v. c #D2CFB9",
"b. c #D3CFB9",
"n. c #D1CFBA",
"m. c #D2CFBA",
"M. c #D2D0B9",
"N. c #D3D0B9",
"B. c #D3D0BA",
"V. c #D6D4BB",
"C. c #D5D0BE",
"Z. c #D6D3BE",
"A. c #D6D4BE",
"S. c #D8D6BB",
"D. c #D9D7BC",
"F. c #D9D6BF",
"G. c #DBD8BC",
"H. c #DEDBBE",
"J. c #DEDCBF",
"K. c #E4C3B3",
"L. c #E4C4B3",
"P. c #E5C6B4",
"I. c #E7CEB7",
"U. c #E7D8BB",
"Y. c #ECDDBD",
"T. c #EDDDBD",
"R. c #EDDEBD",
"E. c #E3E1BF",
"W. c #ECE1BE",
"Q. c #EEE3BF",
"!. c #C2BACD",
"~. c #C4BCCF",
"^. c #D2C0C0",
"/. c #DDDBC0",
"(. c #CDC5D4",
"). c #CDC6D4",
"_. c #CEC6D4",
"`. c #CFC8D5",
"'. c #D3CBD7",
"]. c #DAD3DC",
"[. c #DBD4DD",
"{. c #DCD5DD",
"}. c #DCD5DE",
"|. c #DDD6DE",
" X c #DED7DE",
".X c #DED7DF",
"XX c #E1DDCD",
"oX c #E3DFCE",
"OX c #F0DCC7",
"+X c #F0DDC7",
"@X c #F0DAC8",
"#X c #E3DDD6",
"$X c #E5DFD7",
"%X c #E7E5C2",
"&X c #E7E6C2",
"*X c #E8E6C1",
"=X c #E8E6C2",
"-X c #EFE6C0",
";X c #E9E8C2",
":X c #EAE9C2",
">X c #EBEAC2",
",X c #ECEAC2",
"<X c #ECEBC3",
"1X c #EDEBC3",
"2X c #EFEBC3",
"3X c #EDECC3",
"4X c #EEECC3",
"5X c #EEEDC3",
"6X c #EFEEC4",
"7X c #F0E1C6",
"8X c #F0E2C6",
"9X c #F0E3C6",
"0X c #F2EDC3",
"qX c #F2EEC3",
"wX c #F0EFC4",
"eX c #F2EEC4",
"rX c #F2EFC4",
"tX c #F2EEC5",
"yX c #F2EFC5",
"uX c #F4EEC6",
"iX c #F4EFC6",
"pX c #F0F0C4",
"aX c #F1F0C4",
"sX c #F2F1C4",
"dX c #F2F1C5",
"fX c #F3F1C5",
"gX c #F2F2C5",
"hX c #F3F2C5",
"jX c #F3F3C5",
"kX c #F2F1C6",
"lX c #F4F2C5",
"zX c #F4F3C5",
"xX c #F4F3C7",
"cX c #F4F4C5",
"vX c #F5F4C5",
"bX c #F4F4C6",
"nX c #F5F4C6",
"mX c #F5F5C6",
"MX c #F6F5C6",
"NX c #F6F6C6",
"BX c #E7E4D1",
"VX c #E8E4D1",
"CX c None",
/* pixels */
"CXCXCXCXCXCXCXCXCXCXCXCXCXCXCXCXCXCXCXCXCXCXCXCXCXCXCXCXCXCXCXCXCXCXCXCXCXCXCXCXCXCXCXCXCXCXCXCXCXCX",
"CXCXCXCXCXCXCXCXCXCXCXCXCXCXCXCXCXCXCXCXCXCXCXCXCXCXCXCXCXCXCXCXCXCXCXCXCXCXCXCXCXCXCXCXCXCXCXCXCXCX",
"CXCXCXCXCXCXCXCXCXCXCXCXCXCXCXCXCXCXCXCXCXCXCXCXCXCXCXCXCXCXCXCXCXCXCXCXCXCXCXCXCXCXCXCXCXCXCXCXCXCX",
"CXCXCXCXCXCXCXCXCXCXCXCXCXCXCXCXCXCXCXCXCXCXCXCXCXCXCXCXCXCXCXCXCXCXCXCXCXCXCXCXCXCXCXCXCXCXCXCXCXCX",
"CXCXCXCXCXCXCXCXCXCXCXCXCXCXCXCXCXCXCXCXCXCXCXCXCXCXCXCXCXCXCXCXCXCXCXCXCXCXCXCXCXCXCXCXCXCXCXCXCXCX",
"CXCXCXCXCXCXCXCXCXCXCXCXCXCXCXCXCXCXCXCXCXCXCXCX& & & & & & & & & CXCXCXCXCXCXCXCXCXCXCXCXCXCXCXCXCX",
"CXCXCXCXCXCXCXCXCXCXCXCXCXCXCXCXCXCXCXCXCXCXCXCX+ + + + + + + + + CXCXCXCXCXCXCXCXCXCXCXCXCXCXCXCXCX",
"CXCXCXCXCXCXCXCXCXCXCXCXCXCXCXCXCXCXCXCXCXCXCXCXX.$.$.$.$.$.$.$.$.k CXCXCXCXCXCXCXCXCXCXCXCXCXCXCXCX",
"CXCXCXCXCXCXCXCXCXCXCXCXCXCXCX% % % % % % % + 0 G.hXdXdXdXdXdXgX6X .o % CXCXCXCXCXCXCXCXCXCXCXCXCXCX",
"CXCXCXCXCXCXCXCXCXCXCXCXCXCXCX7 7 7 7 7 7 7 6 a H.nXhXrXqXqXqXeX2X#.5 7 CXCXCXCXCXCXCXCXCXCXCXCXCXCX",
"CXCXCXCXCXCXCXCXCXCXCXCX& O T x.N.b.b.b.b.b.v.V.5XjXeXI.K.L.L.L.L.k.M.b.@.+ & CXCXCXCXCXCXCXCXCXCXCX",
"CXCXCXCXCXCXCXCXCXCXCXCX& O _ wXMXnXnXnXnXnXnXnXhXhX0XK.e.r.r.r.t.R.MXnX*.+ & & CXCXCXCXCXCXCXCXCXCX",
"CXCXCXCXCXCXCXCXCXCXCXCX& O ! 5XhXhXhXhXhXhXhXhXhXhX0XL.r.t.t.t.u.Y.jXhX&.+ & & CXCXCXCXCXCXCXCXCXCX",
"CXCXCXCXCXCXCXCXCXCXCXCX& O ! 5XjXhXhXhXhXhXhXhXhXhX0XK.r.t.t.t.y.T.bXhX*.+ & & CXCXCXCXCXCXCXCXCXCX",
"CXCXCXCXCXCXCXCXCXCXCXCX& O ! 5XjXhXhXhXhXhXhXhXhXhXqXP.i.i.i.i.p.U.>X:X$.+ & CXCXCXCXCXCXCXCXCXCXCX",
"CXCXCXCXCXCXCXCXCXCXCXCX& O ! 5XjXhXhXhXhXhXhXhXhXhXfX-XQ.Q.Q.Q.W.>.j J p CXCXCXCXCXCXCXCXCXCXCXCXCX",
"CXCXCXCXCXCXCXCXCXCXCXCX& O ! 5XjXhXhXhXhXhXhXhXhXhXhXjXjXjXjXzXpX| . + CXCXCXCXCXCXCXCXCXCXCXCXCXCX",
"CXCXCXCXCXCXCXCXCXCXCX& & O ! 5XjXhXhXhXhXhXhXhXhXhXhXhXhXhXhXhXwX..+ & & CXCXCXCXCXCXCXCXCXCXCXCXCX",
"CXCXCXCXCXCXCXCXCX& & & % o Q 5XjXhXjXzXhXhXhXhXhXhXhXhXhXhXhXhXwX..+ & & & & & CXCXCXCXCXCXCXCXCXCX",
"CXCXCXCXCXCXCXCXCX& & ; 1 > ` 5XzXsX4X3X5XdXhXhXhXhXhXhXhXhXhXhXwX..+ & & & & & CXCXCXCXCXCXCXCXCXCX",
"CXCXCXCXCXCXCXCXCX& + L q.f.B.aXnXD.' Y %.*XzXhXhXhXhXhXhXhXhXhXwX..+ & & CXCXCXCXCXCXCXCXCXCXCXCXCX",
"CXCXCXCXCXCXCXCXCX& + +.zXMXnXhXnXg.<   i E.zXhXhXhXhXhXhXhXhXhXwX..+ & CXCXCXCXCXCXCXCXCXCXCXCXCXCX",
"CXCXCXCXCXCXCXCXCX& + X.aXhXhXhXnXS._ K +.*XzXhXhXhXhXhXhXhXhXhXwX..+ & & CXCXCXCXCXCXCXCXCXCXCXCXCX",
"CXCXCXCXCXCXCXCXCX& + X.aXhXhXhXhXaX<X,X1XdXhXhXhXhXhXhXhXhXhXhXwX..+ & & & & CXCXCXCXCXCXCXCXCXCXCX",
"CXCXCXCXCXCXCXCXCX& + X.aXhXhXhXhXhXzXzXlXfXfXfXfXfXfXhXhXhXhXhXwX..+ & & & & & CXCXCXCXCXCXCXCXCXCX",
"CXCXCXCXCXCXCXCXCX& + X.aXhXhXhXhXhXhXhXyX9X7X8X8X7X9XtXhXhXhXhXwX..+ & & CXCXCXCXCXCXCXCXCXCXCXCXCX",
"CXCXCXCXCXCXCXCXCX& + O.hXmXnXvXvXvXvXvXiX+X@X@X@X@XOXuXvXvXnXmXdX..+ & CXCXCXCXCXCXCXCXCXCXCXCXCXCX",
"CXCXCXCXCXCXCXCXCX& + | j.c.n.Z.A.A.A.A.C.z.^.l.l.^.z.C.A.Z.m.c.h.W + & CXCXCXCXCXCXCXCXCXCXCXCXCXCX",
"CXCXCXCXCXCXCXCXCXCXCXCX5 4 e D H H H H H F F F F F F H H A q 4 3 CXCXCXCXCXCXCXCXCXCXCXCXCXCXCXCXCX",
"CXCXCXCXCXCXCXCXCXCXCXCX* $ 9 c n n n n n n n n n n m N B c 8 & - CXCXCXCXCXCXCXCXCXCXCXCXCXCXCXCXCX",
"CXCXCXCXCXCXCXCXCXCXCXCX^ / ~ V N N N N N N N N N N Z 7.w.8.3.<.,.S + & CXCXCXCXCXCXCXCXCXCXCXCXCXCX",
"CXCXCXCXCXCXCXCXCXCXCXCXs.d.0.C N N n v b b b b b v G F.NXxX$X.X[.] + & CXCXCXCXCXCXCXCXCXCXCXCXCXCX",
"CXCXCXCXCXCXCXCXCXCXCXCXa.s.9.z l M [ } } } } } } { o./.cXkX#X}.].] + & CXCXCXCXCXCXCXCXCXCXCXCXCXCX",
"CXCXCXCXCXCXCXCXCXCXCXCXa.s.) 2 , h J.=X&X&X&X&X&X%X=XwXhXkX#X}.].] + & CXCXCXCXCXCXCXCXCXCXCXCXCXCX",
"CXCXCXCXCXCXCXCXCXCXCXCXa.s.( : o g :XvXzXzXzXzXzXzXzXhXhXkX#X{.].R + & CXCXCXCXCXCXCXCXCXCXCXCXCXCX",
"CXCXCXCXCXCXCXCXCXCXCXCXCXCXE = + g ;XzXhXhXhXhXhXhXhXhXhX6X6.-.=.x CXCXCXCXCXCXCXCXCXCXCXCXCXCXCXCX",
"CXCXCXCXCXCXCXCXCXCXCXCXCXCXCX& + g ;XzXhXhXhXhXhXhXhXhXzX<XP X @ CXCXCXCXCXCXCXCXCXCXCXCXCXCXCXCXCX",
"CXCXCXCXCXCXCXCXCXCXCXCXCXCXCX& + g ;XzXhXhXhXhXhXhXhXhXzX<XU O & CXCXCXCXCXCXCXCXCXCXCXCXCXCXCXCXCX",
"CXCXCXCXCXCXCXCXCXCXCXCXCXCXCX& + g ;XzXhXhXhXhXhXhXhXhXzX<XU + & CXCXCXCXCXCXCXCXCXCXCXCXCXCXCXCXCX",
"CXCXCXCXCXCXCXCXCXCXCXCXCXCXCX& + g :XvXzXhXhXhXhXhXhXzXvX3XI + & CXCXCXCXCXCXCXCXCXCXCXCXCXCXCXCXCX",
"CXCXCXCXCXCXCXCXCXCXCXCXCXCXCXCXCXs :.2.4.XXVXBXBXVXoX5.1.;.s CXCXCXCXCXCXCXCXCXCXCXCXCXCXCXCXCXCXCX",
"CXCXCXCXCXCXCXCXCXCXCXCXCXCXCXCXCXCX% + u `. X|.|. X'.f + % CXCXCXCXCXCXCXCXCXCXCXCXCXCXCXCXCXCXCXCX",
"CXCXCXCXCXCXCXCXCXCXCXCXCXCXCXCXCXCX& + y !._.(.(.).~.d + & CXCXCXCXCXCXCXCXCXCXCXCXCXCXCXCXCXCXCXCX",
"CXCXCXCXCXCXCXCXCXCXCXCXCXCXCXCXCXCXCXCXCXr t t t t w CXCXCXCXCXCXCXCXCXCXCXCXCXCXCXCXCXCXCXCXCXCXCX",
"CXCXCXCXCXCXCXCXCXCXCXCXCXCXCXCXCXCXCXCXCX# # # # # # CXCXCXCXCXCXCXCXCXCXCXCXCXCXCXCXCXCXCXCXCXCXCX",
"CXCXCXCXCXCXCXCXCXCXCXCXCXCXCXCXCXCXCXCXCXCX& & & & & CXCXCXCXCXCXCXCXCXCXCXCXCXCXCXCXCXCXCXCXCXCXCX",
"CXCXCXCXCXCXCXCXCXCXCXCXCXCXCXCXCXCXCXCXCXCXCXCXCXCXCXCXCXCXCXCXCXCXCXCXCXCXCXCXCXCXCXCXCXCXCXCXCXCX",
"CXCXCXCXCXCXCXCXCXCXCXCXCXCXCXCXCXCXCXCXCXCXCXCXCXCXCXCXCXCXCXCXCXCXCXCXCXCXCXCXCXCXCXCXCXCXCXCXCXCX",
"CXCXCXCXCXCXCXCXCXCXCXCXCXCXCXCXCXCXCXCXCXCXCXCXCXCXCXCXCXCXCXCXCXCXCXCXCXCXCXCXCXCXCXCXCXCXCXCXCXCX",
"CXCXCXCXCXCXCXCXCXCXCXCXCXCXCXCXCXCXCXCXCXCXCXCXCXCXCXCXCXCXCXCXCXCXCXCXCXCXCXCXCXCXCXCXCXCXCXCXCXCX"
};
