/* XPM */
static char *result[] = {
/* columns rows colors chars-per-pixel */
"50 50 237 2 ",
"   c #54498C",
".  c #554B8C",
"X  c #554B8D",
"o  c #564C8D",
"O  c #574C8D",
"+  c #574D8D",
"@  c #564C8E",
"#  c #574D8E",
"$  c #584D8D",
"%  c #584E8D",
"&  c #584E8E",
"*  c #594E8E",
"=  c #594F8E",
"-  c #5A508E",
";  c #5B518F",
":  c #5F5590",
">  c #605690",
",  c #605790",
"<  c #605791",
"1  c #645B92",
"2  c #655C92",
"3  c #665C92",
"4  c #665C93",
"5  c #675E93",
"6  c #645B99",
"7  c #645C99",
"8  c #675F9C",
"9  c #6C628D",
"0  c #6B6395",
"q  c #6C6395",
"w  c #6E6695",
"e  c #6F6796",
"r  c #6D649A",
"t  c #6E659B",
"y  c #6F669B",
"u  c #69629E",
"i  c #6F669C",
"p  c #706896",
"a  c #716896",
"s  c #716897",
"d  c #716997",
"f  c #726997",
"g  c #736A97",
"h  c #736B97",
"j  c #746B97",
"k  c #726A98",
"l  c #746B98",
"z  c #756C98",
"x  c #766C9F",
"c  c #7B749B",
"v  c #7E759B",
"b  c #7F789C",
"n  c #766DA0",
"m  c #776DA0",
"M  c #716BA5",
"N  c #716BA6",
"B  c #726CA6",
"V  c #736DA6",
"C  c #746EA6",
"Z  c #7D74A2",
"A  c #7E75A4",
"S  c #7F78A3",
"D  c #857B8C",
"F  c #857C8C",
"G  c #837C9D",
"H  c #847D9D",
"J  c #8077A5",
"K  c #8178A6",
"L  c #827AA6",
"P  c #837DA4",
"I  c #827CA5",
"U  c #887FAB",
"Y  c #91888B",
"T  c #948B8B",
"R  c #9B9391",
"E  c #A29B99",
"W  c #A49E99",
"Q  c #8E87A1",
"!  c #8782AB",
"~  c #8881AB",
"^  c #8882AB",
"/  c #8883AB",
"(  c #8983AB",
")  c #9089A2",
"_  c #918AA2",
"`  c #928CA3",
"'  c #938CA3",
"]  c #948DA3",
"[  c #948EAD",
"{  c #9790A4",
"}  c #9F99A7",
"|  c #9B97B0",
" . c #9A91B5",
".. c #9B93B6",
"X. c #A19BA8",
"o. c #A49FA9",
"O. c #A8A2AA",
"+. c #A9A4AA",
"@. c #ABA6AB",
"#. c #ACA7AB",
"$. c #ACA7AC",
"%. c #ADA7AC",
"&. c #AEA8AC",
"*. c #B0ABAD",
"=. c #B0ACAD",
"-. c #B1ACAE",
";. c #B3AEAE",
":. c #B3AFAE",
">. c #B4ACAD",
",. c #B4AFAF",
"<. c #B0ADB5",
"1. c #B3AFB5",
"2. c #B7B2B2",
"3. c #BAB6B1",
"4. c #B8B4B6",
"5. c #B9B5B7",
"6. c #B9B6B7",
"7. c #BAB6B7",
"8. c #BFBAB2",
"9. c #C1BDB3",
"0. c #E0B6AE",
"q. c #E0B7AE",
"w. c #E2BDB0",
"e. c #E2DB87",
"r. c #E3DC86",
"t. c #E7E086",
"y. c #E8E186",
"u. c #E8E286",
"i. c #E9E286",
"p. c #C7C4B5",
"a. c #C8C4B6",
"s. c #C8C5B6",
"d. c #C9C5B6",
"f. c #CAC7B6",
"g. c #CBC7B7",
"h. c #CBC7BE",
"j. c #D1CEB9",
"k. c #D2CFB9",
"l. c #D1CEBB",
"z. c #D6CEB8",
"x. c #D3D0BA",
"c. c #D3D1BA",
"v. c #D4D2BA",
"b. c #D5D2BA",
"n. c #D6D3BE",
"m. c #D8D5BB",
"M. c #D9D6BC",
"N. c #DDDABD",
"B. c #E4C3B3",
"V. c #E2C5B3",
"C. c #E3CEB7",
"Z. c #E9D3B9",
"A. c #EAD3B9",
"S. c #E9D5BA",
"D. c #EAD5BA",
"F. c #E1DFBF",
"G. c #E3DEBE",
"H. c #ECDBBC",
"J. c #E2E0BE",
"K. c #E2E0BF",
"L. c #E3E1BF",
"P. c #E4E1BF",
"I. c #E4E2BF",
"U. c #EEE3BF",
"Y. c #C7BFD0",
"T. c #C9C2D2",
"R. c #CBC3D3",
"E. c #CEC7D4",
"W. c #CEC7D5",
"Q. c #CFC7D5",
"!. c #CFC8D5",
"~. c #D4CED7",
"^. c #D3CCD8",
"/. c #D7D0DA",
"(. c #D8D2D9",
"). c #D8D1DB",
"_. c #DDD6DC",
"`. c #DDD6DD",
"'. c #DED7DC",
"]. c #DDD6DE",
"[. c #DDD7DE",
"{. c #DED7DE",
"}. c #E0CDC3",
"|. c #E1CFC3",
" X c #E2D7C2",
".X c #E4DFC2",
"XX c #EFD9C7",
"oX c #EFDAC7",
"OX c #EFDCC7",
"+X c #E2DECC",
"@X c #E3E1C0",
"#X c #E3E2C1",
"$X c #E4E2C0",
"%X c #E5E3C0",
"&X c #E4E3C1",
"*X c #E4E3C2",
"=X c #E9E7C1",
"-X c #E9E8C1",
";X c #EAE8C2",
":X c #EFE8C1",
">X c #EDEBC3",
",X c #EFEEC4",
"<X c #E8E5CA",
"1X c #EAE8CA",
"2X c #EDEACC",
"3X c #EDEBCC",
"4X c #F0E2C6",
"5X c #F0E4C6",
"6X c #F1E6C6",
"7X c #F0E8C1",
"8X c #F1E9C1",
"9X c #F1EAC2",
"0X c #F2EDC3",
"qX c #F1EAC6",
"wX c #F0EFC4",
"eX c #F1EFC4",
"rX c #F3EEC4",
"tX c #F2EFC5",
"yX c #F3EFC5",
"uX c #F1F0C4",
"iX c #F2F0C4",
"pX c #F2F1C4",
"aX c #F2F1C5",
"sX c #F3F1C5",
"dX c #F3F2C5",
"fX c #F3F3C5",
"gX c #F4F3C5",
"hX c #F4F3C6",
"jX c #F5F4C5",
"kX c #F4F4C6",
"lX c #F5F4C6",
"zX c #F5F5C6",
"xX c #F6F5C6",
"cX c #F7F6C6",
"vX c #F7F6C7",
"bX c #E9E5D0",
"nX c None",
/* pixels */
"nXnXnXnXnXnXnXnXnXnXnXnXnXnXnXnXnXnXnXnXnXnXnXnXnXnXnXnXnXnXnXnXnXnXnXnXnXnXnXnXnXnXnXnXnXnXnXnXnXnX",
"nXnXnXnXnXnXnXnXnXnXnXnXnXnXnXnXnXnXnXnXnXnXnXnXnXnXnXnXnXnXnXnXnXnXnXnXnXnXnXnXnXnXnXnXnXnXnXnXnXnX",
"nXnXnXnXnXnXnXnXnXnXnXnXnXnXnXnXnXnXnXnXnXnXnXnXnXnXnXnXnXnXnXnXnXnXnXnXnXnXnXnXnXnXnXnXnXnXnXnXnXnX",
"nXnXnXnXnXnXnXnXnXnXnXnXnXnXnXnXnXnXnXnXnXnXnXnXnXnXnXnXnXnXnXnXnXnXnXnXnXnXnXnXnXnXnXnXnXnXnXnXnXnX",
"nXnXnXnXnXnXnXnXnXnXnXnXnXnX= = = = = = = = = = nXnXnXnXnXnXnXnXnXnXnXnXnXnXnXnXnXnXnXnXnXnXnXnXnXnX",
"nXnXnXnXnXnXnXnXnXnXnXnXnXnX- - - - - - - - - - nXnXnXnXnXnXnXnXnXnXnXnXnXnXnXnXnXnXnXnXnXnXnXnXnXnX",
"nXnXnXnXnXnXnXnXnXnXnX= + s @.=.*.*.*.*.*.*.-.X.> & = = = = = = = nXnXnXnXnXnXnXnXnXnXnXnXnXnXnXnXnX",
"nXnXnXnXnXnXnXnXnXnXnX& o g %XxXlXlXlXlXlXlXvXa.: $ & & & & & & & & nXnXnXnXnXnXnXnXnXnXnXnXnXnXnXnX",
"nXnXnXnXnXnXnXnXnXnXnX3 1 v G.rX0X0X0X0XiXdXlXg.q 2 2 2 2 2 2 2 2 2 nXnXnXnXnXnXnXnXnXnXnXnXnXnXnXnX",
"nXnXnXnXnXnXnXnX= + Q k.c.z.V.B.B.B.B.B.H.dXgX;Xv.x.x.x.x.x.x.x.v.O.- = = nXnXnXnXnXnXnXnXnXnXnXnXnX",
"nXnXnXnXnXnXnX= = O ' aXxX9Xw.0.0.0.0.0.S.dXdXgXlXlXlXlXlXlXlXlXcX,.- = = nXnXnXnXnXnXnXnXnXnXnXnXnX",
"nXnXnXnXnXnXnX= = O ` eXfX:Xw.q.q.q.q.q.D.dXdXdXdXdXdXdXdXdXdXdXlX:.- = = nXnXnXnXnXnXnXnXnXnXnXnXnX",
"nXnXnXnXnXnXnX= = O ` eXgX7Xw.q.q.q.q.q.S.dXdXdXdXdXdXdXdXdXdXdXlX:.- = = nXnXnXnXnXnXnXnXnXnXnXnXnX",
"nXnXnXnXnXnXnX= = O ' pXzX8Xw.0.q.q.q.0.S.dXdXdXdXdXdXdXdXdXdXdXlX:.- = = nXnXnXnXnXnXnXnXnXnXnXnXnX",
"nXnXnXnXnXnXnXnX= + G +.+.>.C.A.Z.Z.Z.Z.U.dXdXdXdXdXdXdXdXdXdXdXlX:.- = = nXnXnXnXnXnXnXnXnXnXnXnXnX",
"nXnXnXnXnXnXnXnXnXnXnX* + h L.gXdXdXdXdXdXdXdXdXdXdXdXdXdXdXdXdXlX:.- = = nXnXnXnXnXnXnXnXnXnXnXnXnX",
"nXnXnXnXnXnXnXnXnXnXnX= + j L.gXdXdXdXdXdXdXdXdXdXdXdXdXdXdXdXdXlX:.- = = nXnXnXnXnXnXnXnXnXnXnXnXnX",
"nXnXnXnXnXnXnXnX= = = = + l L.gXdXdXdXdXdXdXdXdXdXdXdXdXdXdXdXdXlX:.- = = = = = nXnXnXnXnXnXnXnXnXnX",
"nXnXnXnXnXnXnX= = = = = + l L.gXdXdXdXdXdXdXdXdXdXdXdXhXlXlXgXdXlX;.* + % = = = nXnXnXnXnXnXnXnXnXnX",
"nXnXnXnXnXnXnXnX= = = = + l L.gXdXdXdXdXdXdXdXdXdXdXwXN.m.M.-XdXlX8.z l w ; = = nXnXnXnXnXnXnXnXnXnX",
"nXnXnXnXnXnXnXnXnXnXnX= + l L.gXdXdXdXdXdXdXdXdXdXgXI.b 5 0 9.lXdX>XP.%Xp.1 & = nXnXnXnXnXnXnXnXnXnX",
"nXnXnXnXnXnXnXnXnXnXnX= + l L.gXdXdXdXdXdXdXdXdXdXgXJ.e   = 3.zXdXdXgXxXv.3 & = nXnXnXnXnXnXnXnXnXnX",
"nXnXnXnXnXnXnXnXnXnX= = + l L.gXdXdXdXdXdXdXdXdXdXgX=Xo.] { j.kXdXdXdXlXc.3 & = nXnXnXnXnXnXnXnXnXnX",
"nXnXnXnXnXnXnX= = = = = + l L.gXdXdXdXdXdXdXdXdXdXdXdXuXuXuXaXdXdXdXdXlXc.3 & = nXnXnXnXnXnXnXnXnXnX",
"nXnXnXnXnXnXnX= = = = = + l L.gXdXdXdXdXdXsXsXsXsXsXsXdXdXdXdXdXdXdXdXlXc.3 & = nXnXnXnXnXnXnXnXnXnX",
"nXnXnXnXnXnXnXnXnXnX= = + l L.gXdXdXdXdXqX4X4X4X4X4X5XtXdXdXdXdXdXdXdXlXc.3 & = nXnXnXnXnXnXnXnXnXnX",
"nXnXnXnXnXnXnXnXnXnXnX= + l $XlXgXgXgXgX6XXXXXoXoXXXOXyXgXgXgXgXgXgXgXxXv.3 & = nXnXnXnXnXnXnXnXnXnX",
"nXnXnXnXnXnXnXnXnXnXnX= + g b.K.F.#X*X&X X}.}.}.}.}.|..X&X&X&X&X*X@XF.L.s.4 & = nXnXnXnXnXnXnXnXnXnX",
"nXnXnXnXnXnXnXnXnXnXnXnXnXnXp d k I ( / ~ U U U U U U ^ / / / / ( S f d a nXnXnXnXnXnXnXnXnXnXnXnXnX",
"nXnXnXnXnXnXnXnXnXnXnXnXnXnX. . # u N M B V V V V V V V V V V V V 8 @ X X nXnXnXnXnXnXnXnXnXnXnXnXnX",
"nXnXnXnXnXnXnXnXnXnXnXnXnXnXJ K L [ | | ! C C C C C C C C C C C C c D F F nXnXnXnXnXnXnXnXnXnXnXnXnX",
"nXnXnXnXnXnXnXnXnXnXnX= % i R.).(.<X,X,X<.V C C C C C C C C C C V E e.r.r.nXnXnXnXnXnXnXnXnXnXnXnXnX",
"nXnXnXnXnXnXnXnXnXnXnX= % i Q.].'.3XgXgX1.V C C C C C C C C C C B W y.i.u.nXnXnXnXnXnXnXnXnXnXnXnXnX",
"nXnXnXnXnXnXnXnXnXnXnX= % i W.]._.2XfXdXn.5.6.6.6.6.6.6.7.4.P 7 6 R t.y.y.nXnXnXnXnXnXnXnXnXnXnXnXnX",
"nXnXnXnXnXnXnXnXnXnXnX= % i !.].'.2XdXdXgXjXjXjXjXjXjXjXjXuX_ o # T t.y.y.nXnXnXnXnXnXnXnXnXnXnXnXnX",
"nXnXnXnXnXnXnXnXnXnXnX= % y Y.^.~.1XfXdXdXdXdXdXdXdXdXdXdXwX) O # Y t.y.y.nXnXnXnXnXnXnXnXnXnXnXnXnX",
"nXnXnXnXnXnXnXnXnXnXnXnXnXnXx n Z l.lXdXdXdXdXdXdXdXdXdXdXwX) O = 9 nXnXnXnXnXnXnXnXnXnXnXnXnXnXnXnX",
"nXnXnXnXnXnXnXnXnXnXnXnXnXnX+ + : s.lXdXdXdXdXdXdXdXdXdXdXwX) O = & nXnXnXnXnXnXnXnXnXnXnXnXnXnXnXnX",
"nXnXnXnXnXnXnXnXnXnXnXnXnXnX= & < d.lXdXdXdXdXdXdXdXdXdXdXwX) O = = nXnXnXnXnXnXnXnXnXnXnXnXnXnXnXnX",
"nXnXnXnXnXnXnXnXnXnXnXnXnXnX= & < d.lXdXdXdXdXdXdXdXdXdXdXwX) O = = nXnXnXnXnXnXnXnXnXnXnXnXnXnXnXnX",
"nXnXnXnXnXnXnXnXnXnXnXnXnXnX= & < f.cXjXgXdXdXdXdXdXdXjXlXpX_ O = = nXnXnXnXnXnXnXnXnXnXnXnXnXnXnXnX",
"nXnXnXnXnXnXnXnXnXnXnXnXnXnXnX& , } &.%.h.bXbXbXbXbX+X2.#.$.H + = nXnXnXnXnXnXnXnXnXnXnXnXnXnXnXnXnX",
"nXnXnXnXnXnXnXnXnXnXnXnXnXnXnXnXnX= = % ..[.`.`.`.{.E.t % = nXnXnXnXnXnXnXnXnXnXnXnXnXnXnXnXnXnXnXnX",
"nXnXnXnXnXnXnXnXnXnXnXnXnXnXnXnXnX= = %  .)./././.).T.r + = nXnXnXnXnXnXnXnXnXnXnXnXnXnXnXnXnXnXnXnX",
"nXnXnXnXnXnXnXnXnXnXnXnXnXnXnXnXnXnXnXnXm K K K K K A nXnXnXnXnXnXnXnXnXnXnXnXnXnXnXnXnXnXnXnXnXnXnX",
"nXnXnXnXnXnXnXnXnXnXnXnXnXnXnXnXnXnXnXnX+ + + + + + + nXnXnXnXnXnXnXnXnXnXnXnXnXnXnXnXnXnXnXnXnXnXnX",
"nXnXnXnXnXnXnXnXnXnXnXnXnXnXnXnXnXnXnXnXnX= = = = = = nXnXnXnXnXnXnXnXnXnXnXnXnXnXnXnXnXnXnXnXnXnXnX",
"nXnXnXnXnXnXnXnXnXnXnXnXnXnXnXnXnXnXnXnXnXnXnXnXnXnXnXnXnXnXnXnXnXnXnXnXnXnXnXnXnXnXnXnXnXnXnXnXnXnX",
"nXnXnXnXnXnXnXnXnXnXnXnXnXnXnXnXnXnXnXnXnXnXnXnXnXnXnXnXnXnXnXnXnXnXnXnXnXnXnXnXnXnXnXnXnXnXnXnXnXnX",
"nXnXnXnXnXnXnXnXnXnXnXnXnXnXnXnXnXnXnXnXnXnXnXnXnXnXnXnXnXnXnXnXnXnXnXnXnXnXnXnXnXnXnXnXnXnXnXnXnXnX"
};
