/* XPM */
static char *result[] = {
/* columns rows colors chars-per-pixel */
"50 50 237 2 ",
"   c #285C13",
".  c #24630E",
"X  c #2B690E",
"o  c #2E6516",
"O  c #316710",
"+  c #346C12",
"@  c #326418",
"#  c #346F1A",
"$  c #3F7316",
"%  c #3E7518",
"&  c #457A0E",
"*  c #4C7C0F",
"=  c #467411",
"-  c #4F7D10",
";  c #507C18",
":  c #4E6E23",
">  c #5A7021",
",  c #8E4E0A",
"<  c #9E550D",
"1  c #A05504",
"2  c #857D1E",
"3  c #A46205",
"4  c #A76605",
"5  c #A1630A",
"6  c #B46B05",
"7  c #B37207",
"8  c #B87606",
"9  c #B57906",
"0  c #B97A06",
"q  c #B77E0D",
"w  c #BE7E0E",
"e  c #B46514",
"r  c #BD751B",
"t  c #C77B07",
"y  c #C0751C",
"u  c #C57A1A",
"i  c #6F8415",
"p  c #658A25",
"a  c #7C983D",
"s  c #AD8F0E",
"d  c #BF830D",
"f  c #BE8A0E",
"g  c #AF940D",
"h  c #B78011",
"j  c #A59C19",
"k  c #B09B16",
"l  c #B9A10D",
"z  c #899425",
"x  c #958D31",
"c  c #A2932C",
"v  c #AB9A38",
"b  c #C08607",
"n  c #CB8F07",
"m  c #C0820D",
"M  c #C4850D",
"N  c #C6860D",
"B  c #CB860E",
"V  c #C68B09",
"C  c #C6890A",
"Z  c #C28A0D",
"A  c #C48D0E",
"S  c #C58F0E",
"D  c #C98A08",
"F  c #C88A0B",
"G  c #C88D08",
"H  c #CB8F08",
"J  c #CB8D0B",
"K  c #CA9107",
"L  c #CB9206",
"P  c #CD9307",
"I  c #CF9706",
"U  c #CF9707",
"Y  c #CB9208",
"T  c #CD9108",
"R  c #CE9308",
"E  c #CF9608",
"W  c #CB930F",
"Q  c #CC940E",
"!  c #CE940F",
"~  c #CF9808",
"^  c #D19B07",
"/  c #D39D07",
"(  c #D89907",
")  c #DC9B04",
"_  c #DF9D04",
"`  c #DE9C06",
"'  c #DF9F07",
"]  c #D0900D",
"[  c #D39D08",
"{  c #D29E0B",
"}  c #D59B0E",
"|  c #DC980A",
" . c #D9990D",
".. c #D99D0D",
"X. c #C18512",
"o. c #C78613",
"O. c #C0811B",
"+. c #C8851D",
"@. c #CC9213",
"#. c #CB9114",
"$. c #CF9215",
"%. c #CD9116",
"&. c #C89914",
"*. c #D09314",
"=. c #D59F16",
"-. c #DA9C11",
";. c #D89A14",
":. c #D99E14",
">. c #DD9E17",
",. c #D09C18",
"<. c #D4981C",
"1. c #D5991C",
"2. c #D19E1E",
"3. c #DA9E1C",
"4. c #E09D02",
"5. c #E09E03",
"6. c #E19E03",
"7. c #E49A06",
"8. c #E09E04",
"9. c #E29F04",
"0. c #E19E06",
"q. c #E49D15",
"w. c #CEA80D",
"e. c #DDA107",
"r. c #D7A20D",
"t. c #DCA00F",
"y. c #DDA60C",
"u. c #DDA70F",
"i. c #DEAB08",
"p. c #DFAB08",
"a. c #DEAA0B",
"s. c #DFAD0A",
"d. c #DBA90F",
"f. c #DCA90D",
"g. c #DBAC0D",
"h. c #DDAC0F",
"j. c #CAAA13",
"k. c #D4AB17",
"l. c #D3A318",
"z. c #D5A719",
"x. c #DEA21A",
"c. c #D7A91E",
"v. c #DCAC1D",
"b. c #E2A104",
"n. c #E3A105",
"m. c #E4A106",
"M. c #E6A307",
"N. c #EEA807",
"B. c #E6A60E",
"V. c #E0AB0D",
"C. c #E2AB0C",
"Z. c #E1A90E",
"A. c #E9AE0D",
"S. c #EDAC0E",
"D. c #ECAD0F",
"F. c #EEAD0E",
"G. c #F1AB0C",
"H. c #F4AE0E",
"J. c #E3B108",
"K. c #E5B30B",
"L. c #E7B608",
"P. c #E3B30D",
"I. c #E5B10C",
"U. c #E5B30E",
"Y. c #E5B40C",
"T. c #E9B10A",
"R. c #E8B80C",
"E. c #E8B90D",
"W. c #ECBA0E",
"Q. c #FAB30F",
"!. c #F9B60E",
"~. c #E1AA12",
"^. c #E7A812",
"/. c #E2A814",
"(. c #EAAB11",
"). c #ECAB10",
"_. c #E8A914",
"`. c #E7A11D",
"'. c #E7A71F",
"]. c #EAAE1A",
"[. c #EEAC1B",
"{. c #F0AF16",
"}. c #F0AB19",
"|. c #F1AE1D",
" X c #E3B111",
".X c #EEB319",
"XX c #EDB31C",
"oX c #EEBC1E",
"OX c #F8B111",
"+X c #F6BE10",
"@X c #F1BB1B",
"#X c #F6BA1A",
"$X c #F6BA1F",
"%X c #D38E27",
"&X c #CF9621",
"*X c #CD9D21",
"=X c #CA9A28",
"-X c #D39629",
";X c #D99F2D",
":X c #D0A024",
">X c #D6A524",
",X c #D8A622",
"<X c #DAAD28",
"1X c #DCB12E",
"2X c #DEB23B",
"3X c #E1A626",
"4X c #E4AC24",
"5X c #E8A926",
"6X c #EDB122",
"7X c #EBB224",
"8X c #E0B329",
"9X c #E2B429",
"0X c #E2BA28",
"qX c #F2BA2F",
"wX c #F9BD2D",
"eX c #E7AE31",
"rX c #E4AD32",
"tX c #FBBD30",
"yX c #EAC122",
"uX c #ECC221",
"iX c #EDC425",
"pX c #EFCA2D",
"aX c #E9C032",
"sX c #FBC23C",
"dX c #BCB94B",
"fX c #D8BE48",
"gX c #F4CC44",
"hX c #F5D756",
"jX c #F6D851",
"kX c #F7DC5E",
"lX c #E3C26D",
"zX c #FBDA6F",
"xX c #F7DE7C",
"cX c #FAEBAB",
"vX c #FBEBAC",
"bX c #F1E5C3",
"nX c None",
/* pixels */
"nXnXnXnXnXnXnXnXnXnXnXnXnXnXnXnXnXnXnXnXnXnXnXnXnXnXnXnXnXnXnXnXnXnXnXnXnXnXnXnXnXnXnXnXnXnXnXnXnXnX",
"nXnXnXnXnXnXnXnXnXnXnXnXnXnXnXnXnXnXnXnXnXnXnXnXnXnXnXnXnXnXnXnXnXnXnXnXnXnXnXnXnXnXnXnXnXnXnXnXnXnX",
"nXnXnXnXnXnXnXnXnXnXnXnXnXnXnXnXnXnXnXnXnXnXnXnXnXnXnXnXnXnXnXnXnXnXnXnXnXnXnXnXnXnXnXnXnXnXnXnXnXnX",
"nXnXnXnXnXnXnXnXnXnXnXnXnXnXnXnXnXnXnXnXnXnXnXnXnXnXnXnXnXnXnXnXnXnXnXnXnXnXnXnXnXnXnXnXnXnXnXnXnXnX",
"nXnXnXnXnXnXnXnXnXnXnXnXnXnXnXnXnXnXnXnXnXnXnXnXnXnXnXnXnXnXnXnXnXnXnXnXnXnXnXnXnXnXnXnXnXnXnXnXnXnX",
"nXnXnXnXnXnXnXnXnXnXnXnXnXnXnXnXnXnXnXnXnXnXnXnXnXnXnXnXnXnXnXnXnXnXnXnXnXnXnXnXnXnXnXnXnXnXnXnXnXnX",
"nXnXnXnXnXnXnXnXnXnXnXnXnXnXnXnXnXnXnXnXnXnXnXnXnXnXnXnXnXnXnXnXnXnXnXnXnXnXnXnXnXnXnXnXnXnXnXnXnXnX",
"nXnXnXnXnXnXnXnXnXnXnXnXnXnXnXnXnXnXnXnXnXnXnXnXnXnXnXnXnXnXnXnXnXnXnXnXnXnXnXnXnXnXnXnXnXnXnXnXnXnX",
"nXnXnXnXnXnXnXnXnXnXnXnXnXnXnXnXnXnXnXnXnXnXnXnXnXnXnXnXnXnXnXnXnXnXnXnXnXnXnXnXnXnXnXnXnXnXnXnXnXnX",
"nXnXnXnXnXnXnXnXnXnXnXnXnXnXnXnXnXnXnXnXnXnXnXnXnXnXnXnXnXnXnXnXnXnXnXnXnXnXnXnXnXnXnXnXnXnXnXnXnXnX",
"nXnXnXnXnXnXnXnXnXnXnXnXnXnXnXnXnXnXnXnXnXnXnXnXnXnXnXnXnXnXnXnXnXnXnXnXnXnXnXnXnXnXnXnXnXnXnXnXnXnX",
"nXnXnXnXnXnXnXnXnXnXnXnXnXnXnXnXnXnXnXnXnXnXnXnX2X,X2.nXnXnXnXnXnXnXnXnXnXnXnXnXnXnXnXnXnXnXnXnXnXnX",
"nXnXnXnXnXnXnXnXnXnXnXnXnXnXnXnXnXnXnXnXnXnX<Xh.U.K.p.a.v.nXnXnXnXnXnXnXnXnXnXnXnXnXnXnXnXnXnXnXnXnX",
"nXnXnXnXnXnXnXnXnXnXnXnXnXnXnXnXnXnXnXnXnX9XT.I.P.s.Y.L.R.yXnXnXnXnXnXnXnXnXnXnXnXnXnXnXnXnXnXnXnXnX",
"nXnXnXnXnXnXnXnXnXnXnXnXnXnXnXnXnXnXnXnXnXZ.7.| r.{ d.E.hXjXpXnXnXnXnXnXnXnXnXnXnXnXnXnXnXnXnXnXnXnX",
"nXnXnXnXnXnXnXnXnXnXnXnXnXnXnXnXnXnXnXnX>Xe.t 6 C K ~ 0XvXxXiXnXnXnXnXnXnXnXnXnXnXnXnXnXnXnXnXnXnXnX",
"nXnXnXnXnXnXnXnXnXnXnXnXnXnXnXnXnXnXnXnX=.n 1 8 Y P U *XbXcXuXnXnXnXnXnXnXnXnXnXnXnXnXnXnXnXnXnXnXnX",
"nXnXnXnXnXnXnXnXnXnXnXnXnXnXnXnXnXnXnXnX..[ 7 H G R E N lXkXf.4XnXnXnXnXnXnXnXnXnXnXnXnXnXnXnXnXnXnX",
"nXnXnXnXnXnXnXnXnXnXnXnXnXnXnXnXnXnXnXnXo./ J.i.R T G m aXz.] qXnXnXnXnXnXnXnXnXnXnXnXnXnXnXnXnXnXnX",
"nXnXnXnXnXnXnXnXnXnXnXnXnXnXnXnXnXnXnXnXu 0 ^ I L b 5 w c.B q.nXnXnXnXnXnXnXnXnXnXnXnXnXnXnXnXnXnXnX",
"nXnXnXnXnXnXnXnXnXnXnXnXnXnXnXnXnXnXnXnX%X< 4 9 3 , O.S.8X'.`.nXnXnXnXnXnXnXnXnXnXnXnXnXnXnXnXnXnXnX",
"nXnXnXnXnXnXnXnXnXnXnXnXnXnXnXnXnXnXnXnX;X+.y e r -XOXG.,.].}.nXnXnXnXnXnXnXnXnXnXnXnXnXnXnXnXnXnXnX",
"nXnXnXnXnXnXnXnXnXnXnXnXnXnXnXnXnXnXnXnX5X@.oXXX#XwXQ.H.! _.|.nXnXnXnXnXnXnXnXnXnXnXnXnXnXnXnXnXnXnX",
"nXnXnXnXnXnXnXnXnXnXnXnXnXnXnXnXnXnXnXnXnX;.C.b.N.{.$X!.A x.tXnXnXnXnXnXnXnXnXnXnXnXnXnXnXnXnXnXnXnX",
"nXnXnXnXnXnXnXnXnXnXnXnXnXnXnXnXnXnXnXnXnX[. ._ 9.M..X+XS %.sXnXnXnXnXnXnXnXnXnXnXnXnXnXnXnXnXnXnXnX",
"nXnXnXnXnXnXnXnXnXnXnXnXnXnXnXnXnXnXnXnXnXeX>.0.4.5.n.W.f <.nXnXnXnXnXnXnXnXnXnXnXnXnXnXnXnXnXnXnXnX",
"nXnXnXnXnXnXnXnXnXnXnXnXnXnXnXnXnXnXnXnXnXnX3.B.8.6.m.y.h rXnXnXnXnXnXnXnXnXnXnXnXnXnXnXnXnXnXnXnXnX",
"nXnXnXnXnXnXnXnXnXnXnXnXnXnXnXnXnXnXnXnXnXnX$.-.' 9.` d 1.nXnXnXnXnXnXnXnXnXnXnXnXnXnXnXnXnXnXnXnXnX",
"nXnXnXnXnXnXnXnXnXnXnXnXnXnXnXnXnXnXnXnXnXnX&XF ( ) D #.@XnXnXnXnXnXnXnXnXnXnXnXnXnXnXnXnXnXnXnXnXnX",
"nXnXnXnXnXnXnXnXnXnXnXnXnXnXnXnXnXnXnXnXnXnXnXX.J V Z  Xl.nXnXnXnXnXnXnXnXnXnXnXnXnXnXnXnXnXnXnXnXnX",
"nXnXnXnXnXnXnXnXnXnXnXnXnXnXnXnXnXnXnXnXnXnXnX3XM q u.W =XnXnXnXnXnXnXnXnXnXnXnXnXnXnXnXnXnXnXnXnXnX",
"nXnXnXnXnXnXnXnXnXnXnXnXnXnXnXnXnXnXnXnXnXnXnXnX*.} Q :XnXnXnXnXnXnXnXnXnXnXnXnXnXnXnXnXnXnXnXnXnXnX",
"nXnXnXnXnXnXnXnXnXnXnXnXnXnXnXnXnXnXnXnXnXnXnXnX:.t.~.gXnXnXnXnXnXnXnXnXnXnXnXnXnXnXnXnXnXnXnXnXnXnX",
"nXnXnXnXnXnXnXnXnXnXnXnXnXnXnXnXnXnXnXnXnXnXnX7X).(.6XzXnXnXnXnXnXnXnXnXnXnXnXnXnXnXnXnXnXnXnXnXnXnX",
"nXnXnXnXnXnXnXnXnXnXnXnXnXnXnXnXnXnXnXnXnXnXnXj &.k.fXdXa nXnXnXnXnXnXnXnXnXnXnXnXnXnXnXnXnXnXnXnXnX",
"nXnXnXnXnXnXnXnXnXnXnXnXnXnXnXnXnXnXnXnXnXnXx = O + # @ 2 nXnXnXnXnXnXnXnXnXnXnXnXnXnXnXnXnXnXnXnXnX",
"nXnXnXnXnXnXnXnXnXnXnXnXnXnXnXnXnXnXnXnXnXnX/.V.l s g j.F.1XnXnXnXnXnXnXnXnXnXnXnXnXnXnXnXnXnXnXnXnX",
"nXnXnXnXnXnXnXnXnXnXnXnXnXnXnXnXnXnXnXnXnXnXi w.A.^.D.g.k : nXnXnXnXnXnXnXnXnXnXnXnXnXnXnXnXnXnXnXnX",
"nXnXnXnXnXnXnXnXnXnXnXnXnXnXnXnXnXnXnXnXnXnXo . & - * X   > nXnXnXnXnXnXnXnXnXnXnXnXnXnXnXnXnXnXnXnX",
"nXnXnXnXnXnXnXnXnXnXnXnXnXnXnXnXnXnXnXnXnXnXv z ; $ % p c nXnXnXnXnXnXnXnXnXnXnXnXnXnXnXnXnXnXnXnXnX",
"nXnXnXnXnXnXnXnXnXnXnXnXnXnXnXnXnXnXnXnXnXnXnXnXnXnXnXnXnXnXnXnXnXnXnXnXnXnXnXnXnXnXnXnXnXnXnXnXnXnX",
"nXnXnXnXnXnXnXnXnXnXnXnXnXnXnXnXnXnXnXnXnXnXnXnXnXnXnXnXnXnXnXnXnXnXnXnXnXnXnXnXnXnXnXnXnXnXnXnXnXnX",
"nXnXnXnXnXnXnXnXnXnXnXnXnXnXnXnXnXnXnXnXnXnXnXnXnXnXnXnXnXnXnXnXnXnXnXnXnXnXnXnXnXnXnXnXnXnXnXnXnXnX",
"nXnXnXnXnXnXnXnXnXnXnXnXnXnXnXnXnXnXnXnXnXnXnXnXnXnXnXnXnXnXnXnXnXnXnXnXnXnXnXnXnXnXnXnXnXnXnXnXnXnX",
"nXnXnXnXnXnXnXnXnXnXnXnXnXnXnXnXnXnXnXnXnXnXnXnXnXnXnXnXnXnXnXnXnXnXnXnXnXnXnXnXnXnXnXnXnXnXnXnXnXnX",
"nXnXnXnXnXnXnXnXnXnXnXnXnXnXnXnXnXnXnXnXnXnXnXnXnXnXnXnXnXnXnXnXnXnXnXnXnXnXnXnXnXnXnXnXnXnXnXnXnXnX",
"nXnXnXnXnXnXnXnXnXnXnXnXnXnXnXnXnXnXnXnXnXnXnXnXnXnXnXnXnXnXnXnXnXnXnXnXnXnXnXnXnXnXnXnXnXnXnXnXnXnX",
"nXnXnXnXnXnXnXnXnXnXnXnXnXnXnXnXnXnXnXnXnXnXnXnXnXnXnXnXnXnXnXnXnXnXnXnXnXnXnXnXnXnXnXnXnXnXnXnXnXnX",
"nXnXnXnXnXnXnXnXnXnXnXnXnXnXnXnXnXnXnXnXnXnXnXnXnXnXnXnXnXnXnXnXnXnXnXnXnXnXnXnXnXnXnXnXnXnXnXnXnXnX",
"nXnXnXnXnXnXnXnXnXnXnXnXnXnXnXnXnXnXnXnXnXnXnXnXnXnXnXnXnXnXnXnXnXnXnXnXnXnXnXnXnXnXnXnXnXnXnXnXnXnX"
};
