/* XPM */
static char *result[] = {
/* columns rows colors chars-per-pixel */
"50 50 113 2 ",
"   c #574D8D",
".  c #594F8E",
"X  c #5C528F",
"o  c #5C5290",
"O  c #615791",
"+  c #645B93",
"@  c #685F94",
"#  c #6F6796",
"$  c #68609D",
"%  c #736A97",
"&  c #70679C",
"*  c #746A9B",
"=  c #786C9A",
"-  c #7C749B",
";  c #6D66A0",
":  c #736DA6",
">  c #786EA1",
",  c #7772A7",
"<  c #7C74A4",
"1  c #857E9E",
"2  c #857EA4",
"3  c #857DA9",
"4  c #87809E",
"5  c #89829F",
"6  c #9E849E",
"7  c #8C85A1",
"8  c #8F88A1",
"9  c #8B85AB",
"0  c #8E89AC",
"q  c #928CA3",
"w  c #9F8FA9",
"e  c #9C95A6",
"r  c #9A94AD",
"t  c #9D98AF",
"y  c #968EB3",
"u  c #9D94B7",
"i  c #9E99B1",
"p  c #A497A6",
"a  c #A499A6",
"s  c #A595AB",
"d  c #A39DAA",
"f  c #B193A3",
"g  c #A19DB1",
"h  c #A7A2AA",
"j  c #A8A3AA",
"k  c #AFAAAD",
"l  c #B3AEAF",
"z  c #B9ACAD",
"x  c #B6B2AF",
"c  c #A7A0B6",
"v  c #A9A5B0",
"b  c #A8A0BD",
"n  c #B5A4B1",
"m  c #BBACB3",
"M  c #B2ACBA",
"N  c #BAB6B1",
"B  c #BDB9B2",
"V  c #BCB9B8",
"C  c #C4BD90",
"Z  c #C2BEB3",
"A  c #E0B7AE",
"S  c #E1B9AF",
"D  c #E2BDB0",
"F  c #CCC58D",
"G  c #DED78B",
"H  c #D6D090",
"J  c #E8E186",
"K  c #E9E38C",
"L  c #EAE493",
"P  c #C5C2B5",
"I  c #CFCCB8",
"U  c #D1CEB9",
"Y  c #D6D3BB",
"T  c #D8D5BC",
"R  c #DEDBBD",
"E  c #E1DFBF",
"W  c #ECDDBD",
"Q  c #EEEAA5",
"!  c #EEEBAA",
"~  c #E5E2B4",
"^  c #E2E1BF",
"/  c #EEE1BE",
"(  c #EEECBC",
")  c #F0EDB1",
"_  c #F2F0BB",
"`  c #ADA6C1",
"'  c #B2AAC3",
"]  c #D7D3C4",
"[  c #DCD7C9",
"{  c #C9C2D2",
"}  c #D1C9D6",
"|  c #D4CDD9",
" . c #DEDAD1",
".. c #DCD5DD",
"X. c #DFD8DF",
"o. c #E2CEC2",
"O. c #E6DEC2",
"+. c #EFD9C7",
"@. c #F1DBC8",
"#. c #E3DED6",
"$. c #E0DAD9",
"%. c #E5E2C1",
"&. c #E9E7C2",
"*. c #EEEDC4",
"=. c #E9E6CB",
"-. c #EDEACC",
";. c #F0E2C6",
":. c #F1EEC6",
">. c #F3F2C5",
",. c #E5E1D5",
"<. c #EBE8D0",
"1. c #E0D9E0",
"2. c None",
/* pixels */
"2.2.2.2.2.2.2.2.2.2.2.2.2.2.2.2.2.2.2.2.2.2.2.2.2.2.2.2.2.2.2.2.2.2.2.2.2.2.2.2.2.2.2.2.2.2.2.2.2.2.",
"2.2.2.2.2.2.2.2.2.2.2.2.2.2.2.2.2.2.2.2.2.2.2.2.2.2.2.2.2.2.2.2.2.2.2.2.2.2.2.2.2.2.2.2.2.2.2.2.2.2.",
"2.2.2.2.2.2.2.2.2.2.2.2.2.2.2.2.2.2.2.2.2.2.2.2.2.2.2.2.2.2.2.2.2.2.2.2.2.2.2.2.2.2.2.2.2.2.2.2.2.2.",
"2.2.2.2.2.2.2.2.2.2.. X . . . . . . 2.2.2.2.2.2.2.2.2.2.2.2.. . X   X . . . 2.2.2.2.2.2.2.2.2.2.2.2.",
"2.2.2.2.2.2.2.2.2.    .     . . .   2.2.2.2.2.2.2.2.2.2.2.2.  . X .         X 2.2.2.2.2.2.2.2.2.2.2.",
"2.2.2.2.2.2.2.2.2.# % % % % % % % % 2.2.2.2.2.2.2.2.2.2.2.2.% % % % % % % % % 2.2.2.2.2.2.2.2.2.2.2.",
"2.2.2.2.2.2.2.. . a ^ ^ E ^ ^ ^ ^ R 1   . 2.2.2.2.2.2.. . % Y ^ %.^ ^ %.^ ^ z X . X 2.2.2.2.2.2.2.2.",
"2.2.2.2.2.2.2.. . k >.>.>.>.>.>.>.*.4 . . 2.2.2.2.2.2.. . % %.>.>.>.>.>.>.>.Z X . . 2.2.2.2.2.2.2.2.",
"2.2.2.2.2.2.2.. . a / / O./ / :.>.*.1   . 2.2.2.2.2.2..   % ^ >.>./ / / W / z X . . 2.2.2.2.2.2.2.2.",
"2.2.2.2.2.2.2.. . 6 D A A A S W >.*.4   .   X X . . . .   % ^ >.;.D S S S S f . . . 2.2.2.2.2.2.2.2.",
"2.2.2.2.2.2.2.. . 6 A A A A A W >.*.4   .   . . . . . .   % ^ >./ D A A S S f X . . 2.2.2.2.2.2.2.2.",
"2.2.2.2.2.2.2.X . 6 A A A A D W >.*.M y y y y y y y y y y c *.>./ S A A S S f X . X 2.2.2.2.2.2.2.2.",
"2.2.2.2.2.2.2.. . 6 A A A A A W >.>.#.....................$.>.>.( S S A A S f X . . 2.2.2.2.2.2.2.2.",
"2.2.2.2.2.2.2..   6 D A A A A W >.>.#.....................$.:.>./ S S S A S f X . . 2.2.2.2.2.2.2.2.",
"2.2.2.2.2.2.2.. . p W W W W W :.>.:.#.....................X.:.>.:.W W / W / z X . . 2.2.2.2.2.2.2.2.",
"2.2.2.2.2.2.2.. . h >.>.>.>.>.>.>.*.#.....................X.:.>.>.>.>.>.>.>.B X . . 2.2.2.2.2.2.2.2.",
"2.2.2.2.2.2.2.. . h >.>.>.>.>.>.>.:.$.X...................$.>.>.>.>.>.>.>.>.B X X . 2.2.2.2.2.2.2.2.",
"2.2.2.2.2.2.2.. . h >.>.>.>.>.>.>.>.,.......................>.>.>.>.>._ >.>.B o X . 2.2.2.2.2.2.2.2.",
"2.2.2.2.2.2.2.. . h >.>.>.>.>.>.>.>.#.......................:.>.>.>.>.>.>.>.P o . X 2.2.2.2.2.2.2.2.",
"2.2.2.2.2.2.. . . h >.>.>.>.>.>.>.>.,...$.$.$.X.$.$.$.$.X.,.:.>.>.>.>.>.>.>.B o . X 2.2.2.2.2.2.2.2.",
"2.2.2.2.. . . X . h >.>.>.>.>.>.>.>.*.:.>.*.*.:.:.:.:.*.>.:.>.>.>.>.>.>.>.>.B o . .   X 2.2.2.2.2.2.",
"2.2.2.2.. . . .   h >.>.>.>.>.>.>.>.>.>.>.:.>.>.>.>.>.>.>.>.>.>.>.>.>.>.>.>.B X . . X   . 2.2.2.2.2.",
"2.2.2.2.. . . . . h >.>.T Z Z E >.>.>.>.>.>.>.>.>.>.>.>.>.>.>.>.^ P P U >.>.B X . . . X 2.2.2.2.2.2.",
"2.2.2.2.2.2.2.. . h >.>.e X O B >.>.>.>.>.>.>.>.>.>.>.>.>.>.>.>.I $ X 5 >.>.B X . . 2.2.2.2.2.2.2.2.",
"2.2.2.2.2.2.2.. . j >.:.p   . N >.>.>.*.>.>.>.>.>.>.>.>.>.>.>.>.I O   1 ( >.B X . . 2.2.2.2.2.2.2.2.",
"2.2.2.2.2.2.. . . j >.>.Z a d Y >.>.>.>.>.>.>.>.>.>.>.>.>.>.>.>.E h a N >.>.B X . . 2.2.2.2.2.2.2.2.",
"2.2.2.2.. . . . . d >.>.>.>.>.>.>.>.>.>.>.>.>.>.>.>.>.>.>.>.>.>.>.>.>.>.>.>.B X . . X . . 2.2.2.2.2.",
"2.2.2.2.. . X . . j >.>.>.>.>.>.>.>.>.>.>.>.>.>.:.>.>.>.>.>.>.>.>.>.>.>.>.>.B X X . . . . 2.2.2.2.2.",
"2.2.2.2.2.2.. . . s ;.@.;.@.=.:.>.>.>.>.>.>.>.>.>.>.>.>.>.>.>.>.:.=.;.@.;.;.m X . . 2.2.2.2.2.2.2.2.",
"2.2.2.2.2.2.2.. . s @.@.+.+.+.:.>.>.>.>.>.>.>.>.>.>.>.>.>.>.>.>.:.+.+.+.@.@.m X . . 2.2.2.2.2.2.2.2.",
"2.2.2.2.2.2.2.. . w o.o.T o.o.O.&.*.^ ^ &.&.&.&.&.&.&.&.&.&.^ &./ o.o.o.o.o.n X . . 2.2.2.2.2.2.2.2.",
"2.2.2.2.2.2.2.. . @ = = = = * 7 0 0 0 0 0 0 0 0 0 0 0 0 0 0 0 0 9 = = = = = * 2.2.2.2.2.2.2.2.2.2.2.",
"2.2.2.2.2.2.2.. .             $ : : : : : : ; : : : : : : : : : ; o     .     2.2.2.2.2.2.2.2.2.2.2.",
"2.2.2.2.2.2.2.. o + & & * % * > : : : : : 3 7 7 9 9 9 : : : : : ; o . . . . . 2.2.2.2.2.2.2.2.2.2.2.",
"2.2.2.2.2.2.2..   y } } [ ^ ^ t : : , : , F G G ~ =.] 3 : : : , ; . . . . . X 2.2.2.2.2.2.2.2.2.2.2.",
"2.2.2.2.2.2.2.X . u X.X.<.>.>.t ; : : : < F J K _ >.^ 3 : : : : ; .   .   . . 2.2.2.2.2.2.2.2.2.2.2.",
"2.2.2.2.2.2.2.. . 0 ' ' ] >.>.V r i i i t H J K ! ) ~ j t i i i r 7 7 2 3 3 < 2.2.2.2.2.2.2.2.2.2.2.",
"2.2.2.2.2.2.2.2.2.o o o x >.>.>.>.:.*.:.( L J J J J L ( *.*.*.*.*.*.*.=.| ..` o X X 2.2.2.2.2.2.2.2.",
"2.2.2.2.2.2.2.2.2..   X x >.>.>.>.>.>.>.>.L J J J J K _ >.>.>.>.>.>.>.-.$.X.` o . . 2.2.2.2.2.2.2.2.",
"2.2.2.2.2.2.2.2.2.2.2.X q h j T >.>.>.>.>.! Q ! ! Q ! *.>.&.k h N *.>.-.....` o X . 2.2.2.2.2.2.2.2.",
"2.2.2.2.2.2.2.2.2.2.2.2.. . X N >.>.>.>.>.>.>.>.>.>.>.:.>.T +   - &.>.-.....` o . . 2.2.2.2.2.2.2.2.",
"2.2.2.2.2.2.2.2.2.2.2.2.. . o N >.:.>.>.>.:.*.:.:.*.*.*.>.Y @   - %.:.=.....` o . . 2.2.2.2.2.2.2.2.",
"2.2.2.2.2.2.2.2.2.2.2.2.. . X M ,.,.#.#.X.h 7 7 8 8 8 8 8 1 O . + 5 8 7 3 3 * o . . 2.2.2.2.2.2.2.2.",
"2.2.2.2.2.2.2.2.2.2.2.2.. . . ` ........| =           .     . . . X     .   . . . . 2.2.2.2.2.2.2.2.",
"2.2.2.2.2.2.2.2.2.2.2.2.. . o g } } } } { >   . . . . . . . . . . . . . . . X . . X 2.2.2.2.2.2.2.2.",
"2.2.2.2.2.2.2.2.2.2.2.2.2.2.2.: * : * * * 2.2.2.2.2.2.2.2.2.2.2.2.2.2.2.2.2.2.2.2.2.2.2.2.2.2.2.2.2.",
"2.2.2.2.2.2.2.2.2.2.2.2.2.2.2..           2.2.2.2.2.2.2.2.2.2.2.2.2.2.2.2.2.2.2.2.2.2.2.2.2.2.2.2.2.",
"2.2.2.2.2.2.2.2.2.2.2.2.2.2.2.2.. . o . . 2.2.2.2.2.2.2.2.2.2.2.2.2.2.2.2.2.2.2.2.2.2.2.2.2.2.2.2.2.",
"2.2.2.2.2.2.2.2.2.2.2.2.2.2.2.2.2.2.2.2.2.2.2.2.2.2.2.2.2.2.2.2.2.2.2.2.2.2.2.2.2.2.2.2.2.2.2.2.2.2.",
"2.2.2.2.2.2.2.2.2.2.2.2.2.2.2.2.2.2.2.2.2.2.2.2.2.2.2.2.2.2.2.2.2.2.2.2.2.2.2.2.2.2.2.2.2.2.2.2.2.2."
};
