/* XPM */
static char *result[] = {
/* columns rows colors chars-per-pixel */
"50 50 246 2 ",
"   c #554A8C",
".  c #554B8C",
"X  c #554A8D",
"o  c #564C8D",
"O  c #574C8D",
"+  c #574D8D",
"@  c #584E8D",
"#  c #584E8E",
"$  c #594E8E",
"%  c #594F8E",
"&  c #59508F",
"*  c #5B518E",
"=  c #5A508F",
"-  c #5B518F",
";  c #5B528F",
":  c #5C528E",
">  c #5C538F",
",  c #5E548E",
"<  c #5E558E",
"1  c #5B5190",
"2  c #5C5391",
"3  c #5E5490",
"4  c #5F5590",
"5  c #5E5593",
"6  c #605690",
"7  c #605790",
"8  c #605791",
"9  c #615791",
"0  c #625891",
"q  c #625991",
"w  c #615893",
"e  c #625992",
"r  c #625893",
"t  c #635993",
"y  c #645A92",
"u  c #675E93",
"i  c #625A97",
"p  c #645C98",
"a  c #665D99",
"s  c #696094",
"d  c #6C6395",
"f  c #6F6696",
"g  c #6A6299",
"h  c #6D639A",
"j  c #6D649A",
"k  c #6E659B",
"l  c #69619C",
"z  c #6B639E",
"x  c #716897",
"c  c #726997",
"v  c #7A729A",
"b  c #7C749A",
"n  c #6D66A0",
"m  c #6F68A1",
"M  c #746DA2",
"N  c #746DA3",
"B  c #726BA4",
"V  c #736DA5",
"C  c #736DA6",
"Z  c #736EA6",
"A  c #756FA5",
"S  c #746EA6",
"D  c #746EA7",
"F  c #7670A6",
"G  c #7B72A2",
"H  c #7B72A3",
"J  c #7A74A7",
"K  c #7C74A6",
"L  c #7A73A8",
"P  c #7A74A8",
"I  c #7B74A8",
"U  c #7A75A8",
"Y  c #7B75A8",
"T  c #847D9D",
"R  c #857D9E",
"E  c #857E9E",
"W  c #8279A7",
"Q  c #837AA7",
"!  c #988F8A",
"~  c #87809E",
"^  c #88809E",
"/  c #88819F",
"(  c #89829F",
")  c #8A839F",
"_  c #958D94",
"`  c #A79F8A",
"'  c #A8A08A",
"]  c #B5AD89",
"[  c #B6AE8B",
"{  c #BCB488",
"}  c #BEB688",
"|  c #BDB691",
" . c #BFB892",
".. c #8A82A0",
"X. c #8C85A0",
"o. c #8D86A1",
"O. c #8E87A1",
"+. c #8F88A1",
"@. c #9089A2",
"#. c #918AA2",
"$. c #918BA2",
"%. c #928BA2",
"&. c #928CA3",
"*. c #958EA3",
"=. c #958FA3",
"-. c #958FA4",
";. c #968FA4",
":. c #968FAB",
">. c #9790A4",
",. c #9791A4",
"<. c #9993A5",
"1. c #9E97A6",
"2. c #A59FA9",
"3. c #A19CAD",
"4. c #A8A2AA",
"5. c #A8A3AA",
"6. c #B6B1AF",
"7. c #ADA7B1",
"8. c #B9B6B7",
"9. c #BEBAB2",
"0. c #BFBBB2",
"q. c #B9B5B8",
"w. c #BBB8B8",
"e. c #C0BCB3",
"r. c #C2BEB3",
"t. c #C3BFB4",
"y. c #CDBCBE",
"u. c #CEBDBE",
"i. c #E0B5AD",
"p. c #E0B6AE",
"a. c #E0B7AE",
"s. c #E1B9AF",
"d. c #E1BAAF",
"f. c #E8E186",
"g. c #EAE386",
"h. c #EBE485",
"j. c #ECE586",
"k. c #C3C0B4",
"l. c #C4C0B4",
"z. c #C5C1B4",
"x. c #C9C6B6",
"c. c #CAC7B6",
"v. c #CAC7B7",
"b. c #CBC8B7",
"n. c #CCC8B7",
"m. c #CDC9B7",
"M. c #CDCAB7",
"N. c #CECAB7",
"B. c #CEC1BE",
"V. c #CDCAB9",
"C. c #CFCCB8",
"Z. c #CFCDBB",
"A. c #D7C8B6",
"S. c #D0CDB8",
"D. c #D0CDB9",
"F. c #D1CEB9",
"G. c #D0C9BD",
"H. c #D1CEBD",
"J. c #D1CFBD",
"K. c #D3D0BA",
"L. c #D8D6BC",
"P. c #D9D6BC",
"I. c #DBD8BC",
"U. c #DEDCBD",
"Y. c #E4C2B2",
"T. c #E4C2B3",
"R. c #E4C4B3",
"E. c #E5C5B4",
"W. c #E5C6B4",
"Q. c #E7CEB7",
"!. c #EBD9BB",
"~. c #EBDABC",
"^. c #ECDABC",
"/. c #E2E0BF",
"(. c #E3E1BF",
"). c #EDE0BE",
"_. c #EDE1BE",
"`. c #AAA4C3",
"'. c #ADA6C4",
"]. c #B0ABC0",
"[. c #B2ABC3",
"{. c #B3ABC5",
"}. c #B5ADC5",
"|. c #BEB6CB",
" X c #C5BFC3",
".X c #C7C1C5",
"XX c #C8C0D1",
"oX c #CDC6D4",
"OX c #CEC7D5",
"+X c #D6CFDA",
"@X c #D8D1DA",
"#X c #D9D2DB",
"$X c #DAD3DB",
"%X c #DCD5DE",
"&X c #DDD6DE",
"*X c #DED7DF",
"=X c #DFD8DF",
"-X c #EFDFC6",
";X c #F0DBC7",
":X c #F0DAC8",
">X c #E2DDD1",
",X c #E3DED6",
"<X c #E4DFD6",
"1X c #E4DFD7",
"2X c #E7E5C1",
"3X c #E8E7C1",
"4X c #EEE4C0",
"5X c #EAE8C2",
"6X c #EBEAC2",
"7X c #ECEBC3",
"8X c #EDECC3",
"9X c #EEEDC3",
"0X c #EFEEC4",
"qX c #F1E1C7",
"wX c #F0E4C6",
"eX c #F1EBC2",
"rX c #F1EDC3",
"tX c #F2EEC3",
"yX c #F2ECC5",
"uX c #F0EFC4",
"iX c #F0EFC5",
"pX c #F2EEC4",
"aX c #F2EFC4",
"sX c #F3ECC6",
"dX c #F1F0C4",
"fX c #F3F0C4",
"gX c #F2F1C4",
"hX c #F3F0C5",
"jX c #F2F1C5",
"kX c #F3F1C5",
"lX c #F3F2C5",
"zX c #F3F3C5",
"xX c #F2F1C6",
"cX c #F3F2C6",
"vX c #F4F3C5",
"bX c #F5F3C6",
"nX c #F5F4C5",
"mX c #F4F4C6",
"MX c #F5F4C6",
"NX c #F5F5C6",
"BX c #F6F5C6",
"VX c #F7F6C6",
"CX c #F7F7C7",
"ZX c #E6E1D3",
"AX c #E7E3D4",
"SX c None",
/* pixels */
"SXSXSXSXSXSXSXSXSXSXSXSXSXSXSXSXSXSXSXSXSXSXSXSXSXSXSXSXSXSXSXSXSXSXSXSXSXSXSXSXSXSXSXSXSXSXSXSXSXSX",
"SXSXSXSXSXSXSXSXSXSXSXSXSXSXSXSXSXSXSXSXSXSXSXSXSXSXSXSXSXSXSXSXSXSXSXSXSXSXSXSXSXSXSXSXSXSXSXSXSXSX",
"SXSXSXSXSXSXSXSXSXSXSXSXSXSXSXSXSXSXSXSXSXSXSXSXSXSXSXSXSXSXSXSXSXSXSXSXSXSXSXSXSXSXSXSXSXSXSXSXSXSX",
"SXSXSXSXSXSXSXSXSXSXSXSXSXSXSXSXSXSXSXSXSXSXSXSXSXSXSXSXSXSXSXSXSXSXSXSXSXSXSXSXSXSXSXSXSXSXSXSXSXSX",
"SXSXSXSXSXSXSXSXSXSXSXSXSXSXSXSXSXSXSX% % % % % % % % SXSXSXSXSXSXSXSXSXSXSXSXSXSXSXSXSXSXSXSXSXSXSX",
"SXSXSXSXSXSXSXSXSXSXSXSXSXSXSXSXSXSX+ + + + + + + + + SXSXSXSXSXSXSXSXSXSXSXSXSXSXSXSXSXSXSXSXSXSXSX",
"SXSXSXSXSXSXSXSXSXSXSXSXSXSXSXSXSXSXx c c c c c c c c SXSXSXSXSXSXSXSXSXSXSXSXSXSXSXSXSXSXSXSXSXSXSX",
"SXSXSXSXSXSXSXSXSXSXSXSXSXSXSX% # 0 t.(././././././.U./ O % SXSXSXSXSXSXSXSXSXSXSXSXSXSXSXSXSXSXSXSX",
"SXSXSXSXSXSXSXSXSXSXSXSXSXSXSX+ o 8 M.VXmXmXmXmXvXMX0X) O % SXSXSXSXSXSXSXSXSXSXSXSXSXSXSXSXSXSXSXSX",
"SXSXSXSXSXSXSXSXSXSXSXSXSXSXSX&.<.1.A.^.!.!.!.~.eXvX9X) O % % SXSXSXSXSXSXSXSXSXSXSXSXSXSXSXSXSXSXSX",
"SXSXSXSXSXSXSXSXSXSXSXSX% # y C.vXrXW.a.a.a.a.d._.vX9X( o # # # # SXSXSXSXSXSXSXSXSXSXSXSXSXSXSXSXSX",
"SXSXSXSXSXSXSXSXSXSXSXSX% # y S.NXaXW.p.a.a.a.s.).vX9XO.> 4 4 4 4 SXSXSXSXSXSXSXSXSXSXSXSXSXSXSXSXSX",
"SXSXSXSXSXSXSXSXSXSXSXSX% # y S.MXpXW.p.a.a.a.s.).zXdXK.l.z.z.z.k.) + % SXSXSXSXSXSXSXSXSXSXSXSXSXSX",
"SXSXSXSXSXSXSXSXSXSXSXSX% # y S.MXpXE.i.p.p.p.s.).zXlXMXNXNXNXBXjX%.+ % SXSXSXSXSXSXSXSXSXSXSXSXSXSX",
"SXSXSXSXSXSXSXSXSXSXSXSX% # y S.MXaXQ.Y.T.T.T.R.4XzXlXlXlXlXlXlXuX$.+ % SXSXSXSXSXSXSXSXSXSXSXSXSXSX",
"SXSXSXSXSXSXSXSXSXSXSXSX% # y S.MXlXtXrXrXrXrXrXfXlXlXlXlXlXlXlXuX$.+ % SXSXSXSXSXSXSXSXSXSXSXSXSXSX",
"SXSXSXSXSXSXSXSXSXSXSXSX% # y S.MXlXlXlXlXlXlXlXlXlXlXlXlXlXlXlXuX$.+ % SXSXSXSXSXSXSXSXSXSXSXSXSXSX",
"SXSXSXSXSXSXSXSXSXSXSXSX% # y S.MXlXlXlXlXlXlXlXlXlXlXlXlXlXlXlXuX$.+ % SXSXSXSXSXSXSXSXSXSXSXSXSXSX",
"SXSXSXSXSXSXSXSXSXSXSXSX% # y S.MXlXlXlXlXlXlXlXlXlXlXlXlXlXlXlXuX$.+ % SXSXSXSXSXSXSXSXSXSXSXSXSXSX",
"SXSXSXSXSXSXSXSXSXSXSXSX% # y S.MXlXlXlXlXlXlXlXlXlXlXlXlXlXlXlXuX$.+ % SXSXSXSXSXSXSXSXSXSXSXSXSXSX",
"SXSXSXSXSXSXSXSXSX% % % % # y S.MXlXlXlXlXlXlXlXlXlXlXlXlXlXlXlXuX$.+ % % % % SXSXSXSXSXSXSXSXSXSXSX",
"SXSXSXSXSXSXSXSXSX% % % % # y S.MXlXlXlXlXlXlXlXlXlXlXvXMXMXvXlXuX@.  + # % % SXSXSXSXSXSXSXSXSXSXSX",
"SXSXSXSXSXSXSXSXSX% % % % # y S.MXlXlXlXlXlXlXlXlXlXjXI.C.F.2XvXdX4.v b u # % SXSXSXSXSXSXSXSXSXSXSX",
"SXSXSXSXSXSXSXSXSXSXSXSX% # y S.MXlXlXlXlXlXlXlXlXlX9X#.9 u r.MXlX7X3X2X#.+ % SXSXSXSXSXSXSXSXSXSXSX",
"SXSXSXSXSXSXSXSXSXSXSXSX% # y S.MXlXlXlXlXlXlXlXlXzX9X( X ; 9.NXlXzXvXjX=.+ % SXSXSXSXSXSXSXSXSXSXSX",
"SXSXSXSXSXSXSXSXSXSX% % % # y S.MXlXlXlXlXlXlXlXlXlXuX0.2.5.P.vXlXlXlXdX=.+ % SXSXSXSXSXSXSXSXSXSXSX",
"SXSXSXSXSXSXSXSXSX% % % % # y S.MXlXlXlXlXlXlXlXlXlXlXvXvXvXlXlXlXlXlXdX=.+ % SXSXSXSXSXSXSXSXSXSXSX",
"SXSXSXSXSXSXSXSXSX% % % % # y S.MXlXlXlXlXkXhXhXhXhXhXlXlXlXlXlXlXlXlXdX=.+ % SXSXSXSXSXSXSXSXSXSXSX",
"SXSXSXSXSXSXSXSXSXSXSXSX% # y S.MXlXlXlXkXwX-X-X-X-X-XyXlXlXlXlXlXlXlXdX*.+ % SXSXSXSXSXSXSXSXSXSXSX",
"SXSXSXSXSXSXSXSXSXSXSXSX% # y F.CXMXMXnXbXqX:X:X:X:X;XsXnXMXMXMXMXMXBXlX-.+ % SXSXSXSXSXSXSXSXSXSXSX",
"SXSXSXSXSXSXSXSXSXSXSXSX% # y 6.b.v.Z.J.H.B.y.y.y.y.u.G.J.J.J.J.J.V.c.x.O.+ % SXSXSXSXSXSXSXSXSXSXSX",
"SXSXSXSXSXSXSXSXSXSXSXSXSXSXSX9 9 e M Y U P L L L L L I Y Y Y Y J g 7 9 SXSXSXSXSXSXSXSXSXSXSXSXSXSX",
"SXSXSXSXSXSXSXSXSXSXSXSXSXSXSX# # = n S C C C C S S S Z C C C S V i @ # SXSXSXSXSXSXSXSXSXSXSXSXSXSX",
"SXSXSXSXSXSXSXSXSXSXSXSXSXSXSX% % 4 3.w.8.8.8.q.].'.`.K p a m S A _ ' ` SXSXSXSXSXSXSXSXSXSXSXSXSXSX",
"SXSXSXSXSXSXSXSXSXSXSXSXSXSXSX% # q N.VXnXnXnXcX<X&X#XQ + % z D F  .h.g.SXSXSXSXSXSXSXSXSXSXSXSXSXSX",
"SXSXSXSXSXSXSXSXSXSXSXSXSXSXSX% # 0 m.MXlXlXlXxX,X%X@XQ + & l B N | g.f.SXSXSXSXSXSXSXSXSXSXSXSXSXSX",
"SXSXSXSXSXSXSXSXSXSXSXSXSXSXSX% # 0 m.MXlXlXlXxX,X%X@XQ + % 2 5 w [ g.f.SXSXSXSXSXSXSXSXSXSXSXSXSXSX",
"SXSXSXSXSXSXSXSXSXSXSXSXSXSXSXO o 6 n.MXlXlXlXxX1X*X$XW   O # # * ] j.g.SXSXSXSXSXSXSXSXSXSXSXSXSXSX",
"SXSXSXSXSXSXSXSXSXSXSXSXSXSXSXR / +.L.MXlXlXlXiX.X{.[.:.^ ~ s # * ! } { SXSXSXSXSXSXSXSXSXSXSXSXSXSX",
"SXSXSXSXSXSXSXSXSXSXSXSX% # y m.0X9XgXlXlXlXvX8X..1 t e.uX5XX.+ % : < , SXSXSXSXSXSXSXSXSXSXSXSXSXSX",
"SXSXSXSXSXSXSXSXSXSXSXSX% # y D.MXlXlXlXlXjXjX6XE o 3 r.MX9Xo.+ % % $ % SXSXSXSXSXSXSXSXSXSXSXSXSXSX",
"SXSXSXSXSXSXSXSXSXSXSXSX% # t  XAXZXZXZX>X7.,.;.d # - T <.>.f # % % % % SXSXSXSXSXSXSXSXSXSXSXSXSXSX",
"SXSXSXSXSXSXSXSXSXSXSXSX% # r |.=X&X&X&X+XH . + # % % # + + # % % % % % SXSXSXSXSXSXSXSXSXSXSXSXSXSX",
"SXSXSXSXSXSXSXSXSXSXSXSX% # r }.OXoXoXoXXXG + % % % % % % % % % % % % % SXSXSXSXSXSXSXSXSXSXSXSXSXSX",
"SXSXSXSXSXSXSXSXSXSXSXSXSXSXSXh k k k k j SXSXSXSXSXSX% % % % % % SXSXSXSXSXSXSXSXSXSXSXSXSXSXSXSXSX",
"SXSXSXSXSXSXSXSXSXSXSXSXSXSXSX@ @ @ @ @ @ SXSXSXSXSXSX% % % % % % SXSXSXSXSXSXSXSXSXSXSXSXSXSXSXSXSX",
"SXSXSXSXSXSXSXSXSXSXSXSXSXSXSXSX% % % % % SXSXSXSXSXSXSX% % % % % SXSXSXSXSXSXSXSXSXSXSXSXSXSXSXSXSX",
"SXSXSXSXSXSXSXSXSXSXSXSXSXSXSXSXSXSXSXSXSXSXSXSXSXSXSXSXSXSXSXSXSXSXSXSXSXSXSXSXSXSXSXSXSXSXSXSXSXSX",
"SXSXSXSXSXSXSXSXSXSXSXSXSXSXSXSXSXSXSXSXSXSXSXSXSXSXSXSXSXSXSXSXSXSXSXSXSXSXSXSXSXSXSXSXSXSXSXSXSXSX",
"SXSXSXSXSXSXSXSXSXSXSXSXSXSXSXSXSXSXSXSXSXSXSXSXSXSXSXSXSXSXSXSXSXSXSXSXSXSXSXSXSXSXSXSXSXSXSXSXSXSX"
};
