/* XPM */
static char *result[] = {
/* columns rows colors chars-per-pixel */
"50 50 255 2 ",
"   c #554B8C",
".  c #554B8D",
"X  c #564C8C",
"o  c #564C8D",
"O  c #574C8D",
"+  c #574D8D",
"@  c #564C8E",
"#  c #574D8E",
"$  c #584E8D",
"%  c #584E8E",
"&  c #584F8E",
"*  c #594F8E",
"=  c #5A508E",
"-  c #5E5590",
";  c #5F5590",
":  c #5E5491",
">  c #5F5690",
",  c #605691",
"<  c #605791",
"1  c #615890",
"2  c #615891",
"3  c #625891",
"4  c #635A92",
"5  c #645A92",
"6  c #645B93",
"7  c #675E93",
"8  c #605896",
"9  c #685F93",
"0  c #635A98",
"q  c #675F9C",
"w  c #766D8C",
"e  c #776D8D",
"r  c #696094",
"t  c #6A6094",
"y  c #6A6194",
"u  c #6C6395",
"i  c #6D6395",
"p  c #736B97",
"a  c #70679C",
"s  c #766E98",
"d  c #776E98",
"f  c #776F98",
"g  c #776F99",
"h  c #72689D",
"j  c #746A9E",
"k  c #746B9E",
"l  c #736C9C",
"z  c #766D9C",
"x  c #787099",
"c  c #7D759B",
"v  c #7E769B",
"b  c #7E779B",
"n  c #716BA5",
"m  c #726CA6",
"M  c #736DA6",
"N  c #746EA6",
"B  c #756FA6",
"V  c #7871A0",
"C  c #7970A1",
"Z  c #7C75A1",
"A  c #7B75A8",
"S  c #817A9C",
"D  c #837B9D",
"F  c #837C9D",
"G  c #857E9E",
"H  c #877F9F",
"J  c #8279A4",
"K  c #8279A7",
"L  c #817AAA",
"P  c #827AAA",
"I  c #827BAA",
"U  c #827CA9",
"Y  c #827CAA",
"T  c #827DAA",
"R  c #887FAA",
"E  c #8C838B",
"W  c #8D848B",
"Q  c #958C8A",
"!  c #988F8E",
"~  c #9C9490",
"^  c #A49E98",
"/  c #A59F98",
"(  c #8B84A0",
")  c #8782AB",
"_  c #8880AB",
"`  c #8983AB",
"'  c #8C83AD",
"]  c #948DA3",
"[  c #928BAD",
"{  c #9992A5",
"}  c #9E99A7",
"|  c #9D94B7",
" . c #9C98B0",
".. c #A49EA9",
"X. c #A19DB1",
"o. c #A29EB1",
"O. c #A199B9",
"+. c #A199BA",
"@. c #A59DBB",
"#. c #A59DBC",
"$. c #ACA6A7",
"%. c #A9A3AA",
"&. c #A9A4AB",
"*. c #AAA5AB",
"=. c #ABA5AB",
"-. c #ABA6AB",
";. c #ABA6AC",
":. c #ADA8AC",
">. c #B0ABAD",
",. c #B1ACAD",
"<. c #B2ADAE",
"1. c #B2AEAE",
"2. c #AFA9B1",
"3. c #B8B3B0",
"4. c #BAB6B7",
"5. c #BCB8B2",
"6. c #BEBBB8",
"7. c #BFBBB8",
"8. c #E0B6AE",
"9. c #E0B7AE",
"0. c #E0B8AE",
"q. c #DCD487",
"w. c #DCD587",
"e. c #E5DE86",
"r. c #E7E086",
"t. c #E8E186",
"y. c #E9E286",
"u. c #C3C0B4",
"i. c #C4C1B4",
"p. c #C5C1B4",
"a. c #C5C1B5",
"s. c #C6C2B5",
"d. c #C9C5B6",
"f. c #CAC6B6",
"g. c #CAC7B6",
"h. c #CBC8B7",
"j. c #CCC8B7",
"k. c #CCC9B7",
"l. c #CDCAB7",
"z. c #C7C4BA",
"x. c #CECAB8",
"c. c #CECBB8",
"v. c #CFCCB8",
"b. c #D6C8B6",
"n. c #D0CDB8",
"m. c #D3D0BA",
"M. c #D4D0BA",
"N. c #D5D2BA",
"B. c #D6D3BB",
"V. c #D6D3BD",
"C. c #DAD7BC",
"Z. c #DAD8BC",
"A. c #DBD9BD",
"S. c #DCD9BD",
"D. c #DDDABD",
"F. c #DDDBBD",
"G. c #DCD9BE",
"H. c #DDDABE",
"J. c #DDDBBE",
"K. c #DEDBBE",
"L. c #DEDCBE",
"P. c #DFDDBE",
"I. c #E4C6B4",
"U. c #E5C6B4",
"Y. c #E8CEB7",
"T. c #E8CFB7",
"R. c #E0DEBE",
"E. c #EBD8BB",
"W. c #ECDBBC",
"Q. c #EDDDBD",
"!. c #EDDEBD",
"~. c #EEE2BF",
"^. c #AFA7C2",
"/. c #B3ABC4",
"(. c #B4ACC5",
"). c #B4ADC5",
"_. c #DAC7C1",
"`. c #DAC8C1",
"'. c #DBCBC1",
"]. c #DBCDC1",
"[. c #DEDAC0",
"{. c #DEDBC0",
"}. c #DEDCC0",
"|. c #D9D4CE",
" X c #D1C9D7",
".X c #D3CCD7",
"XX c #D6CFD9",
"oX c #D7D0D7",
"OX c #DED7DB",
"+X c #D9D2DC",
"@X c #DBD4DC",
"#X c #DCD5DD",
"$X c #DED7DC",
"%X c #DCD5DE",
"&X c #DDD7DE",
"*X c #DED7DE",
"=X c #DFD9DC",
"-X c #DFD8DF",
";X c #EFD9C7",
":X c #EFDAC7",
">X c #F0DEC7",
",X c #E2DDD2",
"<X c #E2E0C1",
"1X c #E5E3C0",
"2X c #E5E3C2",
"3X c #E6E4C0",
"4X c #E7E5C0",
"5X c #E6E4C1",
"6X c #E8E6C1",
"7X c #E8E7C1",
"8X c #EFE4C0",
"9X c #EFE0C6",
"0X c #EBEAC2",
"qX c #ECEAC3",
"wX c #EDEBC3",
"eX c #EDECC3",
"rX c #EFEEC4",
"tX c #ECE9CA",
"yX c #EDEBCB",
"uX c #EEEBCB",
"iX c #EFEDCB",
"pX c #F1E0C7",
"aX c #F0E3C6",
"sX c #F0E5C6",
"dX c #F0ECC3",
"fX c #F0EFC4",
"gX c #F0EFC5",
"hX c #F2EEC4",
"jX c #F2EFC4",
"kX c #F1F0C4",
"lX c #F1F0C5",
"zX c #F3F1C4",
"xX c #F3F0C5",
"cX c #F3F1C5",
"vX c #F2F2C5",
"bX c #F3F2C5",
"nX c #F3F3C5",
"mX c #F3F2C6",
"MX c #F3F3C6",
"NX c #F4F2C5",
"BX c #F4F3C5",
"VX c #F4F0C6",
"CX c #F4F3C6",
"ZX c #F4F4C5",
"AX c #F5F4C5",
"SX c #F5F5C5",
"DX c #F5F4C6",
"FX c #F5F5C6",
"GX c #F6F5C6",
"HX c #F7F6C6",
"JX c #F7F7C6",
"KX c #F8F7C7",
"LX c #E5E0D4",
"PX c #E6E1D4",
"IX c None",
/* pixels */
"IXIXIXIXIXIXIXIXIXIXIXIXIXIXIXIXIXIXIXIXIXIXIXIXIXIXIXIXIXIXIXIXIXIXIXIXIXIXIXIXIXIXIXIXIXIXIXIXIXIX",
"IXIXIXIXIXIXIXIXIXIXIXIXIXIXIXIXIXIXIXIXIXIXIXIXIXIXIXIXIXIXIXIXIXIXIXIXIXIXIXIXIXIXIXIXIXIXIXIXIXIX",
"IXIXIXIXIXIXIXIXIXIXIXIXIXIXIXIXIXIXIXIXIXIXIXIXIXIXIXIXIXIXIXIXIXIXIXIXIXIXIXIXIXIXIXIXIXIXIXIXIXIX",
"IXIXIXIXIXIXIXIXIXIXIXIXIXIXIXIXIXIXIXIXIXIXIXIXIXIXIXIXIXIXIXIXIXIXIXIXIXIXIXIXIXIXIXIXIXIXIXIXIXIX",
"IXIXIXIXIXIXIXIXIXIXIXIXIXIXIXIXIXIXIX* * * * * * * * * * IXIXIXIXIXIXIXIXIXIXIXIXIXIXIXIXIXIXIXIXIX",
"IXIXIXIXIXIXIXIXIXIXIXIXIXIXIXIXIXIXIX& & & & & & & & & * IXIXIXIXIXIXIXIXIXIXIXIXIXIXIXIXIXIXIXIXIX",
"IXIXIXIXIXIXIXIXIXIXIXIXIXIXIXIX* + G *.-.=.=.=.=.=.=.;.} 3 % * IXIXIXIXIXIXIXIXIXIXIXIXIXIXIXIXIXIX",
"IXIXIXIXIXIXIXIXIXIXIXIXIXIXIX% % o ] vXDXDXDXDXDXAXAXHXl.3 % * IXIXIXIXIXIXIXIXIXIXIXIXIXIXIXIXIXIX",
"IXIXIXIXIXIXIXIXIXIXIXIXIXIXIX3 3 , { dXjXhXhXhXjXzXbXDXk.3 % * IXIXIXIXIXIXIXIXIXIXIXIXIXIXIXIXIXIX",
"IXIXIXIXIXIXIXIXIXIXIXIX* % ; >.x.k.b.I.U.U.U.U.U.!.bXDXk.3 % * * * * IXIXIXIXIXIXIXIXIXIXIXIXIXIXIX",
"IXIXIXIXIXIXIXIXIXIXIXIX* % ; s.KXGXQ.9.8.8.8.8.8.E.nXDXj., O + + + + + IXIXIXIXIXIXIXIXIXIXIXIXIXIX",
"IXIXIXIXIXIXIXIXIXIXIXIX* % ; i.FXnXW.0.9.9.9.9.9.E.nXDXM.v s d d d f p IXIXIXIXIXIXIXIXIXIXIXIXIXIX",
"IXIXIXIXIXIXIXIXIXIXIXIX* % ; p.FXnXW.0.9.9.9.9.9.E.nXbXrX3X1X1X1X1X4X:.= * * IXIXIXIXIXIXIXIXIXIXIX",
"IXIXIXIXIXIXIXIXIXIXIXIX* % ; p.FXnXW.9.8.8.8.8.8.E.nXbXbXBXBXBXBXBXGX<.= * * IXIXIXIXIXIXIXIXIXIXIX",
"IXIXIXIXIXIXIXIXIXIXIXIX* % ; p.FXnX8XT.Y.Y.Y.Y.Y.~.bXbXbXbXbXbXbXbXDX<.= * * IXIXIXIXIXIXIXIXIXIXIX",
"IXIXIXIXIXIXIXIXIXIXIXIX* % ; p.FXbXbXcXcXcXcXcXcXbXbXbXbXbXbXbXbXbXDX<.= * * IXIXIXIXIXIXIXIXIXIXIX",
"IXIXIXIXIXIXIXIXIXIXIXIX* % ; p.FXbXbXbXbXbXbXbXbXbXbXbXbXbXbXbXbXbXDX<.= * * IXIXIXIXIXIXIXIXIXIXIX",
"IXIXIXIXIXIXIXIXIXIXIXIX* % ; p.FXbXbXbXbXbXbXbXbXbXbXbXbXbXbXbXbXbXDX<.= * * IXIXIXIXIXIXIXIXIXIXIX",
"IXIXIXIXIXIXIXIXIXIXIXIX* % ; p.FXbXbXbXbXbXbXbXbXbXbXbXbXbXbXbXbXbXDX<.= * * IXIXIXIXIXIXIXIXIXIXIX",
"IXIXIXIXIXIXIXIXIXIXIXIX* % ; p.FXbXbXbXbXbXbXbXbXbXbXbXbXbXbXbXbXbXDX<.= * * IXIXIXIXIXIXIXIXIXIXIX",
"IXIXIXIXIXIXIXIXIX* * * * % ; p.FXbXbXbXbXbXbXbXbXbXbXbXbXbXbXbXbXbXDX<.= * * * * * IXIXIXIXIXIXIXIX",
"IXIXIXIXIXIXIXIX* * * * * % ; p.FXbXbXbXbXbXbXbXbXbXbXbXBXDXDXDXBXbXDX,.$ o + * * * IXIXIXIXIXIXIXIX",
"IXIXIXIXIXIXIXIXIX* * * * % ; p.FXbXbXbXbXbXbXbXbXbXbXBX7Xj.d.h.6XBXBXu.F D c - * * IXIXIXIXIXIXIXIX",
"IXIXIXIXIXIXIXIXIXIXIXIX* % ; p.FXbXbXbXbXbXbXbXbXbXbXDXc.r > 9 k.DXbXfX0XwXB.u % * IXIXIXIXIXIXIXIX",
"IXIXIXIXIXIXIXIXIXIXIXIX* % ; p.FXbXbXbXbXbXbXbXbXbXbXDXj.< o > f.DXbXbXBXDXJ.i % * IXIXIXIXIXIXIXIX",
"IXIXIXIXIXIXIXIXIXIXIX* * % ; p.FXbXbXbXbXbXbXbXbXbXbXBXP.&...%.L.BXbXbXbXCXD.i % * IXIXIXIXIXIXIXIX",
"IXIXIXIXIXIXIXIX* * * * * % ; p.FXbXbXbXbXbXbXbXbXbXbXbXbXBXBXBXbXbXbXbXbXCXD.i % * IXIXIXIXIXIXIXIX",
"IXIXIXIXIXIXIXIXIX* * * * % ; p.FXbXbXbXbXbXcXcXcXcXcXcXcXbXbXbXbXbXbXbXbXCXD.i % * IXIXIXIXIXIXIXIX",
"IXIXIXIXIXIXIXIXIXIXIXIX* % ; p.FXbXbXbXbXxXaX9X9X9X9X9XsXcXbXbXbXbXbXbXbXCXD.i % * IXIXIXIXIXIXIXIX",
"IXIXIXIXIXIXIXIXIXIXIXIX* % ; a.HXDXZXBXZXVX>X:X:X:X:X;XpXNXBXBXBXBXBXBXDXGXK.i % * IXIXIXIXIXIXIXIX",
"IXIXIXIXIXIXIXIXIXIXIXIX* % ; 3.S.C.G.}.}.[.'._.`.`.`._.].{.}.}.}.}.}.H.Z.A.g.u % * IXIXIXIXIXIXIXIX",
"IXIXIXIXIXIXIXIXIXIXIXIXIXIXIXt y y l U T Y P L L L L L I Y T T T T T V y y y IXIXIXIXIXIXIXIXIXIXIX",
"IXIXIXIXIXIXIXIXIXIXIXIXIXIXIXX X   8 n n n M M M M M M M M M M M M M q @ @ @ IXIXIXIXIXIXIXIXIXIXIX",
"IXIXIXIXIXIXIXIXIXIXIXIXIXIXIXK _ R [ X.o. .A N N N N N N N N N N N N b E W W IXIXIXIXIXIXIXIXIXIXIX",
"IXIXIXIXIXIXIXIXIXIXIXIX* * : /.@X+X,XgXlX<X) M N N N N N N N N N N M ^ e.e.e.IXIXIXIXIXIXIXIXIXIXIX",
"IXIXIXIXIXIXIXIXIXIXIXIX* * : (.*X%XLXmXBX2X` N B B B B B B B B N N m / t.y.t.IXIXIXIXIXIXIXIXIXIXIX",
"IXIXIXIXIXIXIXIXIXIXIXIX* * : (.*X#XLXbXnXeXz.6.6.6.6.6.6.6.7.4.Z 0 0 ~ r.t.t.IXIXIXIXIXIXIXIXIXIXIX",
"IXIXIXIXIXIXIXIXIXIXIXIX* * : ).-X%XPXMXBXBXZXAXAXAXAXAXAXAXDXwXS . @ Q t.y.y.IXIXIXIXIXIXIXIXIXIXIX",
"IXIXIXIXIXIXIXIXIXIXIXIX* * : ^..X X|.5X3X6XkXbXbXbXbXbXbXbXBXqX( 5 6 ! q.w.w.IXIXIXIXIXIXIXIXIXIXIX",
"IXIXIXIXIXIXIXIXIXIXIXIXIXIXIXh k j z x g H R.BXbXbXbXbXbXbXbXkXS.m.N.$.e w w IXIXIXIXIXIXIXIXIXIXIX",
"IXIXIXIXIXIXIXIXIXIXIXIXIXIXIX+ + + + + o y F.HXDXDXDXDXAXnXbXnXAXSXJX1.% # # IXIXIXIXIXIXIXIXIXIXIX",
"IXIXIXIXIXIXIXIXIXIXIXIXIXIXIX* * * * * % 7 5.n.v.v.v.c.V.tXuXyXyXyXiX2.= * * IXIXIXIXIXIXIXIXIXIXIX",
"IXIXIXIXIXIXIXIXIXIXIXIXIXIXIX* * * * * * = 2 4 4 4 4 1 J oX$XOXOXOX=X@.= * * IXIXIXIXIXIXIXIXIXIXIX",
"IXIXIXIXIXIXIXIXIXIXIXIXIXIXIX* * * * * * * % % % % % o C XX*X&X&X*X-X#.= * * IXIXIXIXIXIXIXIXIXIXIX",
"IXIXIXIXIXIXIXIXIXIXIXIXIXIXIXIX* * * * * * * * * * * + a | O.O.O.O.+.' = * IXIXIXIXIXIXIXIXIXIXIXIX",
"IXIXIXIXIXIXIXIXIXIXIXIXIXIXIXIXIXIXIX* * * * * * IXIXIXIX* * * * * * * IXIXIXIXIXIXIXIXIXIXIXIXIXIX",
"IXIXIXIXIXIXIXIXIXIXIXIXIXIXIXIXIXIXIX* * * * * * IXIXIXIX* * * * * * * IXIXIXIXIXIXIXIXIXIXIXIXIXIX",
"IXIXIXIXIXIXIXIXIXIXIXIXIXIXIXIXIXIXIXIXIXIXIXIXIXIXIXIXIXIXIXIXIXIXIXIXIXIXIXIXIXIXIXIXIXIXIXIXIXIX",
"IXIXIXIXIXIXIXIXIXIXIXIXIXIXIXIXIXIXIXIXIXIXIXIXIXIXIXIXIXIXIXIXIXIXIXIXIXIXIXIXIXIXIXIXIXIXIXIXIXIX",
"IXIXIXIXIXIXIXIXIXIXIXIXIXIXIXIXIXIXIXIXIXIXIXIXIXIXIXIXIXIXIXIXIXIXIXIXIXIXIXIXIXIXIXIXIXIXIXIXIXIX"
};
