/* XPM */
static char *result[] = {
/* columns rows colors chars-per-pixel */
"50 50 251 2 ",
"   c #53498C",
".  c #554B8D",
"X  c #564C8D",
"o  c #574D8D",
"O  c #574D8E",
"+  c #584E8D",
"@  c #584E8E",
"#  c #594F8E",
"$  c #5A4F8F",
"%  c #5B518D",
"&  c #5A508E",
"*  c #5B518F",
"=  c #5C528E",
"-  c #5C528F",
";  c #5D538F",
":  c #5F568E",
">  c #5B5291",
",  c #5C5290",
"<  c #5D5290",
"1  c #5D5390",
"2  c #5C5291",
"3  c #5E5490",
"4  c #5E5590",
"5  c #5F5591",
"6  c #5F5592",
"7  c #60568D",
"8  c #60568E",
"9  c #615791",
"0  c #655B92",
"q  c #655C92",
"w  c #665D93",
"e  c #625997",
"r  c #655B95",
"t  c #665D96",
"y  c #675E97",
"u  c #685F94",
"i  c #655D99",
"p  c #696094",
"a  c #696194",
"s  c #696095",
"d  c #6A6194",
"f  c #6B6294",
"g  c #6C6395",
"h  c #6D6495",
"j  c #6F6696",
"k  c #696299",
"l  c #6A619A",
"z  c #726A97",
"x  c #736A97",
"c  c #736B97",
"v  c #71679D",
"b  c #746C98",
"n  c #756D99",
"m  c #72699D",
"M  c #7F779B",
"N  c #7F779C",
"B  c #6F68A2",
"V  c #7069A2",
"C  c #726BA3",
"Z  c #716BA5",
"A  c #726CA5",
"S  c #726CA6",
"D  c #736DA6",
"F  c #746EA6",
"G  c #7570A6",
"H  c #7970A1",
"J  c #7A70A2",
"K  c #7974A7",
"L  c #7A74A8",
"P  c #847EA9",
"I  c #87809E",
"U  c #87809F",
"Y  c #9B9497",
"T  c #A39A89",
"R  c #A49C8B",
"E  c #A39C95",
"W  c #B7AF89",
"Q  c #B8B089",
"!  c #AEA794",
"~  c #B1AA96",
"^  c #8C85A0",
"/  c #8D86A1",
"(  c #8781AB",
")  c #8883AB",
"_  c #8983AB",
"`  c #8C87AC",
"'  c #9089A1",
"]  c #918AA2",
"[  c #928BA2",
"{  c #958EA3",
"}  c #958EA4",
"|  c #958FA4",
" . c #9790A4",
".. c #9993A5",
"X. c #9C96A6",
"o. c #9D96A6",
"O. c #9D97A7",
"+. c #9E98A7",
"@. c #9F98A7",
"#. c #9F99A7",
"$. c #9F9AA7",
"%. c #9490AE",
"&. c #9E96AF",
"*. c #968DB3",
"=. c #9990B5",
"-. c #A099A8",
";. c #A39EA8",
":. c #A39EA9",
">. c #A49EA8",
",. c #A49EA9",
"<. c #A49FA9",
"1. c #A49CBC",
"2. c #A89FBD",
"3. c #A6A1AA",
"4. c #A9A4AD",
"5. c #AAA6AF",
"6. c #B0ABAD",
"7. c #BDB1AF",
"8. c #A4A0B2",
"9. c #AFA1B6",
"0. c #AFA2B6",
"q. c #B0A5B6",
"w. c #B1A9B5",
"e. c #B1ADB5",
"r. c #B1AEB5",
"t. c #B2AEB5",
"y. c #B5AFBC",
"u. c #B8B4B0",
"i. c #BEB9B2",
"p. c #BEBAB2",
"a. c #BFBAB2",
"s. c #BFBBB2",
"d. c #C1B988",
"f. c #C1B989",
"g. c #C1BDB3",
"h. c #C3BFB4",
"j. c #E0B6AE",
"k. c #E0B7AE",
"l. c #E0B8AE",
"z. c #E2BDB0",
"x. c #E2BEB1",
"c. c #E8E186",
"v. c #E9E286",
"b. c #EAE386",
"n. c #EBE486",
"m. c #C4C0B4",
"M. c #CBC7B7",
"N. c #CCC9B7",
"B. c #CBC8B8",
"V. c #CBC8BB",
"C. c #D2CFB9",
"Z. c #D0CDBD",
"A. c #D0CEBD",
"S. c #D6D4BB",
"D. c #DAD7BC",
"F. c #DBD8BC",
"G. c #DEDBBD",
"H. c #E5C8B5",
"J. c #E6C8B5",
"K. c #E7CDB6",
"L. c #EAD7BB",
"P. c #EBD7BB",
"I. c #E0DEBE",
"U. c #EBD8BB",
"Y. c #EBDABC",
"T. c #ECDABC",
"R. c #ECDDBD",
"E. c #EDDFBE",
"W. c #E2E0BF",
"Q. c #E3E0BF",
"!. c #E3E1BF",
"~. c #ABA3C0",
"^. c #ACA4C0",
"/. c #AFA7C2",
"(. c #B0A8C3",
"). c #B7AFC7",
"_. c #B8B1C7",
"`. c #C1BCC3",
"'. c #C7BFD0",
"]. c #CCC7C2",
"[. c #C8C0D1",
"{. c #D4CDD8",
"}. c #D5CED9",
"|. c #D6CFD9",
" X c #DCD5DD",
".X c #DCD5DE",
"XX c #DCD6DE",
"oX c #DDD6DE",
"OX c #DED6DF",
"+X c #DED7DF",
"@X c #DFD8DF",
"#X c #DFD9DF",
"$X c #EED9C7",
"%X c #EEDAC7",
"&X c #EFDAC7",
"*X c #EEDBC7",
"=X c #E4E3C0",
"-X c #E5E3C0",
";X c #E4E3C1",
":X c #E5E4C0",
">X c #E6E4C0",
",X c #E7E5C0",
"<X c #E6E4C2",
"1X c #E8E6C1",
"2X c #E9E7C1",
"3X c #E8E7C2",
"4X c #E9E8C1",
"5X c #EAE8C2",
"6X c #EAE9C2",
"7X c #EDECC3",
"8X c #EEECC3",
"9X c #EFEDC3",
"0X c #EEEDC4",
"qX c #EFEEC4",
"wX c #F0E0C6",
"eX c #F0E8C1",
"rX c #F0E9C1",
"tX c #F1EBC2",
"yX c #F2EEC3",
"uX c #F1E9C6",
"iX c #F2E9C6",
"pX c #F1EAC6",
"aX c #F0EEC4",
"sX c #F0EFC4",
"dX c #F1EFC4",
"fX c #F2EFC5",
"gX c #F2ECC6",
"hX c #F1F0C4",
"jX c #F2F0C4",
"kX c #F3F1C4",
"lX c #F2F1C5",
"zX c #F3F1C5",
"xX c #F2F2C5",
"cX c #F3F2C5",
"vX c #F3F3C5",
"bX c #F4F2C5",
"nX c #F4F3C5",
"mX c #F4F3C6",
"MX c #F5F4C5",
"NX c #F4F4C6",
"BX c #F5F4C6",
"VX c #F5F5C6",
"CX c #F6F5C6",
"ZX c #F6F6C6",
"AX c #F7F6C6",
"SX c #E6E2D3",
"DX c #E7E3D3",
"FX c #E5E0D4",
"GX c #E7E2D5",
"HX c #E7E3D5",
"JX c None",
/* pixels */
"JXJXJXJXJXJXJXJXJXJXJXJXJXJXJXJXJXJXJXJXJXJXJXJXJXJXJXJXJXJXJXJXJXJXJXJXJXJXJXJXJXJXJXJXJXJXJXJXJXJX",
"JXJXJXJXJXJXJXJXJXJXJXJXJXJXJXJXJXJXJXJXJXJXJXJXJXJXJXJXJXJXJXJXJXJXJXJXJXJXJXJXJXJXJXJXJXJXJXJXJXJX",
"JXJXJXJXJXJXJXJXJXJXJXJXJXJXJXJXJXJXJXJXJXJXJXJXJXJXJXJXJXJXJXJXJXJXJXJXJXJXJXJXJXJXJXJXJXJXJXJXJXJX",
"JXJXJXJXJXJXJXJXJXJXJXJXJXJXJXJXJXJXJXJXJXJXJXJX# # # # # # # # # # JXJXJXJXJXJXJXJXJXJXJXJXJXJXJXJX",
"JXJXJXJXJXJXJXJXJXJXJXJXJXJXJXJXJXJXJXJXJXJXJXJXo o o o o o o o o o JXJXJXJXJXJXJXJXJXJXJXJXJXJXJXJX",
"JXJXJXJXJXJXJXJXJXJXJXJXJXJXJXJXJXJXJXJXJXJXJXb N M M M M M M M M N n JXJXJXJXJXJXJXJXJXJXJXJXJXJXJX",
"JXJXJXJXJXJXJXJXJXJXJXJXJXJXJXJXJXJXJXJX# # o ] 1X6X5X5X5X5X5X5X6X2X} o # # JXJXJXJXJXJXJXJXJXJXJXJX",
"JXJXJXJXJXJXJXJXJXJXJXJXJXJXJXJXJXJXJXJX# # o [ hXnXnXnXmXmXmXmXNXxX| . o o JXJXJXJXJXJXJXJXJXJXJXJX",
"JXJXJXJXJXJXJXJXJXJXJXJXJXJXJXJXJXJXJXJX# # o [ sXcXkXE.P.U.U.U.U.L.7.O.@...u JXJXJXJXJXJXJXJXJXJXJX",
"JXJXJXJXJXJXJXJXJXJXJXJXJXJXJXJXJX# # # # # X [ sXvXjXH.j.k.k.k.k.l.Y.vXBXD.d @ # # JXJXJXJXJXJXJXJX",
"JXJXJXJXJXJXJXJXJXJXJXJXJXJXJXJXJX; ; ; ; ; * { dXvXjXJ.j.k.k.k.k.k.T.vXBXD.a @ # # JXJXJXJXJXJXJXJX",
"JXJXJXJXJXJXJXJXJXJXJXJXJX# # @ | s.a.a.a.a.i.C.lXcXjXJ.j.k.k.k.k.l.Y.vXBXD.a @ # # JXJXJXJXJXJXJXJX",
"JXJXJXJXJXJXJXJXJXJXJXJXJX# # @ <.ZXVXBXBXBXVXNXcXcXjXH.j.k.k.k.j.k.Y.vXBXD.a @ # # JXJXJXJXJXJXJXJX",
"JXJXJXJXJXJXJXJXJXJXJXJXJX# # @ ,.nXcXcXcXcXcXcXcXcXjXK.z.x.x.x.x.x.R.vXBXD.a @ # # JXJXJXJXJXJXJXJX",
"JXJXJXJXJXJXJXJXJXJXJXJXJX# # @ ,.nXcXcXcXcXcXcXcXcXcXtXeXrXrXrXrXrXyXcXBXD.a @ # # JXJXJXJXJXJXJXJX",
"JXJXJXJXJXJXJXJXJXJXJXJXJX# # @ ,.nXcXcXcXcXcXcXcXcXcXcXvXvXvXvXvXvXcXcXBXD.a @ # # JXJXJXJXJXJXJXJX",
"JXJXJXJXJXJXJXJXJXJXJXJXJX# # @ ,.nXcXcXcXcXcXcXcXcXcXcXcXcXcXcXcXcXcXcXBXD.a @ # # JXJXJXJXJXJXJXJX",
"JXJXJXJXJXJXJXJXJXJXJXJXJX# # @ ,.nXcXcXcXcXcXcXcXcXcXcXcXcXcXcXcXcXcXcXBXD.a @ # # JXJXJXJXJXJXJXJX",
"JXJXJXJXJXJXJXJXJXJXJXJXJX# # @ ,.nXcXcXcXcXcXcXcXcXcXcXcXcXcXcXcXcXcXcXBXD.a @ # # JXJXJXJXJXJXJXJX",
"JXJXJXJXJXJXJXJXJXJXJXJX# # # @ ,.nXcXcXcXcXcXcXcXcXcXcXcXcXcXcXcXcXcXcXBXD.a @ # # JXJXJXJXJXJXJXJX",
"JXJXJXJXJXJXJXJXJX# # # # # @ o :.nXcXcXcXnXnXcXcXcXcXcXcXcXcXcXcXcXcXcXBXD.a @ # # # # # JXJXJXJXJX",
"JXJXJXJXJXJXJXJXJX# # # & 3 4 1 3.nXcXlX9X8X8XaXcXcXcXcXcXcXcXcXcXcXcXcXBXD.a @ # # # # # JXJXJXJXJX",
"JXJXJXJXJXJXJXJXJX# # @ f u.m.h.F.cXnX4Xo.U I 6.hXcXcXcXcXcXcXcXcXcXcXcXBXD.a @ # # JXJXJXJXJXJXJXJX",
"JXJXJXJXJXJXJXJXJX# # o x -XAXBXnXcXnX=Xc     ' sXcXcXcXcXcXcXcXcXcXcXcXBXD.a @ # JXJXJXJXJXJXJXJXJX",
"JXJXJXJXJXJXJXJXJX# # o z Q.nXcXcXcXnX,XI h g #.hXcXcXcXcXcXcXcXcXcXcXcXBXD.a @ # # JXJXJXJXJXJXJXJX",
"JXJXJXJXJXJXJXJXJX# # o z Q.nXcXcXcXcXhXW.G.G.>XcXcXcXcXcXcXcXcXcXcXcXcXBXD.a @ # # # # # JXJXJXJXJX",
"JXJXJXJXJXJXJXJXJX# # o z Q.nXcXcXcXcXcXnXnXnXnXcXcXcXcXcXcXcXcXcXcXcXcXBXD.a @ # # # # # JXJXJXJXJX",
"JXJXJXJXJXJXJXJXJX# # o z Q.nXcXcXcXcXcXcXcXcXfXpXpXpXpXpXpXgXcXcXcXcXcXBXD.a @ # # # # # JXJXJXJXJX",
"JXJXJXJXJXJXJXJXJX# # o z !.nXcXcXcXcXcXcXcXcXuX*X%X%X%X%X%XwXzXcXcXcXcXBXD.a @ # # JXJXJXJXJXJXJXJX",
"JXJXJXJXJXJXJXJXJX# # o z !.MXvXcXcXbXbXbXbXnXiX&X$X$X$X$X$XwXzXnXcXcXvXBXD.p @ # # JXJXJXJXJXJXJXJX",
"JXJXJXJXJXJXJXJXJXJXJXJXj $.;.;.5.t.t.t.t.t.t.w.0.0.0.0.0.9.q.e.t.r.4.;.,.X.w JXJXJXJXJXJXJXJXJXJXJX",
"JXJXJXJXJXJXJXJXJXJXJXJXJXO O O i D D D D D D D D D D D D D D S S A e o o o JXJXJXJXJXJXJXJXJXJXJXJX",
"JXJXJXJXJXJXJXJXJXJXJXJXJX: 8 7 k F F F F F F F F F F F F F G K L K l 5 6 6 JXJXJXJXJXJXJXJXJXJXJXJX",
"JXJXJXJXJXJXJXJXJXJXJXJXJXf.d.d.Y F F F F F F F F F F F F D ` V.A.Z.`.)._.^.t + # JXJXJXJXJXJXJXJXJX",
"JXJXJXJXJXJXJXJXJXJXJXJXJXb.b.n.~ F F F D D D D D D D D D Z %.0XVXBXGXOX@X[.y + # # JXJXJXJXJXJXJXJX",
"JXJXJXJXJXJXJXJXJXJXJXJXJXc.c.v.! B V C P _ ) ) ) ) ) ) ) ( 8.7XvXcXFX XoX'.y + # # JXJXJXJXJXJXJXJX",
"JXJXJXJXJXJXJXJXJXJXJXJXJXc.c.v.R 2 > s B.<X;X;X;X;X;X;X;X;X3XlXcXcXFX XoX'.y + # # JXJXJXJXJXJXJXJX",
"JXJXJXJXJXJXJXJXJXJXJXJXJXb.b.n.T X . q S.CXnXnXnXnXnXnXnXnXnXBXVXBXHX+X#X[.y + # # JXJXJXJXJXJXJXJX",
"JXJXJXJXJXJXJXJXJXJXJXJXJXW W Q E / /  .I.nXcXcXcXcXcXcXcXnX:Xg.p.a.y./.(.1.r @ # JXJXJXJXJXJXJXJXJX",
"JXJXJXJXJXJXJXJXJXJXJXJXJX= = % >.sXqXqXlXcXcXcXcXcXcXcXcXVXN.0 - ; 1 , < , JXJXJXJXJXJXJXJXJXJXJXJX",
"JXJXJXJXJXJXJXJXJXJXJXJXJX# # O ,.mXcXcXcXcXcXcXcXcXcXcXcXBXM.9 @ # # # # # JXJXJXJXJXJXJXJXJXJXJXJX",
"JXJXJXJXJXJXJXJXJXJXJXJXJX# # @ &.DXSXSXSXSXDX].-.+.+.+.+.#.^ ; # # # # # # JXJXJXJXJXJXJXJXJXJXJXJX",
"JXJXJXJXJXJXJXJXJXJXJXJXJX# # + =.oXXX.X.X.X+X~.$ o o o o o @ # # # # # # # JXJXJXJXJXJXJXJXJXJXJXJX",
"JXJXJXJXJXJXJXJXJXJXJXJXJX# # @ *.}.{.{.{.{.|.2.* # # # # # # # # # # # # # JXJXJXJXJXJXJXJXJXJXJXJX",
"JXJXJXJXJXJXJXJXJXJXJXJXJXJXJXJXv H J J J J H m JXJXJX# # # # # # # # JXJXJXJXJXJXJXJXJXJXJXJXJXJXJX",
"JXJXJXJXJXJXJXJXJXJXJXJXJXJXJXJXJXo o o o o o o JXJXJX# # # # # # # JXJXJXJXJXJXJXJXJXJXJXJXJXJXJXJX",
"JXJXJXJXJXJXJXJXJXJXJXJXJXJXJXJXJX# # # # # # # JXJXJX# # # # # # # JXJXJXJXJXJXJXJXJXJXJXJXJXJXJXJX",
"JXJXJXJXJXJXJXJXJXJXJXJXJXJXJXJXJXJXJXJXJXJXJXJXJXJXJXJXJXJXJXJXJXJXJXJXJXJXJXJXJXJXJXJXJXJXJXJXJXJX",
"JXJXJXJXJXJXJXJXJXJXJXJXJXJXJXJXJXJXJXJXJXJXJXJXJXJXJXJXJXJXJXJXJXJXJXJXJXJXJXJXJXJXJXJXJXJXJXJXJXJX",
"JXJXJXJXJXJXJXJXJXJXJXJXJXJXJXJXJXJXJXJXJXJXJXJXJXJXJXJXJXJXJXJXJXJXJXJXJXJXJXJXJXJXJXJXJXJXJXJXJXJX"
};
