/* XPM */
static char *result[] = {
/* columns rows colors chars-per-pixel */
"50 50 234 2 ",
"   c #53488C",
".  c #544A8C",
"X  c #554B8C",
"o  c #554B8D",
"O  c #564C8D",
"+  c #574C8D",
"@  c #574D8D",
"#  c #574D8E",
"$  c #584D8D",
"%  c #584E8D",
"&  c #584E8E",
"*  c #594E8E",
"=  c #584F8E",
"-  c #594F8E",
";  c #5A508F",
":  c #5A518F",
">  c #5C528F",
",  c #5A5191",
"<  c #5B5291",
"1  c #5C5290",
"2  c #5C5291",
"3  c #5D5391",
"4  c #5E5490",
"5  c #5E5590",
"6  c #5F5590",
"7  c #5F5690",
"8  c #605791",
"9  c #615791",
"0  c #615793",
"q  c #635A91",
"w  c #635A92",
"e  c #645A92",
"r  c #655C92",
"t  c #635994",
"y  c #645B94",
"u  c #675E95",
"i  c #675D97",
"p  c #685E97",
"a  c #655D99",
"s  c #665E9A",
"d  c #685F9B",
"f  c #6A6195",
"g  c #6B6294",
"h  c #6B6396",
"j  c #6E6596",
"k  c #6E6697",
"l  c #6C639A",
"z  c #6D649A",
"x  c #6E649A",
"c  c #6E649B",
"v  c #6A629D",
"b  c #6E679D",
"n  c #716897",
"m  c #726A97",
"M  c #756D97",
"N  c #756D98",
"B  c #776F98",
"V  c #766E9B",
"C  c #787099",
"Z  c #78709B",
"A  c #7B739A",
"S  c #7D759B",
"D  c #6E66A0",
"F  c #6E67A1",
"G  c #6F68A2",
"H  c #6F69A2",
"J  c #7069A0",
"K  c #7069A2",
"L  c #716AA3",
"P  c #726BA3",
"I  c #746DA0",
"U  c #716BA5",
"Y  c #736DA6",
"T  c #746EA4",
"R  c #746EA6",
"E  c #756FA6",
"W  c #7973A5",
"Q  c #7E75A4",
"!  c #7F76A4",
"~  c #7F76A5",
"^  c #7F77A5",
"/  c #7F79A7",
"(  c #7D77A8",
")  c #7D78A8",
"_  c #7E78A8",
"`  c #80789C",
"'  c #80799C",
"]  c #837C9D",
"[  c #847D9E",
"{  c #857E9E",
"}  c #867E9E",
"|  c #867F9E",
" . c #837BA0",
".. c #817CA9",
"X. c #837EAA",
"o. c #887FAB",
"O. c #8D85A2",
"+. c #8883A8",
"@. c #8980AB",
"#. c #8F86AD",
"$. c #918AA2",
"%. c #938CA3",
"&. c #948DA3",
"*. c #958FA5",
"=. c #9790A4",
"-. c #9D96A6",
";. c #9D97A6",
":. c #9E96B0",
">. c #9990B5",
",. c #9C94B6",
"<. c #9E95B7",
"1. c #9F97B8",
"2. c #A09BA7",
"3. c #A19BA7",
"4. c #A19CB1",
"5. c #A199BA",
"6. c #A6A1A9",
"7. c #A7A2AA",
"8. c #A9A3AA",
"9. c #A9A3AB",
"0. c #AAA5AB",
"q. c #ABA5AB",
"w. c #ABA6AB",
"e. c #ACA7AB",
"r. c #ACA7AC",
"t. c #ACA6AE",
"y. c #AEA8AC",
"u. c #AEA9AC",
"i. c #A7A0B3",
"p. c #AAA7B3",
"a. c #B2ABBD",
"s. c #B7B2B0",
"d. c #B7B3B0",
"f. c #B8B4B0",
"g. c #BCB7B2",
"h. c #BDB9B2",
"j. c #BFBAB2",
"k. c #BCB8B4",
"l. c #C0BCB3",
"z. c #C9C6B6",
"x. c #CAC6B6",
"c. c #CAC7B6",
"v. c #CAC7B7",
"b. c #CCC8B7",
"n. c #D0CCB8",
"m. c #D0CDB9",
"M. c #D1CEB9",
"N. c #D3D1BC",
"B. c #D5D2BD",
"V. c #D6D3BE",
"C. c #D7D3BE",
"Z. c #D9D7BC",
"A. c #DBD8BC",
"S. c #DBD9BC",
"D. c #DBD9BD",
"F. c #DEDCBD",
"G. c #E0DEBE",
"H. c #ACA3C0",
"J. c #AEA6C2",
"K. c #BCB4CA",
"L. c #BDB5CA",
"P. c #BDB6CB",
"I. c #C1B9CD",
"U. c #CFC9CA",
"Y. c #D5D1C2",
"T. c #DEDCC0",
"R. c #DFDACD",
"E. c #C8C1D0",
"W. c #C8C0D1",
"Q. c #C9C1D1",
"!. c #CDC6D4",
"~. c #DFD9D7",
"^. c #D8D0D8",
"/. c #D8D1DA",
"(. c #D9D2DB",
"). c #DBD4DA",
"_. c #D9D2DC",
"`. c #DDD6DC",
"'. c #DDD7DC",
"]. c #DED7DC",
"[. c #DDD6DE",
"{. c #DED7DE",
"}. c #DED8DB",
"|. c #DED8DD",
" X c #DFD8DF",
".X c #E0DEC0",
"XX c #E1DFC1",
"oX c #E3DDD6",
"OX c #E4DED7",
"+X c #E5DFD7",
"@X c #E1DCD8",
"#X c #E5E3C0",
"$X c #E6E4C0",
"%X c #E6E5C0",
"&X c #E6E5C2",
"*X c #E8E6C1",
"=X c #E9E8C3",
"-X c #EAE9C2",
";X c #EBEAC2",
":X c #ECEBC3",
">X c #EDEBC3",
",X c #EDECC3",
"<X c #EEECC3",
"1X c #EEEDC3",
"2X c #E6E3C9",
"3X c #ECEACB",
"4X c #EDEBCB",
"5X c #ECE9CC",
"6X c #ECEACC",
"7X c #EDEACC",
"8X c #EEEBCD",
"9X c #F1EFC7",
"0X c #F1F0C4",
"qX c #F1F0C5",
"wX c #F2F0C4",
"eX c #F2F1C4",
"rX c #F2F1C5",
"tX c #F3F2C5",
"yX c #F1F0C7",
"uX c #F2F1C6",
"iX c #F4F3C5",
"pX c #F4F3C6",
"aX c #F4F3C7",
"sX c #F4F4C5",
"dX c #F5F4C5",
"fX c #F4F4C6",
"gX c #F5F4C6",
"hX c #F5F5C6",
"jX c #F6F5C6",
"kX c #F7F6C6",
"lX c #F9F8C7",
"zX c #E9E5D3",
"xX c #E0D8E0",
"cX c None",
/* pixels */
"cXcXcXcXcXcXcXcXcXcXcXcXcXcXcXcXcXcXcXcXcXcXcXcXcXcXcXcXcXcXcXcXcXcXcXcXcXcXcXcXcXcXcXcXcXcXcXcXcXcX",
"cXcXcXcXcXcXcXcXcXcXcXcXcXcXcXcXcXcXcXcXcXcXcXcXcXcXcXcXcXcXcXcXcXcXcXcXcXcXcXcXcXcXcXcXcXcXcXcXcXcX",
"cXcXcXcXcXcXcXcXcXcXcXcXcXcXcXcXcXcXcXcXcXcXcXcXcXcXcXcXcXcXcXcXcXcXcXcXcXcXcXcXcXcXcXcXcXcXcXcXcXcX",
"cXcXcXcXcXcXcXcXcXcXcXcXcXcXcXcXcXcXcXcXcXcXcXcXcXcXcXcXcXcXcXcXcXcXcXcXcXcXcXcXcXcXcXcXcXcXcXcXcXcX",
"cXcXcXcXcXcXcXcXcXcXcXcXcXcXcXcXcXcXcXcXcXcXcXcXcXcXcXcXcXcXcXcXcXcXcXcXcXcXcXcXcXcXcXcXcXcXcXcXcXcX",
"cXcXcXcXcXcXcXcXcXcXcX- - - - - - - - cXcXcXcXcXcXcXcXcXcXcX- - - - - - - - cXcXcXcXcXcXcXcXcXcXcXcX",
"cXcXcXcXcXcXcXcXcXcXcX& & & & & & & & cXcXcXcXcXcXcXcXcXcXcX* & & & & & & & = cXcXcXcXcXcXcXcXcXcXcX",
"cXcXcXcXcXcXcXcXcX+ S 8.0.0.0.0.0.0.6.m @ cXcXcXcXcXcXcX& 8 ;.q.0.0.0.0.0.q.$.- - cXcXcXcXcXcXcXcXcX",
"cXcXcXcXcXcXcXcX- @ } <XgXiXiXiXiXgX%XB @ - cXcXcXcXcX- & 9 c.kXiXiXiXiXsXjXe.- - cXcXcXcXcXcXcXcXcX",
"cXcXcXcXcXcXcXcX- @ { :XiXtXtXtXtXiX#XB @ - cXcXcXcXcX- & 9 x.hXtXtXtXtXtXdXw.- - cXcXcXcXcXcXcXcXcX",
"cXcXcXcXcXcXcXcX- @ { :XiXtXtXtXtXiX#XB @ - - - - - - - & 9 x.gXtXtXtXtXtXdXw.- - cXcXcXcXcXcXcXcXcX",
"cXcXcXcXcXcXcXcX- @ { :XiXtXtXtXtXiX#XM X @ @ @ @ @ @ @ O 6 z.gXtXtXtXtXtXdXw.- - cXcXcXcXcXcXcXcXcX",
"cXcXcXcXcXcXcXcX- @ { :XiXtXtXtXtXiX=X:.o.@.@.@.@.@.@.@.@.#.C.dXtXtXtXtXtXdXw.- - cXcXcXcXcXcXcXcXcX",
"cXcXcXcXcXcXcXcX- @ { :XiXtXtXtXtXtX9X~._._._._._._._._._.).3XtXtXtXtXtXtXdXw.- - cXcXcXcXcXcXcXcXcX",
"cXcXcXcXcXcXcXcX- @ { :XiXtXtXtXtXtXyX@X`.'.'.'.'.'.'.'.`.}.4XtXtXtXtXtXtXdXw.- - cXcXcXcXcXcXcXcXcX",
"cXcXcXcXcXcXcXcX- @ { :XiXtXtXtXtXtXuX4X5X5X5X5X5X5X5X5X5X5XyXtXtXtXtXtXtXdXw.- - cXcXcXcXcXcXcXcXcX",
"cXcXcXcXcXcXcXcX- @ { :XiXtXtXtXtXtXtXtXtXtXtXtXtXtXtXtXtXtXtXtXtXtXtXtXtXdXw.- - cXcXcXcXcXcXcXcXcX",
"cXcXcXcXcXcXcXcX- @ { :XiXtXtXtXtXtXtXtXtXtXtXtXtXtXtXtXtXtXtXtXtXtXtXtXtXdXw.- - cXcXcXcXcXcXcXcXcX",
"cXcXcXcXcXcXcXcX- @ { :XiXtXtXtXtXtXtXtXtXtXtXtXtXtXtXtXtXtXtXtXtXtXtXtXtXdXw.- - cXcXcXcXcXcXcXcXcX",
"cXcXcXcXcXcXcXcX- @ { :XiXtXtXtXtXtXtXtXtXtXtXtXtXtXtXtXtXtXtXtXtXtXtXtXtXdXw.- - cXcXcXcXcXcXcXcXcX",
"cXcXcXcXcXcX- - - @ { :XiXtXtXtXtXtXtXtXtXtXtXtXtXtXtXtXtXtXtXtXtXtXtXtXtXdXw.- - - - cXcXcXcXcXcXcX",
"cXcXcXcXcX- - - - + { :XiXtXtXtXtXtXtXtXtXtXtXtXtXtXtXtXtXtXtXtXtXtXtXtXtXdXw.- - - - - cXcXcXcXcXcX",
"cXcXcXcXcX- - - - + { :XiXtXtXtXtXtXtXtXtXtXtXtXtXtXtXtXtXtXtXtXtXtXtXtXtXdXw.- - - - - cXcXcXcXcXcX",
"cXcXcXcXcXcXcXcX- @ { :XiXtXtXtXtXtXtXtXtXtXtXtXtXtXtXtXtXtXtXtXtXtXtXtXtXdXw.- - cXcXcXcXcXcXcXcXcX",
"cXcXcXcXcXcXcXcX- @ { :XiXtXtXtXtXtXtXtXtXtXtXtXtXtXtXtXtXtXtXtXtXtXtXtXtXdXw.- - cXcXcXcXcXcXcXcXcX",
"cXcXcXcXcXcXcXcX- @ { :XiXtXtXtXtXtXtXtXtXtXtXtXtXtXtXtXtXtXtXtXtXtXtXtXtXdXw.- - - cXcXcXcXcXcXcXcX",
"cXcXcXcXcX- - - - + { :XiXtXtXtXtXtXtXtXtXtXtXtXtXtXtXtXtXtXtXtXtXtXtXtXtXdXw.- - - - - cXcXcXcXcXcX",
"cXcXcXcXcX- - - - + { :XiXtXtXtXtXtXtXtXtXtXtXtXtXtXtXtXtXtXtXtXtXtXtXtXtXdXw.- - - - - cXcXcXcXcXcX",
"cXcXcXcXcXcXcXcX- @ { :XiXtXtXtXtXtXtXtXtXtXtXtXtXtXtXtXtXtXtXtXtXtXtXtXtXdXw.- - - cXcXcXcXcXcXcXcX",
"cXcXcXcXcXcXcXcX- + | 1XjXgXgXgXgXdXdXdXdXdXdXdXdXdXdXdXdXdXdXdXgXgXgXgXgXkXr.- - cXcXcXcXcXcXcXcXcX",
"cXcXcXcXcXcXcXcX- @ A v.m.n.n.n.N.V.V.V.V.V.V.V.V.V.V.V.V.V.V.V.B.m.n.n.n.m.2.- - cXcXcXcXcXcXcXcXcX",
"cXcXcXcXcXcXcXcX- - > q w w w e I ) ( ( ( ( ( ( ( ( ( ( ( ( ( ( W u w e e e q cXcXcXcXcXcXcXcXcXcXcX",
"cXcXcXcXcXcXcXcX- - - & & & & - v R Y Y Y Y Y Y Y Y Y Y Y Y Y R H 2 & & & & & cXcXcXcXcXcXcXcXcXcXcX",
"cXcXcXcXcXcXcXcX- % c <.5.i.y.r.+.Y R R R L s a a a a D R R R R K 3 - - - - - cXcXcXcXcXcXcXcXcXcXcX",
"cXcXcXcXcXcXcXcX- @ ^ (. XzXgXrX4.U Y R E F ; @ $ $ % d E R Y Y G < $ & % % % cXcXcXcXcXcXcXcXcXcXcX",
"cXcXcXcXcXcXcXcX- @ Q Q.!.R.tXqXp.....T L J h g g g g b L P _ X./ k g f p p i cXcXcXcXcXcXcXcXcXcXcX",
"cXcXcXcXcXcXcXcXcXcXcXx l t.tXtX&X.XN.V , Z M.D.S.S.A.*.< y k.XXT.D.S.Y.E.W.>.- - cXcXcXcXcXcXcXcXcX",
"cXcXcXcXcXcXcXcXcXcXcX% O 3.jXgXdXgX$XN   C *XhXgXgXpX-.. 5 b.lXjXgXdX8X|. X1.- - cXcXcXcXcXcXcXcXcX",
"cXcXcXcXcXcXcXcXcXcXcX- # $.d.f.F.fX-X7.%.9.;XiXtXtXtXj.&.=.u.s.l.;XiX6X`.[.1.- - cXcXcXcXcXcXcXcXcX",
"cXcXcXcXcXcXcXcXcXcXcXcXcXcX: 4 h.hXtXwX0XeXtXiXiXiXiXtXrX-X] @ n G.dX7X].{.1.- - cXcXcXcXcXcXcXcXcX",
"cXcXcXcXcXcXcXcXcXcXcXcXcXcX& > g.aXuXuXuXqX>X:X:X:X:X:X,X#X' o j Z.1X2X^./.,.- - cXcXcXcXcXcXcXcXcX",
"cXcXcXcXcXcXcXcXcXcXcXcXcXcX- 1 a.+XoXoXOXU.O.[ { { { { { ] r & 7 ` }  .! ~ z - - cXcXcXcXcXcXcXcXcX",
"cXcXcXcXcXcXcXcXcXcXcXcXcXcX- 1 J.xX[.[. XI.0 O @ @ @ @ @ @ & - - @ + @ @ @ % - - cXcXcXcXcXcXcXcXcX",
"cXcXcXcXcXcXcXcXcXcXcXcXcXcX- 1 1.P.K.K.L.H.t & - - - - - - - - - - - - - - - - - cXcXcXcXcXcXcXcXcX",
"cXcXcXcXcXcXcXcXcXcXcXcXcXcXcXcX0 0 0 0 0 0 cXcXcXcXcXcXcXcXcXcXcXcXcXcXcXcXcXcXcXcXcXcXcXcXcXcXcXcX",
"cXcXcXcXcXcXcXcXcXcXcXcXcXcXcXcX& & & & & & cXcXcXcXcXcXcXcXcXcXcXcXcXcXcXcXcXcXcXcXcXcXcXcXcXcXcXcX",
"cXcXcXcXcXcXcXcXcXcXcXcXcXcXcXcXcXcXcXcXcXcXcXcXcXcXcXcXcXcXcXcXcXcXcXcXcXcXcXcXcXcXcXcXcXcXcXcXcXcX",
"cXcXcXcXcXcXcXcXcXcXcXcXcXcXcXcXcXcXcXcXcXcXcXcXcXcXcXcXcXcXcXcXcXcXcXcXcXcXcXcXcXcXcXcXcXcXcXcXcXcX",
"cXcXcXcXcXcXcXcXcXcXcXcXcXcXcXcXcXcXcXcXcXcXcXcXcXcXcXcXcXcXcXcXcXcXcXcXcXcXcXcXcXcXcXcXcXcXcXcXcXcX",
"cXcXcXcXcXcXcXcXcXcXcXcXcXcXcXcXcXcXcXcXcXcXcXcXcXcXcXcXcXcXcXcXcXcXcXcXcXcXcXcXcXcXcXcXcXcXcXcXcXcX"
};
