/* XPM */
static char *result[] = {
/* columns rows colors chars-per-pixel */
"50 50 252 2 ",
"   c #544A8D",
".  c #554A8D",
"X  c #554B8D",
"o  c #564C8D",
"O  c #574D8D",
"+  c #584D8D",
"@  c #584E8D",
"#  c #584D8E",
"$  c #584E8E",
"%  c #594E8E",
"&  c #594F8E",
"*  c #5A508E",
"=  c #5A508F",
"-  c #5B518F",
";  c #5D538F",
":  c #5F558E",
">  c #5B5290",
",  c #5C5290",
"<  c #5D5391",
"1  c #5E5490",
"2  c #5F5690",
"3  c #5C5394",
"4  c #60568D",
"5  c #60578E",
"6  c #63598D",
"7  c #63598E",
"8  c #605693",
"9  c #625891",
"0  c #645A92",
"q  c #655B92",
"w  c #615895",
"e  c #625996",
"r  c #655B95",
"t  c #655C96",
"y  c #665C96",
"u  c #675E97",
"i  c #685E93",
"p  c #685E97",
"a  c #685F97",
"s  c #625998",
"d  c #696195",
"f  c #6A6094",
"g  c #6A6194",
"h  c #6B6297",
"j  c #6C6395",
"k  c #6C659E",
"l  c #716996",
"z  c #726997",
"x  c #736A97",
"c  c #746B97",
"v  c #756C98",
"b  c #756D98",
"n  c #766D98",
"m  c #766E99",
"M  c #756D9D",
"N  c #786F9B",
"B  c #7F7793",
"V  c #787099",
"C  c #7A729A",
"Z  c #7B739A",
"A  c #7C749B",
"S  c #7D759B",
"D  c #7F779B",
"F  c #6D66A0",
"G  c #6E68A1",
"H  c #6F68A2",
"J  c #7069A1",
"K  c #716AA4",
"L  c #706AA5",
"P  c #706BA5",
"I  c #716BA5",
"U  c #726CA5",
"Y  c #726CA6",
"T  c #726DA6",
"R  c #736DA6",
"E  c #756FA5",
"W  c #746EA6",
"Q  c #7973A4",
"!  c #7A74A4",
"~  c #837A8B",
"^  c #837A8C",
"/  c #81799C",
"(  c #827A9D",
")  c #827B9D",
"_  c #837B9D",
"`  c #837BA0",
"'  c #AAA289",
"]  c #8A83A0",
"[  c #8881A2",
"{  c #8B85A4",
"}  c #9089A1",
"|  c #918AA2",
" . c #938CA3",
".. c #938DA3",
"X. c #958BAF",
"o. c #958CAF",
"O. c #9A94A5",
"+. c #9B95A5",
"@. c #9B94A6",
"#. c #9C95A6",
"$. c #9C96A6",
"%. c #9D96A6",
"&. c #9591AD",
"*. c #9690AE",
"=. c #9691AE",
"-. c #9692AE",
";. c #9995AF",
":. c #9A95AF",
">. c #8C86B2",
",. c #938DB6",
"<. c #938DB7",
"1. c #9893B1",
"2. c #9890B4",
"3. c #A59EB3",
"4. c #A098B9",
"5. c #A59DBC",
"6. c #A9A3AA",
"7. c #A9A4AA",
"8. c #AAA4AB",
"9. c #ACA7AB",
"0. c #AFA6AB",
"q. c #ACA7AC",
"w. c #AEA8AC",
"e. c #B0ABAD",
"r. c #B3AEAE",
"t. c #B4AFAF",
"y. c #B5B0AF",
"u. c #B5B1AF",
"i. c #B6B1AF",
"p. c #B6B2AF",
"a. c #BCB8B1",
"s. c #C4BC88",
"d. c #C5BD8A",
"f. c #C5BE8F",
"g. c #C1BDB3",
"h. c #C1BEB3",
"j. c #C2BEB3",
"k. c #E0B5AD",
"l. c #E0B6AE",
"z. c #E0B7AE",
"x. c #E1BAAF",
"c. c #E1BBAF",
"v. c #E1BBB0",
"b. c #C8C088",
"n. c #C9C288",
"m. c #C9C28E",
"M. c #E2DB86",
"N. c #E4DD86",
"B. c #EAE385",
"V. c #E8E186",
"C. c #E9E286",
"Z. c #EAE386",
"A. c #ECE586",
"S. c #CDCAB7",
"D. c #D0CDB9",
"F. c #D3D0BA",
"G. c #D7D4BB",
"H. c #D9D7BC",
"J. c #DAD7BC",
"K. c #DAD8BC",
"L. c #DBD8BC",
"P. c #DCDABD",
"I. c #E3C1B2",
"U. c #E3C2B2",
"Y. c #E4C1B2",
"T. c #E5C5B3",
"R. c #E5C5B4",
"E. c #E6C8B5",
"W. c #E7CDB7",
"Q. c #E6D4BA",
"!. c #E1DFBF",
"~. c #EBD8BB",
"^. c #ECDDBD",
"/. c #EEE3BF",
"(. c #EEE4BF",
"). c #B0A8C3",
"_. c #B4ACC3",
"`. c #BFB7CC",
"'. c #C2BACB",
"]. c #C3BCCF",
"[. c #C7BFD0",
"{. c #CCC7C4",
"}. c #C7C0D0",
"|. c #C8C0D1",
" X c #D9D3D9",
".X c #D9D2DC",
"XX c #DDD7DC",
"oX c #DED7DC",
"OX c #DDD6DE",
"+X c #DED7DE",
"@X c #DFD8DC",
"#X c #DFD8DF",
"$X c #E8D3C5",
"%X c #E8D4C5",
"&X c #E9D7C5",
"*X c #EFDAC7",
"=X c #EFDBC7",
"-X c #F0DEC7",
";X c #E4E2C0",
":X c #E7E5C1",
">X c #E6E4C7",
",X c #E8E6C1",
"<X c #E8E7C1",
"1X c #E9E7C1",
"2X c #EFE7C1",
"3X c #EBE3C4",
"4X c #E9E8C2",
"5X c #EAE8C2",
"6X c #EAE9C2",
"7X c #EBE9C2",
"8X c #EBEAC2",
"9X c #ECEAC2",
"0X c #ECEAC3",
"qX c #ECEBC3",
"wX c #EDEBC3",
"eX c #EDECC3",
"rX c #EEECC3",
"tX c #EEEDC3",
"yX c #ECE9C4",
"uX c #EDECC4",
"iX c #EEEDC4",
"pX c #E9E6C9",
"aX c #EDEBCB",
"sX c #EEECCB",
"dX c #F1ECC3",
"fX c #F1EDC3",
"gX c #F1E9C6",
"hX c #F2EAC6",
"jX c #F0EEC4",
"kX c #F0EFC4",
"lX c #F1EFC4",
"zX c #F2EEC4",
"xX c #F2EFC4",
"cX c #F2EFC5",
"vX c #F3F0C5",
"bX c #F2F1C5",
"nX c #F3F1C5",
"mX c #F3F2C5",
"MX c #F3F3C5",
"NX c #F4F3C5",
"BX c #F4F3C6",
"VX c #F5F4C5",
"CX c #F4F4C6",
"ZX c #F5F4C6",
"AX c #F5F5C6",
"SX c #F6F5C6",
"DX c #F6F6C6",
"FX c #F7F6C7",
"GX c #E6E1D3",
"HX c #E7E2D4",
"JX c #E7E3D4",
"KX c None",
/* pixels */
"KXKXKXKXKXKXKXKXKXKXKXKXKXKXKXKXKXKXKXKXKXKXKXKXKXKXKXKXKXKXKXKXKXKXKXKXKXKXKXKXKXKXKXKXKXKXKXKXKXKX",
"KXKXKXKXKXKXKXKXKXKXKXKXKXKXKXKXKXKXKXKXKXKXKXKXKXKXKXKXKXKXKXKXKXKXKXKXKXKXKXKXKXKXKXKXKXKXKXKXKXKX",
"KXKXKXKXKXKXKXKXKXKXKXKXKXKXKXKXKXKXKXKXKXKXKXKXKXKXKXKXKXKXKXKXKXKXKXKXKXKXKXKXKXKXKXKXKXKXKXKXKXKX",
"KXKXKXKXKXKXKXKXKXKXKXKXKXKXKXKXKXKXKXKXKXKXKXKXKXKXKXKXKXKXKXKXKXKXKXKXKXKXKXKXKXKXKXKXKXKXKXKXKXKX",
"KXKXKXKXKXKXKXKXKXKXKXKXKXKXKXKXKXKXKXKXKXKXKXKXKXKXKXKXKXKXKXKXKXKXKXKXKXKXKXKXKXKXKXKXKXKXKXKXKXKX",
"KXKXKXKXKXKXKXKXKXKXKXKXKXKXKXKXKXKXKXKXKXKXKXKXKXKXKXKXKXKXKXKXKXKXKXKXKXKXKXKXKXKXKXKXKXKXKXKXKXKX",
"KXKXKXKXKXKXKXKXKXKXKXKXKXKXKXKXKXKXKXKXKXKXKX% % % % % % % % % KXKXKXKXKXKXKXKXKXKXKXKXKXKXKXKXKXKX",
"KXKXKXKXKXKXKXKXKXKXKXKXKXKXKXKXKXKXKXKXKXKXKX1 1 1 1 1 1 1 1 1 KXKXKXKXKXKXKXKXKXKXKXKXKXKXKXKXKXKX",
"KXKXKXKXKXKXKXKXKXKXKXKXKXKXKXKXKXKXKXKX& $ f u.j.g.g.g.g.g.h.g.| O & KXKXKXKXKXKXKXKXKXKXKXKXKXKXKX",
"KXKXKXKXKXKXKXKXKXKXKXKXKXKXKXKXKXKXKXKX& $ g P.FXAXSXSXSXSXDXAX$.X O O KXKXKXKXKXKXKXKXKXKXKXKXKXKX",
"KXKXKXKXKXKXKXKXKXKXKXKXKXKXKXKXKXKXKXKX& $ g K.ZXnX2X(.(.(.(./.0.S D V KXKXKXKXKXKXKXKXKXKXKXKXKXKX",
"KXKXKXKXKXKXKXKXKXKXKXKXKXKXKXKXKX& & & & # g K.ZXzXE.x.c.c.c.v.Q.5X7X7.& & & KXKXKXKXKXKXKXKXKXKXKX",
"KXKXKXKXKXKXKXKXKXKXKXKXKXKXKXKXKX- - - - & j L.ZXzXR.l.z.z.z.z.~.BXAX9.& & & KXKXKXKXKXKXKXKXKXKXKX",
"KXKXKXKXKXKXKXKXKXKXKXKXKXKX& O A r.i.i.i.y.a.1XNXzXR.l.z.z.z.z.~.MXVX9.& & & KXKXKXKXKXKXKXKXKXKXKX",
"KXKXKXKXKXKXKXKXKXKXKXKXKXKX& O ) eXSXZXZXZXZXmXmXzXT.k.l.l.l.l.~.MXVX9.& & & KXKXKXKXKXKXKXKXKXKXKX",
"KXKXKXKXKXKXKXKXKXKXKXKXKXKX& O ( 8XNXmXmXmXmXmXmXxXW.I.Y.Y.I.U.^.MXVX9.& & & KXKXKXKXKXKXKXKXKXKXKX",
"KXKXKXKXKXKXKXKXKXKXKXKXKXKX& O ( 8XNXmXmXmXmXmXmXmXfXdXdXdXdXdXxXmXVX9.& & & KXKXKXKXKXKXKXKXKXKXKX",
"KXKXKXKXKXKXKXKXKXKXKXKXKXKX& O ( 8XNXmXmXmXmXmXmXmXmXmXmXmXmXmXmXmXVX9.& & & KXKXKXKXKXKXKXKXKXKXKX",
"KXKXKXKXKXKXKXKXKXKXKXKXKXKX& O ( 8XNXmXmXmXmXmXmXmXmXmXmXmXmXmXmXmXVX9.& & & KXKXKXKXKXKXKXKXKXKXKX",
"KXKXKXKXKXKXKXKXKXKXKXKXKXKX& O ( 8XNXmXmXmXmXmXmXmXmXmXmXmXmXmXmXmXVX9.& & & KXKXKXKXKXKXKXKXKXKXKX",
"KXKXKXKXKXKXKXKXKXKXKXKXKXKX& O ( 8XNXmXmXmXmXmXmXmXmXmXmXmXmXmXmXmXVX9.& & & KXKXKXKXKXKXKXKXKXKXKX",
"KXKXKXKXKXKXKXKXKXKXKX& & & & O ( 8XNXmXmXmXmXmXmXmXmXmXmXmXmXmXmXmXVX9.& & & & & & KXKXKXKXKXKXKXKX",
"KXKXKXKXKXKXKXKXKXKXKX& & $ O X / 8XNXmXVXZXVXmXmXmXmXmXmXmXmXmXmXmXVX9.& & & & & & KXKXKXKXKXKXKXKX",
"KXKXKXKXKXKXKXKXKXKXKX& $ z $.$.t.iXNX:Xy.w.p.,XNXmXmXmXmXmXmXmXmXmXVX9.& & & & & KXKXKXKXKXKXKXKXKX",
"KXKXKXKXKXKXKXKXKXKXKX& O | jXmXmXmXZXG.i o g K.ZXmXmXmXmXmXmXmXmXmXVX9.& & & KXKXKXKXKXKXKXKXKXKXKX",
"KXKXKXKXKXKXKXKXKXKXKX& O | kXNXmXmXZXJ.c 0 n P.CXmXmXmXmXmXmXmXmXmXVX9.& & & KXKXKXKXKXKXKXKXKXKXKX",
"KXKXKXKXKXKXKXKXKXKXKX& O | kXmXmXmXmXeXG.F.G.rXmXmXmXmXmXmXmXmXmXmXVX9.& & & & & & KXKXKXKXKXKXKXKX",
"KXKXKXKXKXKXKXKXKXKXKX& O | kXmXmXmXmXmXZXZXZXMXmXmXmXmXmXmXmXmXmXmXVX9.& & & & & & KXKXKXKXKXKXKXKX",
"KXKXKXKXKXKXKXKXKXKXKX& O | kXmXmXmXmXmXmXmXnXhXgXgXgXgXgXcXmXmXmXmXVX9.& & & & & KXKXKXKXKXKXKXKXKX",
"KXKXKXKXKXKXKXKXKXKXKX& O | lXNXNXNXNXNXNXNXvX-X*X*X*X*X=XhXNXNXNXNXZX9.& & & KXKXKXKXKXKXKXKXKXKXKX",
"KXKXKXKXKXKXKXKXKXKXKX& O } 1X0X0XwXqXqXqXwXyX&X$X%X%X%X%X3XeXwXqX9XwX8.& & & KXKXKXKXKXKXKXKXKXKXKX",
"KXKXKXKXKXKXKXKXKXKXKXKXKXb ) ) [ &.-.-.-.-.=.o.X.X.X.X.X.*.-.-.{ ) _ Z KXKXKXKXKXKXKXKXKXKXKXKXKXKX",
"KXKXKXKXKXKXKXKXKXKXKXKXKXKX.   3 K Y Y T R Y I I I P L L L L L s o O O KXKXKXKXKXKXKXKXKXKXKXKXKXKX",
"KXKXKXKXKXKXKXKXKXKXKXKXKXKX^ ~ B E W U F k J >.<.,.1.:.:.:.:.;.M $ & & KXKXKXKXKXKXKXKXKXKXKXKXKXKX",
"KXKXKXKXKXKXKXKXKXKXKXKXKXKXM.N.f.! W H < & a ]..X XpXtXiXiXiXuXO.O & & KXKXKXKXKXKXKXKXKXKXKXKXKXKX",
"KXKXKXKXKXKXKXKXKXKXKXKXKXKXC.B.m.Q R G > @ p [.+XoXsXNXmXmXNXmX%.O & & KXKXKXKXKXKXKXKXKXKXKXKXKXKX",
"KXKXKXKXKXKXKXKXKXKXKXKXKXKXV.Z.d.d e w = @ p [.OXXXaXmXmXmXmXnX$.O & & KXKXKXKXKXKXKXKXKXKXKXKXKXKX",
"KXKXKXKXKXKXKXKXKXKXKXKXKXKXZ.A.s.4 $ $ O o y |.#X@XsXmXmXmXmXnX+.X O O KXKXKXKXKXKXKXKXKXKXKXKXKXKX",
"KXKXKXKXKXKXKXKXKXKXKXKXKXKXb.n.' : $ 2 V Z ` _.`.'.>XNXmXmXmXmXe.C A m KXKXKXKXKXKXKXKXKXKXKXKXKXKX",
"KXKXKXKXKXKXKXKXKXKXKXKXKXKX7 6 5 * O x K.6XH.N 8 h D.ZXmXmXmXmXeX<X4X6.& & & KXKXKXKXKXKXKXKXKXKXKX",
"KXKXKXKXKXKXKXKXKXKXKXKXKXKX$ $ $ & O v ;XZX!.l o 9 S.BXbXmXmXmXmXBXZXq.& & & KXKXKXKXKXKXKXKXKXKXKX",
"KXKXKXKXKXKXKXKXKXKXKXKXKXKX& & & & $ q ..@. .0 $ ; ] O.#.{.HXGXGXGXJX3.& & & KXKXKXKXKXKXKXKXKXKXKX",
"KXKXKXKXKXKXKXKXKXKXKXKXKXKX& & & & & & O O O & & & + O = ).#XOXOXOX#X4.& & & KXKXKXKXKXKXKXKXKXKXKX",
"KXKXKXKXKXKXKXKXKXKXKXKXKXKX& & & & & & & & & & & & & & , 5.|.[.[.[.}.2.& & & KXKXKXKXKXKXKXKXKXKXKX",
"KXKXKXKXKXKXKXKXKXKXKXKXKXKXKXKXKX& & & & & & KXKXKXKXKXKXr u u u u u t KXKXKXKXKXKXKXKXKXKXKXKXKXKX",
"KXKXKXKXKXKXKXKXKXKXKXKXKXKXKXKXKX& & & & & & KXKXKXKXKXKX$ @ @ @ @ @ @ KXKXKXKXKXKXKXKXKXKXKXKXKXKX",
"KXKXKXKXKXKXKXKXKXKXKXKXKXKXKXKXKXKX& KXKX& KXKXKXKXKXKXKXKX& KXKXKX& KXKXKXKXKXKXKXKXKXKXKXKXKXKXKX",
"KXKXKXKXKXKXKXKXKXKXKXKXKXKXKXKXKXKXKXKXKXKXKXKXKXKXKXKXKXKXKXKXKXKXKXKXKXKXKXKXKXKXKXKXKXKXKXKXKXKX",
"KXKXKXKXKXKXKXKXKXKXKXKXKXKXKXKXKXKXKXKXKXKXKXKXKXKXKXKXKXKXKXKXKXKXKXKXKXKXKXKXKXKXKXKXKXKXKXKXKXKX",
"KXKXKXKXKXKXKXKXKXKXKXKXKXKXKXKXKXKXKXKXKXKXKXKXKXKXKXKXKXKXKXKXKXKXKXKXKXKXKXKXKXKXKXKXKXKXKXKXKXKX"
};
