/* XPM */
static char *result[] = {
/* columns rows colors chars-per-pixel */
"50 50 100 2 ",
"   c #51468B",
".  c #574D8D",
"X  c #594F8E",
"o  c #5B528F",
"O  c #5F5591",
"+  c #625995",
"@  c #695F94",
"#  c #6C6395",
"$  c #696098",
"%  c #706796",
"&  c #726A97",
"*  c #7C6B96",
"=  c #70679C",
"-  c #766D99",
";  c #7D6E98",
":  c #7A729B",
">  c #736DA6",
",  c #786FA1",
"<  c #7670A6",
"1  c #7A72A5",
"2  c #7A74A8",
"3  c #80759C",
"4  c #81799C",
"5  c #837CA5",
"6  c #857EAA",
"7  c #887FAA",
"8  c #918B9E",
"9  c #A59E98",
"0  c #ABA598",
"q  c #8D86A1",
"w  c #8880A8",
"e  c #9486A5",
"r  c #9589A5",
"t  c #948FAD",
"y  c #9C96A6",
"u  c #9E98A7",
"i  c #9D92AA",
"p  c #9C94B6",
"a  c #A49EA9",
"s  c #A29ABA",
"d  c #A7A1AA",
"f  c #B3AFAE",
"g  c #A9A5B3",
"h  c #B0ACB3",
"j  c #B2ABBD",
"k  c #BAB6B1",
"l  c #BFBAB2",
"z  c #D8B1AC",
"x  c #DBB9AF",
"c  c #C1BDB9",
"v  c #DDBEB1",
"b  c #E0B6AE",
"n  c #E3BFB1",
"m  c #E1DA87",
"M  c #E3DC90",
"N  c #E8E185",
"B  c #EAE38C",
"V  c #EBE596",
"C  c #ECE79C",
"Z  c #D9D5A4",
"A  c #DBD7AC",
"S  c #C6C3B5",
"D  c #C8C5B7",
"F  c #C9C6BB",
"G  c #CDCBBC",
"H  c #D1CEBC",
"J  c #D4D1BA",
"K  c #DFDDBE",
"L  c #E4C3B3",
"P  c #E7CCB6",
"I  c #E9D3B9",
"U  c #EFEBA8",
"Y  c #E8E2BF",
"T  c #EAE8BB",
"R  c #F0EDB3",
"E  c #F2F0BA",
"W  c #B4ADC5",
"Q  c #DFDBC6",
"!  c #CCC4D4",
"~  c #D1CAD6",
"^  c #D6CFD9",
"/  c #DDD8D7",
"(  c #DCD5DD",
")  c #DED8DD",
"_  c #E6D2C4",
"`  c #EDD7C7",
"'  c #EEDBC7",
"]  c #E4DFD5",
"[  c #E1DBD8",
"{  c #E6E4C1",
"}  c #EBE4C3",
"|  c #EBEAC3",
" . c #E4E0C9",
".. c #EDEACD",
"X. c #F0E4C6",
"o. c #F1EEC5",
"O. c #F3F2C5",
"+. c #F8F7C7",
"@. c #E7E3D2",
"#. c None",
/* pixels */
"#.#.#.#.#.#.#.#.#.#.#.#.#.#.#.#.#.#.#.#.#.#.#.#.#.#.#.#.#.#.#.#.#.#.#.#.#.#.#.#.#.#.#.#.#.#.#.#.#.#.",
"#.#.#.#.#.#.#.#.#.#.#.#.#.#.#.#.#.#.#.#.#.#.#.#.#.#.#.#.#.#.#.#.#.#.#.#.#.#.#.#.#.#.#.#.#.#.#.#.#.#.",
"#.#.#.#.#.#.#.#.#.#.#.#.#.#.#.#.#.#.#.#.#.#.#.#.#.#.#.#.#.#.#.#.#.#.#.#.#.#.#.#.#.#.#.#.#.#.#.#.#.#.",
"#.#.#.#.#.#.#.#.#.#.#.#.#.#.#.#.#.#.#.#.#.#.#.#.#.#.#.#.#.#.#.#.#.#.#.#.#.#.#.#.#.#.#.#.#.#.#.#.#.#.",
"#.#.#.#.#.#.#.#.#.#.#.#.#.#.#.#.#.#.#.#.#.#.#.#.#.#.#.#.#.#.#.#.#.#.#.#.#.#.#.#.#.#.#.#.#.#.#.#.#.#.",
"#.#.#.#.#.#.#.#.#.#.#.#.#.X X X X X X X #.#.#.#.#.#.#.#.#.#.X X X o X X X #.#.#.#.#.#.#.#.#.#.#.#.#.",
"#.#.#.#.#.#.#.#.#.#.#.#.#.. X . . . . . #.#.#.#.#.#.#.#.#.#.. . . . . X . #.#.#.#.#.#.#.#.#.#.#.#.#.",
"#.#.#.#.#.#.#.#.#.#.#.#.- y y y y y y y & #.#.#.#.#.#.#.#.& y y y y y y y - #.#.#.#.#.#.#.#.#.#.#.#.",
"#.#.#.#.#.#.#.#.#.#.X . 4 | O.O.O.O.O.{ : . X #.#.#.#.X . : Y O.o.O.O.O.| 4 . X #.#.#.#.#.#.#.#.#.#.",
"#.#.#.#.#.#.#.#.#.#.X . 4 I o.E o.O.O.{ : X X #.#.#.#.X X : { O.E o.o.X.Y 3 . X #.#.#.#.#.#.#.#.#.#.",
"#.#.#.#.#.#.#.#.#.#.X . 3 z n n n P O.{ - . X X X X X X . : { O.I n n L x ; . X #.#.#.#.#.#.#.#.#.#.",
"#.#.#.#.#.#.#.#.#.#.o . * b b b b P O.Y : . X o X X X X . : { O.P b b b z * . X #.#.#.#.#.#.#.#.#.#.",
"#.#.#.#.#.#.#.#.#.#.X . * z b b b P O.| W s s s s s s s s j | O.P b b b z * . X #.#.#.#.#.#.#.#.#.#.",
"#.#.#.#.#.#.#.#.#.#.o . * z b b b P O.O.[ ( ( ( ) ( ) ( ( [ O.O.P b b b z * . X #.#.#.#.#.#.#.#.#.#.",
"#.#.#.#.#.#.#.#.#.#.X . ; J n L L I o.O.[ ( ( ( ( ( ( ( ( [ O.O.I L L L v ; . o #.#.#.#.#.#.#.#.#.#.",
"#.#.#.#.#.#.#.#.#.#.X . 3 Y o.o.o.o.O.o.[ ( ( ( ( ( ( ( ( [ | O.o.o.O.O.Y 3 . X #.#.#.#.#.#.#.#.#.#.",
"#.#.#.#.#.#.#.#.#.#.o . 4 T +.O.O.O.O.O.[ ( ( ( ( ( ( ( ( [ O.O.O.O.O.+.T : . X #.#.#.#.#.#.#.#.#.#.",
"#.#.#.#.#.#.#.#.#.#.. . 4 | O.O.O.O.O.o.[ ( ( ( ( ( ( ( ( / o.O.O.O.O.O.T q . X #.#.#.#.#.#.#.#.#.#.",
"#.#.#.#.#.#.#.#.#.#.X . 4 | O.O.O.O.O.o./ ( ( ( ( ( ( ( ( ) O.O.O.O.O.O.{ q . X #.#.#.#.#.#.#.#.#.#.",
"#.#.#.#.#.#.#.#.#.#.o . 4 | O.O.O.O.O.O.@.[ @.[ @.[ @.[ [ @.O.O.O.O.O.O.| : . . #.#.#.#.#.#.#.#.#.#.",
"#.#.#.#.#.#.#.#.X X o . 4 | O.O.O.O.O.O.O.O.O.O.O.o.o.O.O.O.O.O.O.O.O.O.| 4 . X o X #.#.#.#.#.#.#.#.",
"#.#.#.#.#.#.#.#.X X X . : | O.| { | O.O.O.O.O.O.O.O.O.O.O.O.O.O.| Y | O.| 3 . X X X #.#.#.#.#.#.#.#.",
"#.#.#.#.#.#.#.#.#.#.X . 4 | O.y - a | O.O.O.O.O.O.O.O.O.O.O.O.| d & y o.| 4 . X #.#.#.#.#.#.#.#.#.#.",
"#.#.#.#.#.#.#.#.#.#.X . 4 | | 4   q O.O.O.O.O.o.O.O.O.O.O.O.O.O.e   4 | | 4 . X #.#.#.#.#.#.#.#.#.#.",
"#.#.#.#.#.#.#.#.#.#.X . 4 | o.k y k O.O.O.O.O.O.O.O.O.O.O.O.O.o.c a f o.T 4 . X #.#.#.#.#.#.#.#.#.#.",
"#.#.#.#.#.#.#.#.X X X X 4 | O.O.O.O.O.O.O.O.O.O.O.O.O.O.O.O.O.O.O.O.O.O.| 4 X X X X #.#.#.#.#.#.#.#.",
"#.#.#.#.#.#.#.#.X X X . 3 } O.O.O.O.O.O.O.O.O.O.O.O.O.O.O.O.O.O.O.o.o.O.} 4 X X X X #.#.#.#.#.#.#.#.",
"#.#.#.#.#.#.#.#.#.#.X . 3 _ ' ' ' | | O.O.O.O.O.O.O.O.O.O.O.O.O.X.' ' ' _ 3 . X #.#.#.#.#.#.#.#.#.#.",
"#.#.#.#.#.#.#.#.#.#.X . 1 _ ` ` ` } O.O.O.O.O.O.o.O.O.O.o.O.O.o.X.` ` ` _ : X X #.#.#.#.#.#.#.#.#.#.",
"#.#.#.#.#.#.#.#.#.#.#.#.- e r e r i g g g g g g g g g g g g g g i r r r e @ X X #.#.#.#.#.#.#.#.#.#.",
"#.#.#.#.#.#.#.#.#.#.#.#.#.X X X X O > > > > > > > > > > > > > > +   . . . . X X #.#.#.#.#.#.#.#.#.#.",
"#.#.#.#.#.#.#.#.#.#.#.#.#.X X X X + > > < < 1 8 q t t 6 > > > > 1 3 : , , + X X #.#.#.#.#.#.#.#.#.#.",
"#.#.#.#.#.#.#.#.#.#.#.#.#.X X X . + < < < > 0 m M T | g > < > < c |  .^ ~ 1 . X #.#.#.#.#.#.#.#.#.#.",
"#.#.#.#.#.#.#.#.#.#.#.#.#.O O O O # < < < < 0 N B T O.h < < < 2 G +...^ ~ 1 . X #.#.#.#.#.#.#.#.#.#.",
"#.#.#.#.#.#.#.#.#.#.#.. , W W c S D G G G G Z N B V C A G G G G { +.H w 1 #.#.#.#.#.#.#.#.#.#.#.#.#.",
"#.#.#.#.#.#.#.#.#.#.X . 1 ^ [ ..O.+.O.+.+.+.U N N N N U O.+.O.+.O.+.S o . #.#.#.#.#.#.#.#.#.#.#.#.#.",
"#.#.#.#.#.#.#.#.#.#.X . 1 ^ ( ..O.K k l | O.R C C C C R O.O.O.O.G k d O o #.#.#.#.#.#.#.#.#.#.#.#.#.",
"#.#.#.#.#.#.#.#.#.#.X . 1 ^ [ ..+.l O # J O.O.O.O.O.O.O.O.O.O.O.8 X o #.#.#.#.#.#.#.#.#.#.#.#.#.#.#.",
"#.#.#.#.#.#.#.#.#.#.X . < ! ~ _ Y f o + S { Y { Y T { | O.O.O...q . X #.#.#.#.#.#.#.#.#.#.#.#.#.#.#.",
"#.#.#.#.#.#.#.#.#.#.X X O = = - - # X o % : - - - - & j / / ) / w . X #.#.#.#.#.#.#.#.#.#.#.#.#.#.#.",
"#.#.#.#.#.#.#.#.#.#.X X X . . . . X X X X . . . . . X p ( ( ( ( 7 . X #.#.#.#.#.#.#.#.#.#.#.#.#.#.#.",
"#.#.#.#.#.#.#.#.#.#.#.O X X X X X X X X X X X X X X o 7 p p p p 1 . #.#.#.#.#.#.#.#.#.#.#.#.#.#.#.#.",
"#.#.#.#.#.#.#.#.#.#.#.#.#.#.#.#.#.#.#.#.#.#.#.#.#.#.#.X X . X X #.#.#.#.#.#.#.#.#.#.#.#.#.#.#.#.#.#.",
"#.#.#.#.#.#.#.#.#.#.#.#.#.#.#.#.#.#.#.#.#.#.#.#.#.#.#.#.X o X X #.#.#.#.#.#.#.#.#.#.#.#.#.#.#.#.#.#.",
"#.#.#.#.#.#.#.#.#.#.#.#.#.#.#.#.#.#.#.#.#.#.#.#.#.#.#.#.#.#.#.#.#.#.#.#.#.#.#.#.#.#.#.#.#.#.#.#.#.#.",
"#.#.#.#.#.#.#.#.#.#.#.#.#.#.#.#.#.#.#.#.#.#.#.#.#.#.#.#.#.#.#.#.#.#.#.#.#.#.#.#.#.#.#.#.#.#.#.#.#.#.",
"#.#.#.#.#.#.#.#.#.#.#.#.#.#.#.#.#.#.#.#.#.#.#.#.#.#.#.#.#.#.#.#.#.#.#.#.#.#.#.#.#.#.#.#.#.#.#.#.#.#.",
"#.#.#.#.#.#.#.#.#.#.#.#.#.#.#.#.#.#.#.#.#.#.#.#.#.#.#.#.#.#.#.#.#.#.#.#.#.#.#.#.#.#.#.#.#.#.#.#.#.#.",
"#.#.#.#.#.#.#.#.#.#.#.#.#.#.#.#.#.#.#.#.#.#.#.#.#.#.#.#.#.#.#.#.#.#.#.#.#.#.#.#.#.#.#.#.#.#.#.#.#.#.",
"#.#.#.#.#.#.#.#.#.#.#.#.#.#.#.#.#.#.#.#.#.#.#.#.#.#.#.#.#.#.#.#.#.#.#.#.#.#.#.#.#.#.#.#.#.#.#.#.#.#."
};
