/* XPM */
static char *result[] = {
/* columns rows colors chars-per-pixel */
"50 50 230 2 ",
"   c #53498C",
".  c #554B8D",
"X  c #564C8C",
"o  c #564C8D",
"O  c #574D8D",
"+  c #584D8D",
"@  c #584E8D",
"#  c #584E8E",
"$  c #594E8E",
"%  c #594F8E",
"&  c #584E8F",
"*  c #594F8F",
"=  c #5A508E",
"-  c #5A518F",
";  c #5B518F",
":  c #5C528F",
">  c #5D538F",
",  c #5B5292",
"<  c #5D5390",
"1  c #5C5391",
"2  c #5D5391",
"3  c #5D5490",
"4  c #5D5491",
"5  c #5E5490",
"6  c #5E5590",
"7  c #5E5592",
"8  c #615793",
"9  c #615891",
"0  c #625991",
"q  c #635991",
"w  c #625892",
"e  c #655B92",
"r  c #675E93",
"t  c #655B96",
"y  c #665C96",
"u  c #675D96",
"i  c #685F94",
"p  c #665F9B",
"a  c #696094",
"s  c #6B6295",
"d  c #6F6695",
"f  c #6F6696",
"g  c #6F6796",
"h  c #6B6198",
"j  c #6C6299",
"k  c #6C6399",
"l  c #6D639A",
"z  c #68609C",
"x  c #69619C",
"c  c #6B639D",
"v  c #6B649F",
"b  c #6D669F",
"n  c #706899",
"m  c #756C98",
"M  c #756D98",
"N  c #776F99",
"B  c #766D9A",
"V  c #72699D",
"C  c #73699D",
"Z  c #726B9F",
"A  c #756D9E",
"S  c #797199",
"D  c #7A729A",
"F  c #7C749A",
"G  c #7D759B",
"H  c #7E769B",
"J  c #7B729D",
"K  c #6D66A0",
"L  c #6E68A1",
"P  c #7069A2",
"I  c #7069A3",
"U  c #706AA3",
"Y  c #726CA4",
"T  c #726CA5",
"R  c #736DA5",
"E  c #726CA6",
"W  c #736DA6",
"Q  c #746DA4",
"!  c #746EA6",
"~  c #756FA6",
"^  c #756FA7",
"/  c #7E75A4",
"(  c #7F79A0",
")  c #7E78A8",
"_  c #80789C",
"`  c #81799C",
"'  c #827A9D",
"]  c #827B9D",
"[  c #837B9D",
"{  c #847C9D",
"}  c #8178A6",
"|  c #867DA9",
" . c #8C85A1",
".. c #968FA4",
"X. c #9087AF",
"o. c #958EA9",
"O. c #948FAB",
"+. c #9690A4",
"@. c #9791A4",
"#. c #9791A5",
"$. c #9993A5",
"%. c #9A93A5",
"&. c #9993A7",
"*. c #9A94A6",
"=. c #9C96A6",
"-. c #9E98A6",
";. c #9E98A7",
":. c #9289B0",
">. c #948BB1",
",. c #948CB2",
"<. c #958CB2",
"1. c #9E95B7",
"2. c #A09BA7",
"3. c #A19BA8",
"4. c #A29DAE",
"5. c #A19CB0",
"6. c #A49CB9",
"7. c #A59DBD",
"8. c #A79FBD",
"9. c #A6A0A9",
"0. c #A5A0AF",
"q. c #A5A1B1",
"w. c #A6A2B2",
"e. c #A6A2B3",
"r. c #AAA6B3",
"t. c #ADA5BD",
"y. c #B0ACB5",
"u. c #BCB8B1",
"i. c #BDB9B2",
"p. c #BEBAB2",
"a. c #BFBBB2",
"s. c #C0BCB3",
"d. c #C1BDB3",
"f. c #C1BEB3",
"g. c #C3BFB4",
"h. c #C3C0B4",
"j. c #C5C2B6",
"k. c #C8C4B5",
"l. c #C8C5B6",
"z. c #C9C5B6",
"x. c #CAC7B6",
"c. c #C7C2BF",
"v. c #CAC7B9",
"b. c #CECBB8",
"n. c #CFCCB8",
"m. c #D1CEB9",
"M. c #D3D0B9",
"N. c #D7D4BB",
"B. c #D7D5BB",
"V. c #DAD7BC",
"C. c #DBD9BF",
"Z. c #DDDABD",
"A. c #DFDDBD",
"S. c #DFDDBE",
"D. c #E0DEBE",
"F. c #E1DFBF",
"G. c #B4ADC5",
"H. c #BCB4CA",
"J. c #BDB5CA",
"K. c #C4BDCF",
"L. c #C5BDCF",
"P. c #C5BECF",
"I. c #C6BFCF",
"U. c #CCC5CE",
"Y. c #DBD8C2",
"T. c #DEDCC2",
"R. c #CDC6D1",
"E. c #CDC5D4",
"W. c #D2CBD5",
"Q. c #D0C9D6",
"!. c #DBD4DC",
"~. c #DCD5DC",
"^. c #DCD5DD",
"/. c #DCD6DD",
"(. c #DDD6DD",
"). c #DED7DC",
"_. c #DED7DD",
"`. c #DDD6DE",
"'. c #DED7DE",
"]. c #DED8DC",
"[. c #DFD8DC",
"{. c #E0DDC6",
"}. c #E4DFD5",
"|. c #E0DADB",
" X c #E1DADC",
".X c #E5E3C0",
"XX c #E5E3C1",
"oX c #E5E2C3",
"OX c #E5E4C0",
"+X c #E8E7C1",
"@X c #E9E7C1",
"#X c #EAE8C2",
"$X c #EBE9C2",
"%X c #EDEBC3",
"&X c #EDECC3",
"*X c #EEECC3",
"=X c #EDEBC6",
"-X c #E4E1C8",
";X c #E9E5CE",
":X c #EAE6CE",
">X c #EDEBCB",
",X c #EEECCA",
"<X c #EEECCB",
"1X c #ECE9CD",
"2X c #ECE8CF",
"3X c #EEECCC",
"4X c #F0EFC4",
"5X c #F0EEC8",
"6X c #F0EECA",
"7X c #F1F0C4",
"8X c #F1F0C5",
"9X c #F2F0C4",
"0X c #F2F1C4",
"qX c #F2F1C5",
"wX c #F3F2C5",
"eX c #F3F3C5",
"rX c #F1F0C7",
"tX c #F2F1C6",
"yX c #F2F2C6",
"uX c #F4F3C5",
"iX c #F5F4C5",
"pX c #F5F4C6",
"aX c #F5F5C6",
"sX c #F6F5C6",
"dX c #F7F6C6",
"fX c #F9F8C7",
"gX c #E6E2D2",
"hX c #E4E0D4",
"jX c #E1DAE0",
"kX c None",
/* pixels */
"kXkXkXkXkXkXkXkXkXkXkXkXkXkXkXkXkXkXkXkXkXkXkXkXkXkXkXkXkXkXkXkXkXkXkXkXkXkXkXkXkXkXkXkXkXkXkXkXkXkX",
"kXkXkXkXkXkXkXkXkXkXkXkXkXkXkXkXkXkXkXkXkXkXkXkXkXkXkXkXkXkXkXkXkXkXkXkXkXkXkXkXkXkXkXkXkXkXkXkXkXkX",
"kXkXkXkXkXkXkXkXkXkXkXkXkXkXkXkXkXkXkXkXkXkXkXkXkXkXkXkXkXkXkXkXkXkXkXkXkXkXkXkXkXkXkXkXkXkXkXkXkXkX",
"kXkXkXkXkXkXkXkXkXkXkXkXkXkXkXkXkXkXkXkXkXkXkXkXkXkXkXkXkXkXkXkXkXkXkXkXkXkXkXkXkXkXkXkXkXkXkXkXkXkX",
"kXkXkXkXkXkXkXkXkXkXkXkXkXkXkXkXkXkXkXkXkXkXkXkXkXkXkXkXkXkXkXkXkXkXkXkXkXkXkXkXkXkXkXkXkXkXkXkXkXkX",
"kXkXkXkXkXkXkXkXkXkXkX% % % % % % % % kXkXkXkXkXkXkXkXkXkXkXkX% % % % % % % kXkXkXkXkXkXkXkXkXkXkXkX",
"kXkXkXkXkXkXkXkXkXkXkXO O O O O O O O kXkXkXkXkXkXkXkXkXkXkXO O O O O O O O O kXkXkXkXkXkXkXkXkXkXkX",
"kXkXkXkXkXkXkXkXkXkXM G G G G G G G F kXkXkXkXkXkXkXkXkXkXkXS G G G G G G G D kXkXkXkXkXkXkXkXkXkXkX",
"kXkXkXkXkXkXkXkX% O =.+X@X@X@X@X@X#XB.f # % kXkXkXkXkXkX% 5 u.$X@X@X@X@X@X$Xp.5 $ kXkXkXkXkXkXkXkXkX",
"kXkXkXkXkXkXkXkX% O ;.uXuXuXuXuXuXpXD.g # % kXkXkXkXkX% % 5 d.sXuXuXuXuXuXsXg.5 $ % kXkXkXkXkXkXkXkX",
"kXkXkXkXkXkXkXkX% O -.wXwXwXwXwXwXuXS.g # % % % % % % % % 5 d.aXwXwXwXwXwXaXg.5 $ % kXkXkXkXkXkXkXkX",
"kXkXkXkXkXkXkXkX% O -.wXwXwXwXwXwXuXA.d O @ @ @ @ @ @ @ @ > d.aXwXwXwXwXwXaXg.5 $ % kXkXkXkXkXkXkXkX",
"kXkXkXkXkXkXkXkX% O -.wXwXwXwXwXwXuXF.J t u u u u u u u y h j.pXwXwXwXwXwXaXg.5 $ % kXkXkXkXkXkXkXkX",
"kXkXkXkXkXkXkXkX% O -.wXwXwXwXwXwXwX=XU.K.P.P.P.P.P.P.P.L.I.-XuXwXwXwXwXwXaXg.5 $ % kXkXkXkXkXkXkXkX",
"kXkXkXkXkXkXkXkX% O -.wXwXwXwXwXwXwX5X|.`.`.`.`.`.`.`.`.`._.1XwXwXwXwXwXwXaXg.5 $ % kXkXkXkXkXkXkXkX",
"kXkXkXkXkXkXkXkX% O -.wXwXwXwXwXwXwXrXgX}.}.}.}.}.}.}.}.}.hX,XwXwXwXwXwXwXaXg.5 $ % kXkXkXkXkXkXkXkX",
"kXkXkXkXkXkXkXkX% O -.wXwXwXwXwXwXwXwXtXyXyXyXyXyXyXyXyXyXyXwXwXwXwXwXwXwXaXg.5 $ % kXkXkXkXkXkXkXkX",
"kXkXkXkXkXkXkXkX% O -.wXwXwXwXwXwXwXwXwXwXwXwXwXwXwXwXwXwXwXwXwXwXwXwXwXwXaXg.5 $ % kXkXkXkXkXkXkXkX",
"kXkXkXkXkXkXkXkX% O -.wXwXwXwXwXwXwXwXwXwXwXwXwXwXwXwXwXwXwXwXwXwXwXwXwXwXaXg.5 $ % kXkXkXkXkXkXkXkX",
"kXkXkXkXkXkXkXkX% O -.wXwXwXwXwXwXwXwXwXwXwXwXwXwXwXwXwXwXwXwXwXwXwXwXwXwXaXg.5 $ % kXkXkXkXkXkXkXkX",
"kXkXkXkXkXkXkXkX% O -.wXwXwXwXwXwXwXwXwXwXwXwXwXwXwXwXwXwXwXwXwXwXwXwXwXwXaXg.5 $ % kXkXkXkXkXkXkXkX",
"kXkXkXkXkX% % % % O -.wXwXwXwXwXwXwXwXwXwXwXwXwXwXwXwXwXwXwXwXwXwXwXwXwXwXaXg.5 $ % % % kXkXkXkXkXkX",
"kXkXkXkXkX% % % % O -.wXwXwXwXwXwXwXwXwXwXwXwXwXwXwXwXwXwXwXwXwXwXwXwXwXwXaXg.5 $ % % % kXkXkXkXkXkX",
"kXkXkXkXkXkX% % % O -.wXwXwXwXwXwXwXwXwXwXwXwXwXwXwXwXwXwXwXwXwXwXwXwXwXwXaXg.5 $ % % % kXkXkXkXkXkX",
"kXkXkXkXkXkXkXkX% O -.wXwXwXwXwXwXwXwXwXwXwXwXwXwXwXwXwXwXwXwXwXwXwXwXwXwXaXg.5 $ % kXkXkXkXkXkXkXkX",
"kXkXkXkXkXkXkXkX% O -.wXwXwXwXwXwXwXwXwXwXwXwXwXwXwXwXwXwXwXwXwXwXwXwXwXwXaXg.5 $ % kXkXkXkXkXkXkXkX",
"kXkXkXkXkX% % % % O -.wXwXwXwXwXwXwXwXwXwXwXwXwXwXwXwXwXwXwXwXwXwXwXwXwXwXaXg.5 $ % % % kXkXkXkXkXkX",
"kXkXkXkXkX% % % % O -.wXwXwXwXwXwXwXwXwXwXwXwXwXwXwXwXwXwXwXwXwXwXwXwXwXwXaXg.5 $ % % % kXkXkXkXkXkX",
"kXkXkXkXkX% % % % O -.wXwXwXwXwXwXwXwXwXwXwXwXwXwXwXwXwXwXwXwXwXwXwXwXwXwXaXg.5 $ % % % kXkXkXkXkXkX",
"kXkXkXkXkXkXkXkX% O ;.wXeXwXwXwXwXwXwXwXwXwXwXwXwXwXwXwXwXwXwXwXwXwXwXwXwXsXg.5 $ % kXkXkXkXkXkXkXkX",
"kXkXkXkXkXkXkXkX% O ;.7X9X7X7X7X8X8X8X8X8X8X8X8X8X8X8X8X8X8X8X8X8X9X7X7X7XuXf.5 $ % kXkXkXkXkXkXkXkX",
"kXkXkXkXkXkXkXkXkXkX] +.+.+.+.#.4.e.w.w.w.w.w.w.w.w.w.w.w.w.w.e.q.&...+.+.@.[ ; % % kXkXkXkXkXkXkXkX",
"kXkXkXkXkXkXkXkXkXkXkXO O O O & v W E E E E E E E E E E E E E E I , . . o X O % % % kXkXkXkXkXkXkXkX",
"kXkXkXkXkXkXkXkXkXkXkX% % % % ; b ! ! ! ! R U P P P P Y ! ! ! ! Q n f f k j y = % % kXkXkXkXkXkXkXkX",
"kXkXkXkXkXkXkXkXkXkXkX% % % % - b ! ! ! ! L 7 1 2 2 2 x ! ! ! W ) v.D.Y.R.E.8.< % % kXkXkXkXkXkXkXkX",
"kXkXkXkXkXkXkXkXkXkXkXO O O O * v W W ! ^ K * O O O O p ~ ! W T ) C.sX6X XjXG.4 % % kXkXkXkXkXkXkXkX",
"kXkXkXkXkXkXkXkXkXkX/ X.X.o.$.*.0.r.5.Z z A +.%.$.$.$.( z c O.r.y.XXiXoXt.7.,.< % kXkXkXkXkXkXkXkXkX",
"kXkXkXkXkXkXkXkX% @ >.!.~.;X0XqXwXuXS.f . H +XwXqXqXqX3.O 3 s.iXqXwXaXN.a % = kXkXkXkXkXkXkXkXkXkXkX",
"kXkXkXkXkXkXkXkX% @ >.^.(.:XuXwX*X&XV.m > { #XuXwXwXuX9.6 e h.sXqX&X&Xm.r # % kXkXkXkXkXkXkXkXkXkXkX",
"kXkXkXkXkXkXkXkX% @ >.^./.:XuX&X2.`  .a.z.M.4XwXwXwXwXZ.l.x..XuX@X$.' _ kXkXkXkXkXkXkXkXkXkXkXkXkXkX",
"kXkXkXkXkXkXkXkX% @ <.'.'.2XsX%X_   s D.fXdXpXpXpXpXpXaXsXsXuXuXOXM . O kXkXkXkXkXkXkXkXkXkXkXkXkXkX",
"kXkXkXkXkXkXkXkX% @ | H.J.c.n.k.N o i i.n.b.b.b.b.b.b.T.<X>X>X3X{.B O % kXkXkXkXkXkXkXkXkXkXkXkXkXkX",
"kXkXkXkXkXkXkXkX% % < 8 8 w q 0 : % = 9 q q q q q q 0 6.[.).).].W.C O % kXkXkXkXkXkXkXkXkXkXkXkXkXkX",
"kXkXkXkXkXkXkXkX% % % # # # # # % % % # # # # # # # @ 1.`.^.^.`.Q.V O % kXkXkXkXkXkXkXkXkXkXkXkXkXkX",
"kXkXkXkXkXkXkXkXkXkXkXkXkXkXkXkXkXkXkXkXkXkXkXkXkXkXkX} ,.,.,.<.:.l kXkXkXkXkXkXkXkXkXkXkXkXkXkXkXkX",
"kXkXkXkXkXkXkXkXkXkXkXkXkXkXkXkXkXkXkXkXkXkXkXkXkXkXkX@ O O O O + kXkXkXkXkXkXkXkXkXkXkXkXkXkXkXkXkX",
"kXkXkXkXkXkXkXkXkXkXkXkXkXkXkXkXkXkXkXkXkXkXkXkXkXkXkXkX% % % % % kXkXkXkXkXkXkXkXkXkXkXkXkXkXkXkXkX",
"kXkXkXkXkXkXkXkXkXkXkXkXkXkXkXkXkXkXkXkXkXkXkXkXkXkXkXkXkXkXkXkXkXkXkXkXkXkXkXkXkXkXkXkXkXkXkXkXkXkX",
"kXkXkXkXkXkXkXkXkXkXkXkXkXkXkXkXkXkXkXkXkXkXkXkXkXkXkXkXkXkXkXkXkXkXkXkXkXkXkXkXkXkXkXkXkXkXkXkXkXkX",
"kXkXkXkXkXkXkXkXkXkXkXkXkXkXkXkXkXkXkXkXkXkXkXkXkXkXkXkXkXkXkXkXkXkXkXkXkXkXkXkXkXkXkXkXkXkXkXkXkXkX"
};
