/* XPM */
static char *result[] = {
/* columns rows colors chars-per-pixel */
"50 50 34 1 ",
"  c #A8D2C4",
". c #AAD4C4",
"X c #B8DCC1",
"o c #BBDEC1",
"O c #B9DDC1",
"+ c #ACD4C3",
"@ c #BADDC1",
"# c #AAD3C4",
"$ c #B7DCC2",
"% c #ABD4C3",
"& c #A9D3C4",
"* c #A8D3C4",
"= c #A9D2C4",
"- c #ABD4C4",
"; c #B5DAC2",
": c #B6DAC2",
"> c #B3D9C2",
", c #ACD5C3",
"< c #BCDEC1",
"1 c #AFD7C3",
"2 c #B0D7C3",
"3 c #AED6C3",
"4 c #ADD5C3",
"5 c #B8DCC2",
"6 c #B6DBC2",
"7 c #ABD3C4",
"8 c #B2D9C2",
"9 c #B1D8C2",
"0 c #B2D8C2",
"q c #B1D8C3",
"w c #B2D8C3",
"e c #B8DDC1",
"r c #B4D9C2",
"t c white",
/* pixels */
"                           .XooooO+               ",
"                           .Xoooo@+               ",
"                           #$@@@@X%               ",
"                            %+++++&               ",
"                                                  ",
"          *&&&&&&&=                               ",
"         -;:::::::>&                              ",
"         ,@<ooooo<X#                              ",
"         ,@oooooooX#                              ",
"         #122222223=                              ",
"                                                  ",
"                                                  ",
"                                                  ",
"                                                  ",
"                                                  ",
"                                 =322222221#      ",
"                                 #$ooooooo@4      ",
"                                 #5<ooooo<@4      ",
"                                 &>:::::::;%      ",
"                                  =&&&&&&&=       ",
"                                                  ",
"                                                  ",
"                                                  ",
"                                                  ",
"                #----------#                      ",
"               %$XXXXXXXXXO6#                     ",
"               ,@ooooooooooO-                     ",
"               %X@@@@@@@@@@57                     ",
"               &++++++++++++=                     ",
"                                                  ",
" &&&&&                                            ",
",;::::8&                                        =9",
"3oooo<6&                                        &;",
"3@oooo6&                                        &;",
"-122223                                          4",
"                                                  ",
"                                                  ",
"                           &20qwwww0q#            ",
"                           .eooooooo@,            ",
"                           .Oooooooo@,            ",
"         #122222223=       &0r>>>>>r>.            ",
"         ,@oooooooX#                              ",
"         ,@<ooooo<X#                              ",
"         -;:::::::>&                              ",
"          *&&&&&&&=                               ",
"                                                  ",
"                                                  ",
"                                                  ",
"                                                  ",
"                                                  "
};
